Roboto_Serif_Micro_Wide-Regular_Italic_G1.ufo
<glyph name="exclam" format="2">
  <advance width="354"/>
  <unicode hex="0021"/>
  <outline>
    <contour>
      <point x="342" y="755" type="line"/>
      <point x="313" y="573"/>
      <point x="275" y="476"/>
      <point x="241" y="258" type="curve"/>
      <point x="179" y="258" type="line"/>
      <point x="213" y="476"/>
      <point x="205" y="572"/>
      <point x="234" y="755" type="curve"/>
    </contour>
    <component base="period" xOffset="2"/>
  </outline>
</glyph>
<glyph name="numbersign" format="2">
  <advance width="863"/>
  <unicode hex="0023"/>
  <outline>
    <contour>
      <point x="210" y="0" type="line"/>
      <point x="269" y="0" type="line"/>
      <point x="490" y="780" type="line"/>
      <point x="432" y="780" type="line"/>
    </contour>
    <contour>
      <point x="77" y="237" type="line"/>
      <point x="816" y="237" type="line"/>
      <point x="826" y="283" type="line"/>
      <point x="87" y="283" type="line"/>
    </contour>
    <contour>
      <point x="150" y="517" type="line"/>
      <point x="889" y="517" type="line"/>
      <point x="899" y="563" type="line"/>
      <point x="160" y="563" type="line"/>
    </contour>
    <contour>
      <point x="491" y="0" type="line"/>
      <point x="549" y="0" type="line"/>
      <point x="770" y="780" type="line"/>
      <point x="710" y="780" type="line"/>
    </contour>
  </outline>
</glyph>
<glyph name="percent" format="2">
  <advance width="954"/>
  <unicode hex="0025"/>
  <outline>
    <contour>
      <point x="421" y="580" type="curve" smooth="yes"/>
      <point x="421" y="511"/>
      <point x="404" y="387"/>
      <point x="314" y="387" type="curve" smooth="yes"/>
      <point x="272" y="387"/>
      <point x="238" y="425"/>
      <point x="238" y="533" type="curve" smooth="yes"/>
      <point x="238" y="600"/>
      <point x="251" y="726"/>
      <point x="345" y="726" type="curve" smooth="yes"/>
      <point x="387" y="726"/>
      <point x="421" y="688"/>
    </contour>
    <contour>
      <point x="151" y="540" type="curve" smooth="yes"/>
      <point x="151" y="414"/>
      <point x="217" y="363"/>
      <point x="315" y="363" type="curve" smooth="yes"/>
      <point x="455" y="363"/>
      <point x="508" y="486"/>
      <point x="508" y="573" type="curve" smooth="yes"/>
      <point x="508" y="699"/>
      <point x="442" y="750"/>
      <point x="345" y="750" type="curve" smooth="yes"/>
      <point x="204" y="750"/>
      <point x="151" y="627"/>
    </contour>
    <contour>
      <point x="825" y="201" type="curve" smooth="yes"/>
      <point x="825" y="134"/>
      <point x="809" y="8"/>
      <point x="718" y="8" type="curve" smooth="yes"/>
      <point x="676" y="8"/>
      <point x="642" y="46"/>
      <point x="642" y="154" type="curve" smooth="yes"/>
      <point x="642" y="221"/>
      <point x="659" y="347"/>
      <point x="749" y="347" type="curve" smooth="yes"/>
      <point x="791" y="347"/>
      <point x="825" y="309"/>
    </contour>
    <contour>
      <point x="555" y="161" type="curve" smooth="yes"/>
      <point x="555" y="35"/>
      <point x="621" y="-16"/>
      <point x="719" y="-16" type="curve" smooth="yes"/>
      <point x="859" y="-16"/>
      <point x="912" y="107"/>
      <point x="912" y="194" type="curve" smooth="yes"/>
      <point x="912" y="320"/>
      <point x="846" y="371"/>
      <point x="749" y="371" type="curve" smooth="yes"/>
      <point x="608" y="371"/>
      <point x="555" y="248"/>
    </contour>
    <component base="fraction" xOffset="431"/>
  </outline>
</glyph>
<glyph name="ampersand" format="2">
  <advance width="913"/>
  <unicode hex="0026"/>
  <outline>
    <contour>
      <point x="822" y="0" type="line"/>
      <point x="827" y="35" type="line"/>
      <point x="781" y="35" type="line" smooth="yes"/>
      <point x="735" y="35"/>
      <point x="697" y="62"/>
      <point x="656" y="108" type="curve" smooth="yes"/>
      <point x="386" y="411"/>
      <point x="333" y="465"/>
      <point x="333" y="549" type="curve" smooth="yes"/>
      <point x="333" y="640"/>
      <point x="387" y="682"/>
      <point x="484" y="682" type="curve" smooth="yes"/>
      <point x="555" y="682"/>
      <point x="609" y="652"/>
      <point x="609" y="579" type="curve" smooth="yes"/>
      <point x="609" y="509"/>
      <point x="527" y="469"/>
      <point x="366" y="426" type="curve"/>
      <point x="385" y="396" type="line"/>
      <point x="569" y="443"/>
      <point x="677" y="488"/>
      <point x="677" y="582" type="curve" smooth="yes"/>
      <point x="677" y="670"/>
      <point x="602" y="718"/>
      <point x="495" y="718" type="curve" smooth="yes"/>
      <point x="338" y="718"/>
      <point x="259" y="639"/>
      <point x="259" y="538" type="curve" smooth="yes"/>
      <point x="259" y="425"/>
      <point x="323" y="360"/>
      <point x="658" y="0" type="curve"/>
    </contour>
    <contour>
      <point x="367" y="27" type="curve" smooth="yes"/>
      <point x="270" y="27"/>
      <point x="170" y="71"/>
      <point x="170" y="203" type="curve" smooth="yes"/>
      <point x="170" y="288"/>
      <point x="208" y="347"/>
      <point x="338" y="383" type="curve"/>
      <point x="324" y="410" type="line"/>
      <point x="173" y="370"/>
      <point x="85" y="304"/>
      <point x="85" y="191" type="curve" smooth="yes"/>
      <point x="85" y="51"/>
      <point x="194" y="-10"/>
      <point x="361" y="-10" type="curve" smooth="yes"/>
      <point x="639" y="-10"/>
      <point x="729" y="210"/>
      <point x="779" y="317" type="curve" smooth="yes"/>
      <point x="797" y="356"/>
      <point x="820" y="369"/>
      <point x="879" y="369" type="curve" smooth="yes"/>
      <point x="891" y="369" type="line"/>
      <point x="896" y="404" type="line"/>
      <point x="628" y="404" type="line"/>
      <point x="623" y="369" type="line"/>
      <point x="636" y="369" type="line" smooth="yes"/>
      <point x="681" y="369"/>
      <point x="713" y="363"/>
      <point x="715" y="353" type="curve"/>
      <point x="701" y="259"/>
      <point x="621" y="27"/>
    </contour>
  </outline>
</glyph>
<glyph name="quotesingle" format="2">
  <advance width="320"/>
  <unicode hex="0027"/>
  <outline>
    <contour>
      <point x="338" y="769" type="line"/>
      <point x="322" y="675"/>
      <point x="288" y="613"/>
      <point x="262" y="467" type="curve"/>
      <point x="200" y="467" type="line"/>
      <point x="226" y="613"/>
      <point x="210" y="674"/>
      <point x="226" y="769" type="curve"/>
    </contour>
  </outline>
</glyph>
<glyph name="parenleft" format="2">
  <advance width="470"/>
  <unicode hex="0028"/>
  <outline>
    <contour>
      <point x="207" y="235" type="curve" smooth="yes"/>
      <point x="207" y="101"/>
      <point x="251" y="-23"/>
      <point x="376" y="-127" type="curve"/>
      <point x="375" y="-130" type="line"/>
      <point x="323" y="-130" type="line"/>
      <point x="209" y="-54"/>
      <point x="117" y="87"/>
      <point x="117" y="241" type="curve" smooth="yes"/>
      <point x="117" y="510"/>
      <point x="284" y="672"/>
      <point x="481" y="750" type="curve"/>
      <point x="559" y="750" type="line"/>
      <point x="558" y="747" type="line"/>
      <point x="336" y="646"/>
      <point x="207" y="477"/>
    </contour>
  </outline>
</glyph>
<glyph name="asterisk" format="2">
  <advance width="636"/>
  <unicode hex="002A"/>
  <outline>
    <contour>
      <point x="181" y="655" type="curve"/>
      <point x="225" y="722" type="line"/>
      <point x="298" y="678"/>
      <point x="331" y="623"/>
      <point x="382" y="593" type="curve"/>
      <point x="370" y="573" type="line"/>
      <point x="312" y="603"/>
      <point x="234" y="614"/>
    </contour>
    <contour>
      <point x="187" y="439" type="curve"/>
      <point x="159" y="516" type="line"/>
      <point x="225" y="542"/>
      <point x="302" y="540"/>
      <point x="366" y="559" type="curve"/>
      <point x="374" y="536" type="line"/>
      <point x="315" y="517"/>
      <point x="267" y="465"/>
    </contour>
    <contour>
      <point x="418" y="343" type="curve"/>
      <point x="329" y="343" type="line"/>
      <point x="338" y="420"/>
      <point x="379" y="477"/>
      <point x="388" y="526" type="curve"/>
      <point x="414" y="522" type="line"/>
      <point x="408" y="473"/>
      <point x="429" y="410"/>
    </contour>
    <contour>
      <point x="395" y="778" type="curve"/>
      <point x="483" y="778" type="line"/>
      <point x="473" y="702"/>
      <point x="432" y="645"/>
      <point x="425" y="595" type="curve"/>
      <point x="398" y="599" type="line"/>
      <point x="404" y="649"/>
      <point x="383" y="711"/>
    </contour>
    <contour>
      <point x="583" y="399" type="line"/>
      <point x="511" y="443"/>
      <point x="481" y="499"/>
      <point x="429" y="530" type="curve"/>
      <point x="442" y="550" type="line"/>
      <point x="498" y="518"/>
      <point x="576" y="507"/>
      <point x="630" y="466" type="curve"/>
    </contour>
    <contour>
      <point x="655" y="609" type="line"/>
      <point x="588" y="582"/>
      <point x="508" y="582"/>
      <point x="444" y="564" type="curve"/>
      <point x="438" y="587" type="line"/>
      <point x="497" y="604"/>
      <point x="546" y="661"/>
      <point x="627" y="688" type="curve"/>
    </contour>
  </outline>
</glyph>
<glyph name="zero" format="2">
  <advance width="680"/>
  <unicode hex="0030"/>
  <outline>
    <contour>
      <point x="350" y="-11" type="curve" smooth="yes"/>
      <point x="534" y="-11"/>
      <point x="674" y="124"/>
      <point x="674" y="406" type="curve" smooth="yes"/>
      <point x="674" y="586"/>
      <point x="583" y="683"/>
      <point x="438" y="683" type="curve" smooth="yes"/>
      <point x="254" y="683"/>
      <point x="114" y="548"/>
      <point x="114" y="266" type="curve" smooth="yes"/>
      <point x="114" y="87"/>
      <point x="206" y="-11"/>
    </contour>
    <contour>
      <point x="360" y="40" type="curve" smooth="yes"/>
      <point x="251" y="40"/>
      <point x="208" y="119"/>
      <point x="208" y="266" type="curve" smooth="yes"/>
      <point x="208" y="394"/>
      <point x="235" y="502"/>
      <point x="279" y="557" type="curve" smooth="yes"/>
      <point x="318" y="605"/>
      <point x="369" y="632"/>
      <point x="428" y="632" type="curve" smooth="yes"/>
      <point x="540" y="632"/>
      <point x="580" y="551"/>
      <point x="580" y="406" type="curve" smooth="yes"/>
      <point x="580" y="291"/>
      <point x="558" y="188"/>
      <point x="522" y="133" type="curve" smooth="yes"/>
      <point x="482" y="73"/>
      <point x="425" y="40"/>
    </contour>
  </outline>
</glyph>
<glyph name="one" format="2">
  <advance width="680"/>
  <unicode hex="0031"/>
  <outline>
    <contour>
      <point x="433" y="73" type="curve" smooth="yes"/>
      <point x="528" y="667" type="line"/>
      <point x="473" y="667" type="line"/>
      <point x="429" y="590"/>
      <point x="333" y="569"/>
      <point x="203" y="566" type="curve"/>
      <point x="193" y="504" type="line"/>
      <point x="330" y="504"/>
      <point x="430" y="550"/>
      <point x="461" y="624" type="curve"/>
      <point x="433" y="613" type="line"/>
      <point x="345" y="73" type="line" smooth="yes"/>
      <point x="340" y="44"/>
      <point x="303" y="37"/>
      <point x="253" y="37" type="curve" smooth="yes"/>
      <point x="134" y="37" type="line"/>
      <point x="129" y="0" type="line"/>
      <point x="610" y="0" type="line"/>
      <point x="615" y="37" type="line"/>
      <point x="512" y="37" type="line" smooth="yes"/>
      <point x="463" y="37"/>
      <point x="428" y="44"/>
    </contour>
  </outline>
</glyph>
<glyph name="three" format="2">
  <advance width="680"/>
  <unicode hex="0033"/>
  <outline>
    <contour>
      <point x="357" y="-56" type="curve" smooth="yes"/>
      <point x="223" y="-56"/>
      <point x="104" y="8"/>
      <point x="64" y="104" type="curve"/>
      <point x="120" y="133" type="line"/>
      <point x="163" y="32"/>
      <point x="264" y="-4"/>
      <point x="360" y="-4" type="curve" smooth="yes"/>
      <point x="468" y="-4"/>
      <point x="557.0" y="46.0"/>
      <point x="557" y="169" type="curve" smooth="yes"/>
      <point x="557" y="260"/>
      <point x="481" y="301"/>
      <point x="347" y="301" type="curve" smooth="yes"/>
      <point x="255" y="301" type="line"/>
      <point x="263" y="347" type="line"/>
      <point x="339" y="347" type="line" smooth="yes"/>
      <point x="469" y="347"/>
      <point x="581" y="393"/>
      <point x="581" y="508" type="curve" smooth="yes"/>
      <point x="581" y="596"/>
      <point x="523" y="638"/>
      <point x="422" y="637" type="curve"/>
      <point x="352" y="636"/>
      <point x="301" y="619"/>
      <point x="255" y="595" type="curve"/>
      <point x="251" y="599"/>
      <point x="252" y="631"/>
      <point x="286" y="635" type="curve"/>
      <point x="262" y="477" type="line"/>
      <point x="174" y="477" type="line"/>
      <point x="197" y="623" type="line"/>
      <point x="257" y="656"/>
      <point x="345" y="683"/>
      <point x="443" y="683" type="curve"/>
      <point x="589" y="683"/>
      <point x="676" y="626"/>
      <point x="676" y="525" type="curve" smooth="yes"/>
      <point x="676" y="373"/>
      <point x="523" y="322"/>
      <point x="390" y="321" type="curve"/>
      <point x="511" y="347" type="line"/>
      <point x="498" y="298" type="line"/>
      <point x="393" y="324" type="line"/>
      <point x="571" y="322"/>
      <point x="651" y="267"/>
      <point x="651" y="169" type="curve" smooth="yes"/>
      <point x="651" y="22"/>
      <point x="527" y="-56"/>
    </contour>
  </outline>
</glyph>
<glyph name="four" format="2">
  <advance width="680"/>
  <unicode hex="0034"/>
  <outline>
    <contour>
      <point x="46" y="139" type="line"/>
      <point x="664" y="139" type="line"/>
      <point x="672" y="195" type="line"/>
      <point x="88" y="195" type="line"/>
      <point x="101" y="187" type="line"/>
      <point x="559" y="655" type="line"/>
      <point x="573" y="667" type="line"/>
      <point x="503" y="667" type="line"/>
      <point x="58" y="216" type="line"/>
    </contour>
    <contour>
      <point x="523" y="-50" type="line"/>
      <point x="637" y="667" type="line"/>
      <point x="542" y="667" type="line"/>
      <point x="548" y="655" type="line"/>
      <point x="436" y="-50" type="line"/>
    </contour>
  </outline>
</glyph>
<glyph name="five" format="2">
  <advance width="680"/>
  <unicode hex="0035"/>
  <outline>
    <contour>
      <point x="362" y="-58" type="curve" smooth="yes"/>
      <point x="558" y="-58"/>
      <point x="652" y="57"/>
      <point x="652" y="203" type="curve" smooth="yes"/>
      <point x="652" y="332"/>
      <point x="583" y="425"/>
      <point x="417" y="425" type="curve" smooth="yes"/>
      <point x="328" y="425"/>
      <point x="259" y="390"/>
      <point x="213" y="325" type="curve"/>
      <point x="220" y="314" type="line"/>
      <point x="278" y="647" type="line"/>
      <point x="259" y="590" type="line"/>
      <point x="647" y="590" type="line"/>
      <point x="673" y="667" type="line"/>
      <point x="228" y="667" type="line"/>
      <point x="163" y="284" type="line"/>
      <point x="226" y="284" type="line"/>
      <point x="269" y="348"/>
      <point x="329" y="385"/>
      <point x="396" y="385" type="curve" smooth="yes"/>
      <point x="507" y="385"/>
      <point x="553" y="323"/>
      <point x="553" y="205" type="curve" smooth="yes"/>
      <point x="553" y="84"/>
      <point x="499" y="-6"/>
      <point x="355" y="-6" type="curve" smooth="yes"/>
      <point x="225" y="-6"/>
      <point x="170" y="52"/>
      <point x="124" y="137" type="curve"/>
      <point x="71" y="105" type="line"/>
      <point x="119" y="16"/>
      <point x="205" y="-58"/>
    </contour>
  </outline>
</glyph>
<glyph name="eight" format="2">
  <advance width="680"/>
  <unicode hex="0038"/>
  <outline>
    <contour>
      <point x="347" y="34" type="curve"/>
      <point x="244" y="34"/>
      <point x="191" y="87"/>
      <point x="191" y="183" type="curve" smooth="yes"/>
      <point x="191" y="247"/>
      <point x="215" y="286"/>
      <point x="250" y="312" type="curve" smooth="yes"/>
      <point x="286" y="340"/>
      <point x="334" y="354"/>
      <point x="391" y="354" type="curve" smooth="yes"/>
      <point x="499" y="354"/>
      <point x="549" y="309"/>
      <point x="549" y="217" type="curve" smooth="yes"/>
      <point x="549" y="147"/>
      <point x="527" y="108"/>
      <point x="495" y="81" type="curve" smooth="yes"/>
      <point x="459" y="50"/>
      <point x="409" y="34"/>
    </contour>
    <contour>
      <point x="402" y="395" type="curve" smooth="yes"/>
      <point x="303" y="395"/>
      <point x="263" y="448"/>
      <point x="263" y="520" type="curve" smooth="yes"/>
      <point x="263" y="582"/>
      <point x="279" y="613"/>
      <point x="303" y="635" type="curve" smooth="yes"/>
      <point x="336" y="667"/>
      <point x="385" y="682"/>
      <point x="439" y="682" type="curve"/>
      <point x="543" y="682"/>
      <point x="584" y="630"/>
      <point x="584" y="545" type="curve" smooth="yes"/>
      <point x="584" y="494"/>
      <point x="566" y="462"/>
      <point x="541" y="440" type="curve" smooth="yes"/>
      <point x="507" y="410"/>
      <point x="459" y="395"/>
    </contour>
    <contour>
      <point x="342" y="-10" type="curve"/>
      <point x="514" y="-10"/>
      <point x="648" y="62"/>
      <point x="648" y="212" type="curve" smooth="yes"/>
      <point x="648" y="310"/>
      <point x="582" y="360"/>
      <point x="459" y="374" type="curve"/>
      <point x="516" y="350" type="line"/>
      <point x="522" y="393" type="line"/>
      <point x="459" y="371" type="line"/>
      <point x="574" y="382"/>
      <point x="675" y="436"/>
      <point x="675" y="555" type="curve" smooth="yes"/>
      <point x="675" y="662"/>
      <point x="595" y="726"/>
      <point x="443" y="726" type="curve" smooth="yes"/>
      <point x="301" y="726"/>
      <point x="172" y="652"/>
      <point x="172" y="525" type="curve" smooth="yes"/>
      <point x="172" y="434"/>
      <point x="226" y="387"/>
      <point x="336" y="376" type="curve"/>
      <point x="281" y="398" type="line"/>
      <point x="275" y="355" type="line"/>
      <point x="336" y="378" type="line"/>
      <point x="210" y="364"/>
      <point x="92" y="310"/>
      <point x="92" y="172" type="curve" smooth="yes"/>
      <point x="92" y="62"/>
      <point x="165" y="-10"/>
    </contour>
  </outline>
</glyph>
<glyph name="nine" format="2">
  <advance width="680"/>
  <unicode hex="0039"/>
  <outline>
    <contour>
      <point x="408" y="684" type="curve" smooth="yes"/>
      <point x="612" y="684"/>
      <point x="666" y="535"/>
      <point x="666" y="376" type="curve" smooth="yes"/>
      <point x="666" y="125"/>
      <point x="520" y="-55"/>
      <point x="130" y="-66" type="curve"/>
      <point x="125" y="-22" type="line"/>
      <point x="425" y="-12"/>
      <point x="531" y="108"/>
      <point x="560" y="256" type="curve" smooth="yes"/>
      <point x="566" y="292"/>
      <point x="573" y="335"/>
      <point x="573" y="376" type="curve" smooth="yes"/>
      <point x="573" y="540"/>
      <point x="538" y="637"/>
      <point x="408" y="637" type="curve" smooth="yes"/>
      <point x="340" y="637"/>
      <point x="294" y="611"/>
      <point x="264" y="575" type="curve" smooth="yes"/>
      <point x="238" y="543"/>
      <point x="225" y="489"/>
      <point x="225" y="438" type="curve" smooth="yes"/>
      <point x="225" y="336"/>
      <point x="262" y="267"/>
      <point x="370" y="267" type="curve" smooth="yes"/>
      <point x="456" y="267"/>
      <point x="520" y="318"/>
      <point x="576" y="412" type="curve"/>
      <point x="589" y="372" type="line"/>
      <point x="538" y="284"/>
      <point x="472" y="217"/>
      <point x="342" y="217" type="curve" smooth="yes"/>
      <point x="204" y="217"/>
      <point x="125" y="295"/>
      <point x="125" y="432" type="curve" smooth="yes"/>
      <point x="125" y="552"/>
      <point x="212" y="684"/>
    </contour>
  </outline>
</glyph>
<glyph name="less" format="2">
  <advance width="680"/>
  <unicode hex="003C"/>
  <outline>
    <contour>
      <point x="563" y="108" type="line"/>
      <point x="81" y="297" type="line"/>
      <point x="93" y="373" type="line"/>
      <point x="635" y="563" type="line"/>
      <point x="624" y="496" type="line"/>
      <point x="137" y="330" type="line"/>
      <point x="139" y="334" type="line"/>
      <point x="572" y="170" type="line"/>
    </contour>
  </outline>
</glyph>
<glyph name="A" format="2">
  <advance width="859"/>
  <unicode hex="0041"/>
  <anchor x="522" y="721" name="top"/>
  <anchor x="420" y="0" name="bottom"/>
  <anchor x="678" y="0" name="right"/>
  <outline>
    <contour>
      <point x="284" y="286" type="line"/>
      <point x="262" y="242" type="line"/>
      <point x="650" y="242" type="line"/>
      <point x="638" y="286" type="line"/>
    </contour>
    <contour>
      <point x="520" y="715" type="line"/>
      <point x="674" y="58" type="line"/>
      <point x="674" y="49"/>
      <point x="630" y="47"/>
      <point x="574" y="47" type="curve" smooth="yes"/>
      <point x="543" y="47" type="line"/>
      <point x="538" y="0" type="line"/>
      <point x="842" y="0" type="line"/>
      <point x="847" y="47" type="line"/>
      <point x="829" y="47" type="line" smooth="yes"/>
      <point x="793" y="47"/>
      <point x="765" y="58"/>
      <point x="752" y="110" type="curve" smooth="yes"/>
      <point x="601" y="722" type="line"/>
      <point x="495" y="722" type="line"/>
      <point x="145" y="111" type="line" smooth="yes"/>
      <point x="116" y="60"/>
      <point x="90" y="47"/>
      <point x="49" y="47" type="curve"/>
      <point x="23" y="47" type="line"/>
      <point x="18" y="0" type="line"/>
      <point x="308" y="0" type="line"/>
      <point x="313" y="47" type="line"/>
      <point x="283" y="47" type="line" smooth="yes"/>
      <point x="229" y="47"/>
      <point x="181" y="58"/>
      <point x="181" y="70" type="curve"/>
      <point x="536" y="707" type="line"/>
    </contour>
  </outline>
</glyph>
<glyph name="B" format="2">
  <advance width="837"/>
  <unicode hex="0042"/>
  <outline>
    <contour>
      <point x="520" y="352" type="line"/>
      <point x="647" y="352"/>
      <point x="704" y="303"/>
      <point x="704" y="221" type="curve" smooth="yes"/>
      <point x="704" y="126"/>
      <point x="644" y="42"/>
      <point x="493" y="42" type="curve" smooth="yes"/>
      <point x="281" y="42" type="line"/>
      <point x="329" y="352" type="line"/>
    </contour>
    <contour>
      <point x="581" y="668" type="line" smooth="yes"/>
      <point x="681" y="668"/>
      <point x="721" y="626"/>
      <point x="721" y="546" type="curve" smooth="yes"/>
      <point x="721" y="457"/>
      <point x="660" y="392"/>
      <point x="530" y="392" type="curve"/>
      <point x="339" y="392" type="line"/>
      <point x="381" y="668" type="line"/>
    </contour>
    <contour>
      <point x="559" y="376" type="line"/>
      <point x="737" y="376"/>
      <point x="816" y="461"/>
      <point x="816" y="565" type="curve" smooth="yes"/>
      <point x="816" y="662"/>
      <point x="746" y="710"/>
      <point x="600" y="710" type="curve" smooth="yes"/>
      <point x="181" y="710" type="line"/>
      <point x="175" y="663" type="line"/>
      <point x="206" y="663" type="line" smooth="yes"/>
      <point x="256" y="663"/>
      <point x="289" y="655"/>
      <point x="285" y="627" type="curve" smooth="yes"/>
      <point x="200" y="84" type="line" smooth="yes"/>
      <point x="195" y="55"/>
      <point x="158" y="48"/>
      <point x="109" y="48" type="curve" smooth="yes"/>
      <point x="78" y="48" type="line"/>
      <point x="69" y="0" type="line"/>
      <point x="500" y="0" type="line" smooth="yes"/>
      <point x="691" y="0"/>
      <point x="799" y="87"/>
      <point x="799" y="221" type="curve" smooth="yes"/>
      <point x="799" y="320"/>
      <point x="723" y="364"/>
      <point x="556" y="370" type="curve"/>
      <point x="625" y="352" type="line"/>
      <point x="630" y="389" type="line"/>
    </contour>
  </outline>
</glyph>
<glyph name="C" format="2">
  <advance width="982"/>
  <unicode hex="0043"/>
  <anchor x="512" y="741" name="top"/>
  <anchor x="512" y="0" name="bottom"/>
  <outline>
    <contour>
      <point x="521" y="24" type="curve" smooth="yes"/>
      <point x="346" y="24"/>
      <point x="224" y="120"/>
      <point x="226" y="323" type="curve" smooth="yes"/>
      <point x="228" y="516"/>
      <point x="330" y="691"/>
      <point x="556" y="691" type="curve" smooth="yes"/>
      <point x="716" y="691"/>
      <point x="827" y="598"/>
      <point x="852" y="478" type="curve"/>
      <point x="902" y="478" type="line"/>
      <point x="940" y="720" type="line"/>
      <point x="887" y="720" type="line"/>
      <point x="841" y="563" type="line"/>
      <point x="864" y="556" type="line"/>
      <point x="833" y="676"/>
      <point x="684" y="735"/>
      <point x="550" y="735" type="curve" smooth="yes"/>
      <point x="279" y="735"/>
      <point x="126" y="534"/>
      <point x="126" y="324" type="curve" smooth="yes"/>
      <point x="126" y="114"/>
      <point x="259" y="-25"/>
      <point x="515" y="-25" type="curve" smooth="yes"/>
      <point x="694" y="-25"/>
      <point x="826" y="51"/>
      <point x="912" y="208" type="curve"/>
      <point x="858" y="230" type="line"/>
      <point x="784" y="85"/>
      <point x="658" y="24"/>
    </contour>
  </outline>
</glyph>
<glyph name="F" format="2">
  <advance width="785"/>
  <unicode hex="0046"/>
  <outline>
    <contour>
      <point x="316" y="375" type="curve"/>
      <point x="307" y="339" type="line"/>
      <point x="430" y="334"/>
      <point x="533" y="331"/>
      <point x="655" y="327" type="curve"/>
      <point x="664" y="392" type="line"/>
      <point x="540" y="387"/>
      <point x="438" y="381"/>
    </contour>
    <contour>
      <point x="69" y="0" type="line"/>
      <point x="415" y="0" type="line"/>
      <point x="422" y="48" type="line"/>
      <point x="369" y="48" type="line" smooth="yes"/>
      <point x="332" y="48"/>
      <point x="283" y="50"/>
      <point x="284" y="58" type="curve" smooth="yes"/>
      <point x="381" y="668" type="line"/>
      <point x="618" y="668" type="line" smooth="yes"/>
      <point x="704" y="668"/>
      <point x="746" y="659"/>
      <point x="745" y="623" type="curve" smooth="yes"/>
      <point x="740" y="506" type="line"/>
      <point x="795" y="506" type="line"/>
      <point x="827" y="710" type="line"/>
      <point x="182" y="710" type="line"/>
      <point x="176" y="663" type="line"/>
      <point x="207" y="663" type="line" smooth="yes"/>
      <point x="257" y="663"/>
      <point x="289" y="653"/>
      <point x="285" y="625" type="curve" smooth="yes"/>
      <point x="198" y="84" type="line" smooth="yes"/>
      <point x="192" y="55"/>
      <point x="156" y="48"/>
      <point x="107" y="48" type="curve" smooth="yes"/>
      <point x="76" y="48" type="line"/>
    </contour>
  </outline>
</glyph>
<glyph name="H" format="2">
  <advance width="1026"/>
  <unicode hex="0048"/>
  <anchor x="514" y="741" name="top"/>
  <anchor x="514" y="0" name="bottom"/>
  <outline>
    <contour>
      <point x="318" y="387" type="line"/>
      <point x="308" y="345" type="line"/>
      <point x="827" y="345" type="line"/>
      <point x="837" y="387" type="line"/>
    </contour>
    <contour>
      <point x="69" y="0" type="line"/>
      <point x="390" y="0" type="line"/>
      <point x="395" y="47" type="line"/>
      <point x="368" y="47" type="line" smooth="yes"/>
      <point x="331" y="47"/>
      <point x="282" y="49"/>
      <point x="283" y="57" type="curve" smooth="yes"/>
      <point x="380" y="653" type="line" smooth="yes"/>
      <point x="381" y="660"/>
      <point x="427" y="663"/>
      <point x="465" y="663" type="curve" smooth="yes"/>
      <point x="495" y="663" type="line"/>
      <point x="501" y="710" type="line"/>
      <point x="181" y="710" type="line"/>
      <point x="175" y="663" type="line"/>
      <point x="206" y="663" type="line" smooth="yes"/>
      <point x="256" y="663"/>
      <point x="289" y="655"/>
      <point x="285" y="627" type="curve" smooth="yes"/>
      <point x="197" y="83" type="line" smooth="yes"/>
      <point x="192" y="54"/>
      <point x="155" y="47"/>
      <point x="106" y="47" type="curve" smooth="yes"/>
      <point x="75" y="47" type="line"/>
    </contour>
    <contour>
      <point x="636" y="0" type="line"/>
      <point x="957" y="0" type="line"/>
      <point x="963" y="47" type="line"/>
      <point x="931" y="47" type="line" smooth="yes"/>
      <point x="881" y="47"/>
      <point x="848" y="55"/>
      <point x="852" y="83" type="curve" smooth="yes"/>
      <point x="940" y="627" type="line" smooth="yes"/>
      <point x="945" y="656"/>
      <point x="982" y="663"/>
      <point x="1031" y="663" type="curve" smooth="yes"/>
      <point x="1062" y="663" type="line"/>
      <point x="1068" y="710" type="line"/>
      <point x="748" y="710" type="line"/>
      <point x="742" y="663" type="line"/>
      <point x="769" y="663" type="line" smooth="yes"/>
      <point x="806" y="663"/>
      <point x="855" y="660"/>
      <point x="854" y="653" type="curve" smooth="yes"/>
      <point x="757" y="57" type="line" smooth="yes"/>
      <point x="756" y="50"/>
      <point x="709" y="47"/>
      <point x="672" y="47" type="curve" smooth="yes"/>
      <point x="642" y="47" type="line"/>
    </contour>
  </outline>
</glyph>
<glyph name="I" format="2">
  <advance width="481"/>
  <unicode hex="0049"/>
  <anchor x="240" y="741" name="top"/>
  <anchor x="240" y="0" name="bottom"/>
  <anchor x="313" y="0" name="right"/>
  <outline>
    <contour>
      <point x="208" y="83" type="line" smooth="yes"/>
      <point x="203" y="54"/>
      <point x="166" y="47"/>
      <point x="117" y="47" type="curve" smooth="yes"/>
      <point x="76" y="47" type="line"/>
      <point x="69" y="0" type="line"/>
      <point x="412" y="0" type="line"/>
      <point x="419" y="47" type="line"/>
      <point x="377" y="47" type="line" smooth="yes"/>
      <point x="327" y="47"/>
      <point x="293" y="53"/>
      <point x="298" y="83" type="curve" smooth="yes"/>
      <point x="385" y="627" type="line" smooth="yes"/>
      <point x="390" y="658"/>
      <point x="427" y="663"/>
      <point x="476" y="663" type="curve" smooth="yes"/>
      <point x="517" y="663" type="line"/>
      <point x="523" y="710" type="line"/>
      <point x="181" y="710" type="line"/>
      <point x="175" y="663" type="line"/>
      <point x="216" y="663" type="line" smooth="yes"/>
      <point x="266" y="663"/>
      <point x="299" y="655"/>
      <point x="295" y="627" type="curve" smooth="yes"/>
    </contour>
  </outline>
</glyph>
<glyph name="J" format="2">
  <advance width="779"/>
  <unicode hex="004A"/>
  <anchor x="521" y="741" name="top"/>
  <outline>
    <contour>
      <point x="589" y="627" type="curve" smooth="yes"/>
      <point x="525" y="223" type="line" smooth="yes"/>
      <point x="501" y="69"/>
      <point x="430" y="14"/>
      <point x="312" y="14" type="curve" smooth="yes"/>
      <point x="250" y="14"/>
      <point x="201" y="25"/>
      <point x="153" y="57" type="curve"/>
      <point x="144" y="41"/>
      <point x="156" y="25"/>
      <point x="173" y="31" type="curve"/>
      <point x="204" y="225" type="line"/>
      <point x="112" y="225" type="line"/>
      <point x="82" y="35" type="line"/>
      <point x="142" y="-2"/>
      <point x="227" y="-25"/>
      <point x="316" y="-25" type="curve" smooth="yes"/>
      <point x="483" y="-25"/>
      <point x="588" y="54"/>
      <point x="619" y="250" type="curve" smooth="yes"/>
      <point x="679" y="627" type="line" smooth="yes"/>
      <point x="684" y="658"/>
      <point x="721" y="663"/>
      <point x="770" y="663" type="curve" smooth="yes"/>
      <point x="815" y="663" type="line"/>
      <point x="822" y="710" type="line"/>
      <point x="466" y="710" type="line"/>
      <point x="459" y="663" type="line"/>
      <point x="510" y="663" type="line" smooth="yes"/>
      <point x="560" y="663"/>
      <point x="593" y="655"/>
    </contour>
  </outline>
</glyph>
<glyph name="K" format="2">
  <advance width="923"/>
  <unicode hex="004B"/>
  <anchor x="458" y="741" name="top"/>
  <anchor x="458" y="0" name="bottom"/>
  <outline>
    <contour>
      <point x="69" y="0" type="line"/>
      <point x="390" y="0" type="line"/>
      <point x="397" y="46" type="line"/>
      <point x="369" y="46" type="line" smooth="yes"/>
      <point x="332" y="46"/>
      <point x="283" y="48"/>
      <point x="284" y="56" type="curve" smooth="yes"/>
      <point x="380" y="653" type="line" smooth="yes"/>
      <point x="381" y="660"/>
      <point x="427" y="663"/>
      <point x="465" y="663" type="curve" smooth="yes"/>
      <point x="495" y="663" type="line"/>
      <point x="501" y="710" type="line"/>
      <point x="181" y="710" type="line"/>
      <point x="175" y="663" type="line"/>
      <point x="206" y="663" type="line" smooth="yes"/>
      <point x="256" y="663"/>
      <point x="289" y="655"/>
      <point x="285" y="627" type="curve" smooth="yes"/>
      <point x="198" y="82" type="line" smooth="yes"/>
      <point x="193" y="53"/>
      <point x="156" y="46"/>
      <point x="107" y="46" type="curve" smooth="yes"/>
      <point x="76" y="46" type="line"/>
    </contour>
    <contour>
      <point x="538" y="0" type="line"/>
      <point x="885" y="0" type="line"/>
      <point x="892" y="46" type="line"/>
      <point x="869" y="46" type="line" smooth="yes"/>
      <point x="830" y="46"/>
      <point x="795" y="51"/>
      <point x="757" y="86" type="curve" smooth="yes"/>
      <point x="435" y="386" type="line"/>
      <point x="402" y="341" type="line"/>
      <point x="808" y="623" type="line" smooth="yes"/>
      <point x="846" y="650"/>
      <point x="886" y="663"/>
      <point x="919" y="663" type="curve" smooth="yes"/>
      <point x="953" y="663" type="line"/>
      <point x="959" y="710" type="line"/>
      <point x="659" y="710" type="line"/>
      <point x="653" y="663" type="line"/>
      <point x="684" y="663" type="line" smooth="yes"/>
      <point x="735" y="663"/>
      <point x="769" y="659"/>
      <point x="772" y="654" type="curve"/>
      <point x="369" y="373" type="line"/>
      <point x="364" y="343" type="line"/>
      <point x="670" y="56" type="line"/>
      <point x="670" y="49"/>
      <point x="615" y="46"/>
      <point x="581" y="46" type="curve" smooth="yes"/>
      <point x="545" y="46" type="line"/>
    </contour>
  </outline>
</glyph>
<glyph name="M" format="2">
  <advance width="1179"/>
  <unicode hex="004D"/>
  <anchor x="565" y="0" name="bottom"/>
  <outline>
    <contour>
      <point x="70" y="0" type="line"/>
      <point x="350" y="0" type="line"/>
      <point x="356" y="47" type="line"/>
      <point x="351" y="47" type="line" smooth="yes"/>
      <point x="314" y="47"/>
      <point x="266" y="49"/>
      <point x="267" y="57" type="curve" smooth="yes"/>
      <point x="368" y="687" type="line"/>
      <point x="351" y="686" type="line"/>
      <point x="547" y="-2" type="line"/>
      <point x="614" y="-2" type="line"/>
      <point x="1036" y="698" type="line"/>
      <point x="1015" y="687" type="line"/>
      <point x="914" y="57" type="line" smooth="yes"/>
      <point x="913" y="50"/>
      <point x="864" y="47"/>
      <point x="826" y="47" type="curve" smooth="yes"/>
      <point x="797" y="47" type="line"/>
      <point x="790" y="0" type="line"/>
      <point x="1110" y="0" type="line"/>
      <point x="1117" y="47" type="line"/>
      <point x="1086" y="47" type="line" smooth="yes"/>
      <point x="1037" y="47"/>
      <point x="1003" y="55"/>
      <point x="1007" y="83" type="curve" smooth="yes"/>
      <point x="1094" y="627" type="line" smooth="yes"/>
      <point x="1099" y="656"/>
      <point x="1136" y="663"/>
      <point x="1185" y="663" type="curve" smooth="yes"/>
      <point x="1216" y="663" type="line"/>
      <point x="1222" y="710" type="line"/>
      <point x="985" y="710" type="line"/>
      <point x="597" y="74" type="line"/>
      <point x="615" y="85" type="line"/>
      <point x="439" y="710" type="line"/>
      <point x="181" y="710" type="line"/>
      <point x="175" y="663" type="line"/>
      <point x="206" y="663" type="line" smooth="yes"/>
      <point x="256" y="663"/>
      <point x="303" y="655"/>
      <point x="299" y="627" type="curve" smooth="yes"/>
      <point x="212" y="83" type="line" smooth="yes"/>
      <point x="207" y="54"/>
      <point x="156" y="47"/>
      <point x="107" y="47" type="curve" smooth="yes"/>
      <point x="76" y="47" type="line"/>
    </contour>
  </outline>
</glyph>
<glyph name="O" format="2">
  <advance width="974"/>
  <unicode hex="004F"/>
  <anchor x="487" y="741" name="top"/>
  <anchor x="487" y="0" name="bottom"/>
  <anchor x="512" y="0" name="right"/>
  <outline>
    <contour>
      <point x="126" y="109"/>
      <point x="272" y="-25"/>
      <point x="506" y="-25" type="curve" smooth="yes"/>
      <point x="844.0" y="-25.0"/>
      <point x="960" y="221"/>
      <point x="960" y="386" type="curve" smooth="yes"/>
      <point x="960" y="601"/>
      <point x="814" y="735"/>
      <point x="580" y="735" type="curve" smooth="yes"/>
      <point x="242.0" y="735.0"/>
      <point x="126" y="489"/>
      <point x="126" y="324" type="curve" smooth="yes"/>
    </contour>
    <contour>
      <point x="306" y="611"/>
      <point x="405" y="692"/>
      <point x="571" y="692" type="curve" smooth="yes"/>
      <point x="740.0" y="692.0"/>
      <point x="859.0" y="601.0"/>
      <point x="859" y="386" type="curve" smooth="yes"/>
      <point x="859" y="324"/>
      <point x="849" y="264"/>
      <point x="827" y="212" type="curve" smooth="yes"/>
      <point x="780" y="98"/>
      <point x="681" y="17"/>
      <point x="515" y="17" type="curve" smooth="yes"/>
      <point x="346.0" y="17"/>
      <point x="227.0" y="108"/>
      <point x="227" y="323" type="curve" smooth="yes"/>
      <point x="227" y="385"/>
      <point x="237" y="445"/>
      <point x="259" y="497" type="curve" smooth="yes"/>
    </contour>
  </outline>
</glyph>
<glyph name="R" format="2">
  <advance width="899"/>
  <unicode hex="0052"/>
  <anchor x="494" y="741" name="top"/>
  <anchor x="494" y="0" name="bottom"/>
  <outline>
    <contour>
      <point x="520" y="322" type="line"/>
      <point x="700" y="0" type="line"/>
      <point x="862" y="0" type="line"/>
      <point x="868" y="47" type="line"/>
      <point x="844" y="47" type="line" smooth="yes"/>
      <point x="782" y="47"/>
      <point x="768" y="50"/>
      <point x="735" y="107" type="curve" smooth="yes"/>
      <point x="597" y="351" type="line"/>
    </contour>
    <contour>
      <point x="420" y="47" type="line"/>
      <point x="370" y="47" type="line" smooth="yes"/>
      <point x="332" y="47"/>
      <point x="284" y="50"/>
      <point x="285" y="57" type="curve" smooth="yes"/>
      <point x="323" y="308" type="line"/>
      <point x="549" y="308" type="line"/>
      <point x="562" y="308"/>
      <point x="550" y="316"/>
      <point x="556" y="318" type="curve"/>
      <point x="695" y="310"/>
      <point x="833" y="378"/>
      <point x="833" y="533" type="curve"/>
      <point x="833" y="640"/>
      <point x="754" y="710"/>
      <point x="574" y="710" type="curve" smooth="yes"/>
      <point x="181" y="710" type="line"/>
      <point x="175" y="663" type="line"/>
      <point x="206" y="663" type="line" smooth="yes"/>
      <point x="256" y="663"/>
      <point x="289" y="655"/>
      <point x="285" y="627" type="curve" smooth="yes"/>
      <point x="198" y="83" type="line" smooth="yes"/>
      <point x="193" y="54"/>
      <point x="156" y="47"/>
      <point x="107" y="47" type="curve" smooth="yes"/>
      <point x="76" y="47" type="line"/>
      <point x="70" y="0" type="line"/>
      <point x="414" y="0" type="line"/>
    </contour>
    <contour>
      <point x="555" y="668" type="line" smooth="yes"/>
      <point x="690" y="668"/>
      <point x="740" y="625"/>
      <point x="740" y="524" type="curve" smooth="yes"/>
      <point x="740" y="414"/>
      <point x="669" y="351"/>
      <point x="521" y="351" type="curve" smooth="yes"/>
      <point x="330" y="351" type="line"/>
      <point x="381" y="668" type="line"/>
    </contour>
  </outline>
</glyph>
<glyph name="S" format="2">
  <advance width="767"/>
  <unicode hex="0053"/>
  <anchor x="413" y="741" name="top"/>
  <anchor x="413" y="0" name="bottom"/>
  <outline>
    <contour>
      <point x="453" y="-25" type="curve" smooth="yes"/>
      <point x="624" y="-25"/>
      <point x="721" y="67"/>
      <point x="721" y="189" type="curve" smooth="yes"/>
      <point x="721" y="304"/>
      <point x="654" y="354"/>
      <point x="493" y="399" type="curve" smooth="yes"/>
      <point x="339" y="442"/>
      <point x="285" y="479"/>
      <point x="285" y="556" type="curve" smooth="yes"/>
      <point x="285" y="650"/>
      <point x="353" y="692"/>
      <point x="456" y="692" type="curve" smooth="yes"/>
      <point x="574.0" y="692.0"/>
      <point x="647" y="633"/>
      <point x="667" y="502" type="curve"/>
      <point x="726" y="502" type="line"/>
      <point x="760" y="721" type="line"/>
      <point x="706" y="721" type="line"/>
      <point x="673" y="605" type="line"/>
      <point x="668" y="597"/>
      <point x="681" y="591"/>
      <point x="685" y="601" type="curve"/>
      <point x="653" y="689"/>
      <point x="569" y="734"/>
      <point x="456" y="734" type="curve" smooth="yes"/>
      <point x="295.0" y="734.0"/>
      <point x="207" y="654"/>
      <point x="207" y="539" type="curve" smooth="yes"/>
      <point x="207" y="424"/>
      <point x="279" y="367"/>
      <point x="422" y="330" type="curve" smooth="yes"/>
      <point x="589" y="287"/>
      <point x="640" y="249"/>
      <point x="640" y="181" type="curve" smooth="yes"/>
      <point x="640" y="79"/>
      <point x="568" y="21"/>
      <point x="448" y="21" type="curve" smooth="yes"/>
      <point x="297" y="21"/>
      <point x="218" y="96"/>
      <point x="183" y="234" type="curve"/>
      <point x="119" y="234" type="line"/>
      <point x="80" y="-10" type="line"/>
      <point x="139" y="-10" type="line"/>
      <point x="187" y="123" type="line"/>
      <point x="192" y="131"/>
      <point x="179" y="141"/>
      <point x="171" y="130" type="curve"/>
      <point x="220" y="27"/>
      <point x="316" y="-25"/>
    </contour>
  </outline>
</glyph>
<glyph name="U" format="2">
  <advance width="978"/>
  <unicode hex="0055"/>
  <anchor x="490" y="741" name="top"/>
  <anchor x="490" y="0" name="bottom"/>
  <anchor x="557" y="0" name="right"/>
  <outline>
    <contour>
      <point x="302" y="266" type="curve" smooth="yes"/>
      <point x="364" y="653" type="line" smooth="yes"/>
      <point x="365" y="660"/>
      <point x="415" y="663"/>
      <point x="453" y="663" type="curve" smooth="yes"/>
      <point x="482" y="663" type="line"/>
      <point x="488" y="710" type="line"/>
      <point x="165" y="710" type="line"/>
      <point x="159" y="663" type="line"/>
      <point x="190" y="663" type="line" smooth="yes"/>
      <point x="240" y="663"/>
      <point x="273" y="655"/>
      <point x="269" y="627" type="curve" smooth="yes"/>
      <point x="213" y="276" type="line" smooth="yes"/>
      <point x="209" y="251"/>
      <point x="207" y="228"/>
      <point x="207" y="206" type="curve" smooth="yes"/>
      <point x="207" y="39"/>
      <point x="331" y="-25"/>
      <point x="502" y="-25" type="curve" smooth="yes"/>
      <point x="672" y="-25"/>
      <point x="818" y="55"/>
      <point x="853" y="276" type="curve" smooth="yes"/>
      <point x="909" y="627" type="line" smooth="yes"/>
      <point x="914" y="656"/>
      <point x="951" y="663"/>
      <point x="1000" y="663" type="curve" smooth="yes"/>
      <point x="1031" y="663" type="line"/>
      <point x="1037" y="710" type="line"/>
      <point x="735" y="710" type="line"/>
      <point x="729" y="663" type="line"/>
      <point x="758" y="663" type="line" smooth="yes"/>
      <point x="795" y="663"/>
      <point x="859" y="660"/>
      <point x="858" y="653" type="curve" smooth="yes"/>
      <point x="796" y="266" type="line" smooth="yes"/>
      <point x="769" y="95"/>
      <point x="646" y="37"/>
      <point x="506" y="37" type="curve" smooth="yes"/>
      <point x="382" y="37"/>
      <point x="300" y="88"/>
      <point x="300" y="213" type="curve" smooth="yes"/>
      <point x="300" y="231"/>
      <point x="298" y="245"/>
    </contour>
  </outline>
</glyph>
<glyph name="V" format="2">
  <advance width="874"/>
  <unicode hex="0056"/>
  <outline>
    <contour>
      <point x="456" y="11" type="line"/>
      <point x="301" y="652" type="line"/>
      <point x="301" y="661"/>
      <point x="348" y="663"/>
      <point x="404" y="663" type="curve" smooth="yes"/>
      <point x="435" y="663" type="line"/>
      <point x="441" y="710" type="line"/>
      <point x="137" y="710" type="line"/>
      <point x="131" y="663" type="line"/>
      <point x="149" y="663" type="line"/>
      <point x="190" y="663"/>
      <point x="207" y="652"/>
      <point x="220" y="600" type="curve" smooth="yes"/>
      <point x="374" y="-12" type="line"/>
      <point x="484" y="-12" type="line"/>
      <point x="838" y="599" type="line" smooth="yes"/>
      <point x="867" y="650"/>
      <point x="888" y="663"/>
      <point x="929" y="663" type="curve"/>
      <point x="955" y="663" type="line"/>
      <point x="961" y="710" type="line"/>
      <point x="671" y="710" type="line"/>
      <point x="665" y="663" type="line"/>
      <point x="695" y="663" type="line" smooth="yes"/>
      <point x="757" y="663"/>
      <point x="800" y="649"/>
      <point x="800" y="642" type="curve"/>
      <point x="445" y="19" type="line"/>
    </contour>
  </outline>
</glyph>
<glyph name="W" format="2">
  <advance width="1277"/>
  <unicode hex="0057"/>
  <anchor x="651" y="741" name="top"/>
  <outline>
    <contour>
      <point x="147" y="710" type="line"/>
      <point x="141" y="662" type="line"/>
      <point x="149" y="662" type="line" smooth="yes"/>
      <point x="206" y="662"/>
      <point x="227" y="659"/>
      <point x="233" y="624" type="curve" smooth="yes"/>
      <point x="325" y="-1" type="line"/>
      <point x="441" y="-1" type="line"/>
      <point x="761" y="672" type="line"/>
      <point x="736" y="670" type="line"/>
      <point x="848" y="-1" type="line"/>
      <point x="963" y="-1" type="line"/>
      <point x="1245" y="616" type="line" smooth="yes"/>
      <point x="1260" y="649"/>
      <point x="1278" y="662"/>
      <point x="1321" y="662" type="curve" smooth="yes"/>
      <point x="1347" y="662" type="line"/>
      <point x="1353" y="710" type="line"/>
      <point x="1082" y="710" type="line"/>
      <point x="1076" y="662" type="line"/>
      <point x="1092" y="662" type="line" smooth="yes"/>
      <point x="1148" y="662"/>
      <point x="1202" y="658"/>
      <point x="1208" y="649" type="curve"/>
      <point x="930" y="42" type="line"/>
      <point x="928" y="42" type="line"/>
      <point x="814" y="710" type="line"/>
      <point x="720" y="710" type="line"/>
      <point x="401" y="39" type="line"/>
      <point x="406" y="40" type="line"/>
      <point x="321" y="642" type="line"/>
      <point x="329" y="653"/>
      <point x="358" y="662"/>
      <point x="404" y="662" type="curve" smooth="yes"/>
      <point x="435" y="662" type="line"/>
      <point x="441" y="710" type="line"/>
    </contour>
  </outline>
</glyph>
<glyph name="underscore" format="2">
  <advance width="690"/>
  <unicode hex="005F"/>
  <outline>
    <contour>
      <point x="-15" y="-96" type="line"/>
      <point x="-22" y="-141" type="line"/>
      <point x="668" y="-141" type="line"/>
      <point x="675" y="-96" type="line"/>
    </contour>
  </outline>
</glyph>
<glyph name="grave" format="2">
  <advance width="254"/>
  <unicode hex="0060"/>
  <anchor x="107" y="531" name="_top"/>
  <outline>
    <contour>
      <point x="274" y="795" type="curve" smooth="yes"/>
      <point x="359" y="675" type="line"/>
      <point x="359" y="661" type="line"/>
      <point x="326" y="661" type="line"/>
      <point x="191" y="758" type="line" smooth="yes"/>
      <point x="159" y="781"/>
      <point x="137" y="798"/>
      <point x="137" y="827" type="curve" smooth="yes"/>
      <point x="137" y="848"/>
      <point x="152" y="870"/>
      <point x="188" y="870" type="curve" smooth="yes"/>
      <point x="230" y="870"/>
      <point x="247" y="833"/>
    </contour>
  </outline>
</glyph>
<glyph name="a" format="2">
  <advance width="794"/>
  <unicode hex="0061"/>
  <anchor x="365" y="553" name="top"/>
  <anchor x="404" y="0" name="bottom"/>
  <anchor x="595" y="-10" name="right"/>
  <outline>
    <contour>
      <point x="653" y="377" type="line"/>
      <point x="630" y="509"/>
      <point x="553" y="575"/>
      <point x="422" y="575" type="curve" smooth="yes"/>
      <point x="193" y="575"/>
      <point x="105" y="358"/>
      <point x="105" y="207" type="curve" smooth="yes"/>
      <point x="105" y="76"/>
      <point x="187" y="-12"/>
      <point x="329" y="-12" type="curve" smooth="yes"/>
      <point x="454" y="-12"/>
      <point x="540" y="70"/>
      <point x="607" y="199" type="curve"/>
      <point x="592" y="212" type="line"/>
      <point x="513" y="94"/>
      <point x="444" y="40"/>
      <point x="347" y="40" type="curve" smooth="yes"/>
      <point x="255" y="40"/>
      <point x="204" y="99"/>
      <point x="203" y="207" type="curve" smooth="yes"/>
      <point x="201" y="377"/>
      <point x="286" y="531"/>
      <point x="438" y="531" type="curve" smooth="yes"/>
      <point x="527" y="531"/>
      <point x="591" y="481"/>
      <point x="619" y="382" type="curve"/>
    </contour>
    <contour>
      <point x="726" y="565" type="line"/>
      <point x="667" y="565" type="line"/>
      <point x="614" y="414" type="line"/>
      <point x="608" y="406" type="line"/>
      <point x="565" y="166" type="line"/>
      <point x="564" y="160" type="line"/>
      <point x="557" y="126"/>
      <point x="552" y="91"/>
      <point x="552" y="73" type="curve" smooth="yes"/>
      <point x="552" y="20"/>
      <point x="583" y="0"/>
      <point x="659" y="0" type="curve" smooth="yes"/>
      <point x="697" y="0"/>
      <point x="740" y="0"/>
      <point x="772" y="0" type="curve"/>
      <point x="777" y="35" type="line"/>
      <point x="746" y="35"/>
      <point x="722" y="35"/>
      <point x="680" y="35" type="curve" smooth="yes"/>
      <point x="653" y="35"/>
      <point x="642" y="45"/>
      <point x="642.0" y="65" type="curve" smooth="yes"/>
      <point x="642" y="89"/>
      <point x="648" y="135"/>
      <point x="666" y="232" type="curve" smooth="yes"/>
    </contour>
  </outline>
</glyph>
<glyph name="e" format="2">
  <advance width="662"/>
  <unicode hex="0065"/>
  <anchor x="337" y="551" name="top"/>
  <anchor x="357" y="0" name="bottom"/>
  <anchor x="522" y="1" name="right"/>
  <outline>
    <contour>
      <point x="357" y="-12" type="curve" smooth="yes"/>
      <point x="458" y="-12"/>
      <point x="550" y="34"/>
      <point x="611" y="113" type="curve"/>
      <point x="579" y="139" type="line"/>
      <point x="530" y="74"/>
      <point x="456" y="34"/>
      <point x="372" y="34" type="curve" smooth="yes"/>
      <point x="258" y="34"/>
      <point x="203" y="97"/>
      <point x="203" y="217" type="curve" smooth="yes"/>
      <point x="203" y="379"/>
      <point x="299" y="535"/>
      <point x="449" y="535" type="curve" smooth="yes"/>
      <point x="521" y="535"/>
      <point x="556" y="485"/>
      <point x="556" y="435" type="curve" smooth="yes"/>
      <point x="556" y="353"/>
      <point x="481" y="298"/>
      <point x="191" y="274" type="curve"/>
      <point x="186" y="235" type="line"/>
      <point x="507" y="256"/>
      <point x="647" y="314"/>
      <point x="647" y="441" type="curve" smooth="yes"/>
      <point x="647" y="524"/>
      <point x="572" y="575"/>
      <point x="447" y="575" type="curve" smooth="yes"/>
      <point x="259" y="575"/>
      <point x="108" y="420"/>
      <point x="108" y="220" type="curve" smooth="yes"/>
      <point x="108" y="81"/>
      <point x="202" y="-12"/>
    </contour>
  </outline>
</glyph>
<glyph name="g" format="2">
  <advance width="784"/>
  <unicode hex="0067"/>
  <anchor x="368" y="545" name="top"/>
  <outline>
    <contour>
      <point x="553" y="14" type="line" smooth="yes"/>
      <point x="528" y="-128"/>
      <point x="465" y="-201"/>
      <point x="312" y="-201" type="curve" smooth="yes"/>
      <point x="204" y="-201"/>
      <point x="144" y="-178"/>
      <point x="101" y="-144" type="curve"/>
      <point x="92" y="-169"/>
      <point x="101" y="-183"/>
      <point x="126" y="-194" type="curve"/>
      <point x="145" y="-68" type="line"/>
      <point x="56" y="-68" type="line"/>
      <point x="38" y="-185" type="line"/>
      <point x="96" y="-216"/>
      <point x="180" y="-250"/>
      <point x="312" y="-250" type="curve" smooth="yes"/>
      <point x="511" y="-250"/>
      <point x="612" y="-135"/>
      <point x="641" y="22" type="curve" smooth="yes"/>
      <point x="740" y="565" type="line"/>
      <point x="691" y="565" type="line"/>
      <point x="630" y="425" type="line"/>
      <point x="624" y="417" type="line"/>
    </contour>
    <contour>
      <point x="667" y="377" type="line"/>
      <point x="644" y="509"/>
      <point x="567" y="575"/>
      <point x="430" y="575" type="curve" smooth="yes"/>
      <point x="199" y="575"/>
      <point x="109" y="388"/>
      <point x="109" y="229" type="curve" smooth="yes"/>
      <point x="109" y="97"/>
      <point x="197" y="12"/>
      <point x="335" y="12" type="curve" smooth="yes"/>
      <point x="480" y="12"/>
      <point x="558" y="95"/>
      <point x="625" y="223" type="curve"/>
      <point x="613" y="248" type="line"/>
      <point x="536" y="122"/>
      <point x="460" y="65"/>
      <point x="360" y="65" type="curve" smooth="yes"/>
      <point x="253" y="65"/>
      <point x="204" y="117"/>
      <point x="204" y="239" type="curve" smooth="yes"/>
      <point x="204" y="380"/>
      <point x="273" y="528"/>
      <point x="441" y="528" type="curve" smooth="yes"/>
      <point x="540" y="528"/>
      <point x="604" y="476"/>
      <point x="632" y="367" type="curve"/>
    </contour>
  </outline>
</glyph>
<glyph name="j" format="2">
  <advance width="405"/>
  <unicode hex="006A"/>
  <outline>
    <contour>
      <point x="330" y="675" type="curve" smooth="yes"/>
      <point x="372" y="675"/>
      <point x="397" y="701"/>
      <point x="397" y="745" type="curve" smooth="yes"/>
      <point x="397" y="787"/>
      <point x="372" y="814"/>
      <point x="330" y="814" type="curve" smooth="yes"/>
      <point x="286" y="814"/>
      <point x="263" y="787"/>
      <point x="263" y="745" type="curve" smooth="yes"/>
      <point x="263" y="701"/>
      <point x="286" y="675"/>
    </contour>
    <contour>
      <point x="-89" y="-237" type="line"/>
      <point x="-57" y="-245"/>
      <point x="-10" y="-250"/>
      <point x="34" y="-250" type="curve" smooth="yes"/>
      <point x="178" y="-250"/>
      <point x="248" y="-198"/>
      <point x="267" y="-50" type="curve" smooth="yes"/>
      <point x="347" y="565" type="line"/>
      <point x="129" y="565" type="line"/>
      <point x="124" y="527" type="line"/>
      <point x="168" y="522" type="line" smooth="yes"/>
      <point x="240" y="514"/>
      <point x="250" y="500"/>
      <point x="246" y="467" type="curve" smooth="yes"/>
      <point x="172" y="-83" type="line" smooth="yes"/>
      <point x="159" y="-181"/>
      <point x="106" y="-202"/>
      <point x="18" y="-202" type="curve" smooth="yes"/>
      <point x="-15" y="-202"/>
      <point x="-51" y="-195"/>
      <point x="-81" y="-187" type="curve"/>
    </contour>
  </outline>
</glyph>
<glyph name="k" format="2">
  <advance width="710"/>
  <unicode hex="006B"/>
  <anchor x="353" y="0" name="bottom"/>
  <outline>
    <contour>
      <point x="578" y="70" type="line" smooth="yes"/>
      <point x="595" y="47"/>
      <point x="608" y="35"/>
      <point x="639" y="35" type="curve" smooth="yes"/>
      <point x="661" y="35"/>
      <point x="682" y="35"/>
      <point x="711" y="35" type="curve"/>
      <point x="706" y="0" type="line"/>
      <point x="673" y="0"/>
      <point x="640" y="0"/>
      <point x="607" y="0" type="curve" smooth="yes"/>
      <point x="536" y="0"/>
      <point x="518" y="12"/>
      <point x="482" y="61" type="curve" smooth="yes"/>
      <point x="306" y="301" type="line"/>
      <point x="306" y="306" type="line"/>
      <point x="407" y="393"/>
      <point x="508" y="478"/>
      <point x="608" y="565" type="curve"/>
      <point x="704" y="565" type="line"/>
      <point x="707" y="550" type="line"/>
      <point x="601" y="477"/>
      <point x="481" y="387"/>
      <point x="374" y="314" type="curve"/>
      <point x="375" y="344" type="line"/>
    </contour>
    <contour>
      <point x="132" y="0" type="line"/>
      <point x="245" y="682" type="line" smooth="yes"/>
      <point x="251" y="717"/>
      <point x="244" y="729"/>
      <point x="165" y="738" type="curve" smooth="yes"/>
      <point x="128" y="742" type="line"/>
      <point x="134" y="780" type="line"/>
      <point x="349" y="780" type="line"/>
      <point x="220" y="0" type="line"/>
    </contour>
  </outline>
</glyph>
<glyph name="l" format="2">
  <advance width="411"/>
  <unicode hex="006C"/>
  <anchor x="213" y="746" name="top"/>
  <anchor x="217" y="0" name="bottom"/>
  <anchor x="357" y="735" name="right"/>
  <anchor x="430" y="391" name="mid"/>
  <outline>
    <contour>
      <point x="246" y="683" type="curve" smooth="yes"/>
      <point x="172" y="223" type="line" smooth="yes"/>
      <point x="155" y="117"/>
      <point x="151" y="91"/>
      <point x="151" y="72" type="curve" smooth="yes"/>
      <point x="151" y="20"/>
      <point x="181" y="0"/>
      <point x="257" y="0" type="curve" smooth="yes"/>
      <point x="301" y="0"/>
      <point x="345" y="0"/>
      <point x="389" y="0" type="curve"/>
      <point x="395" y="35" type="line"/>
      <point x="354" y="35"/>
      <point x="305" y="35"/>
      <point x="278" y="35" type="curve" smooth="yes"/>
      <point x="251" y="35"/>
      <point x="238" y="43"/>
      <point x="238" y="62" type="curve" smooth="yes"/>
      <point x="238" y="81"/>
      <point x="242" y="106"/>
      <point x="257" y="203" type="curve" smooth="yes"/>
      <point x="346" y="780" type="line"/>
      <point x="134" y="780" type="line"/>
      <point x="129" y="743" type="line"/>
      <point x="166" y="739" type="line" smooth="yes"/>
      <point x="244" y="731"/>
      <point x="252" y="718"/>
    </contour>
  </outline>
</glyph>
<glyph name="n" format="2">
  <advance width="837"/>
  <unicode hex="006E"/>
  <anchor x="409" y="551" name="top"/>
  <anchor x="418" y="0" name="bottom"/>
  <outline>
    <contour>
      <point x="173" y="0" type="line"/>
      <point x="246" y="467" type="line" smooth="yes"/>
      <point x="251" y="500"/>
      <point x="245" y="514"/>
      <point x="172" y="522" type="curve" smooth="yes"/>
      <point x="129" y="527" type="line"/>
      <point x="134" y="565" type="line"/>
      <point x="332" y="565" type="line"/>
      <point x="318" y="393" type="line"/>
      <point x="320" y="384" type="line"/>
      <point x="261" y="0" type="line"/>
    </contour>
    <contour>
      <point x="702" y="197" type="line" smooth="yes"/>
      <point x="687" y="115"/>
      <point x="681" y="76"/>
      <point x="681" y="62" type="curve" smooth="yes"/>
      <point x="681" y="43"/>
      <point x="695" y="35"/>
      <point x="722" y="35" type="curve" smooth="yes"/>
      <point x="759" y="35"/>
      <point x="791" y="35"/>
      <point x="821" y="35" type="curve"/>
      <point x="815" y="0" type="line"/>
      <point x="781" y="0"/>
      <point x="746" y="0"/>
      <point x="702" y="0" type="curve" smooth="yes"/>
      <point x="626" y="0"/>
      <point x="595" y="20"/>
      <point x="595" y="73" type="curve" smooth="yes"/>
      <point x="595" y="95"/>
      <point x="601" y="127"/>
      <point x="618" y="223" type="curve" smooth="yes"/>
      <point x="644" y="368" type="line" smooth="yes"/>
      <point x="648" y="390"/>
      <point x="650" y="412"/>
      <point x="650" y="439" type="curve" smooth="yes"/>
      <point x="650" y="492"/>
      <point x="622" y="520"/>
      <point x="552" y="520" type="curve" smooth="yes"/>
      <point x="467" y="520"/>
      <point x="405" y="469"/>
      <point x="300" y="344" type="curve"/>
      <point x="289" y="375" type="line"/>
      <point x="383" y="499"/>
      <point x="458" y="575"/>
      <point x="586" y="575" type="curve" smooth="yes"/>
      <point x="691" y="575"/>
      <point x="740" y="520"/>
      <point x="740" y="445" type="curve" smooth="yes"/>
      <point x="740" y="417"/>
      <point x="736" y="390"/>
      <point x="732" y="366" type="curve" smooth="yes"/>
    </contour>
  </outline>
</glyph>
<glyph name="o" format="2">
  <advance width="746"/>
  <unicode hex="006F"/>
  <anchor x="372" y="551" name="top"/>
  <anchor x="372" y="0" name="bottom"/>
  <anchor x="494" y="0" name="right"/>
  <outline>
    <contour>
      <point x="635" y="285"/>
      <point x="630" y="248"/>
      <point x="620" y="214" type="curve" smooth="yes"/>
      <point x="589" y="108"/>
      <point x="507.0" y="31.0"/>
      <point x="391" y="31" type="curve" smooth="yes"/>
      <point x="272.0" y="31"/>
      <point x="199" y="93"/>
      <point x="199" y="236" type="curve" smooth="yes"/>
      <point x="199" y="277"/>
      <point x="204" y="314"/>
      <point x="214" y="348" type="curve" smooth="yes"/>
      <point x="245" y="454"/>
      <point x="328" y="531.0"/>
      <point x="444" y="531" type="curve" smooth="yes"/>
      <point x="563.0" y="531.0"/>
      <point x="635" y="469"/>
      <point x="635" y="326" type="curve" smooth="yes"/>
    </contour>
    <contour>
      <point x="262" y="575"/>
      <point x="105" y="432"/>
      <point x="105" y="246" type="curve" smooth="yes"/>
      <point x="105" y="74"/>
      <point x="222" y="-13"/>
      <point x="394" y="-13" type="curve" smooth="yes"/>
      <point x="573" y="-13"/>
      <point x="729" y="126"/>
      <point x="729" y="313" type="curve" smooth="yes"/>
      <point x="729" y="479"/>
      <point x="616" y="575"/>
      <point x="439" y="575" type="curve" smooth="yes"/>
    </contour>
  </outline>
</glyph>
<glyph name="p" format="2">
  <advance width="804"/>
  <unicode hex="0070"/>
  <outline>
    <contour>
      <point x="-1" y="-223" type="line"/>
      <point x="328" y="-223" type="line"/>
      <point x="332" y="-191" type="line"/>
      <point x="304" y="-191" type="line" smooth="yes"/>
      <point x="257" y="-191"/>
      <point x="200" y="-188"/>
      <point x="201" y="-181" type="curve" smooth="yes"/>
      <point x="294" y="395" type="line"/>
      <point x="290" y="402" type="line"/>
      <point x="303" y="565" type="line"/>
      <point x="105" y="565" type="line"/>
      <point x="99" y="527" type="line"/>
      <point x="142" y="522" type="line" smooth="yes"/>
      <point x="215" y="514"/>
      <point x="221" y="500"/>
      <point x="216" y="467" type="curve" smooth="yes"/>
      <point x="122" y="-115" type="line" smooth="yes"/>
      <point x="112" y="-177"/>
      <point x="75" y="-191"/>
      <point x="8" y="-191" type="curve" smooth="yes"/>
      <point x="4" y="-191" type="line"/>
    </contour>
    <contour>
      <point x="212" y="168" type="line"/>
      <point x="240" y="54"/>
      <point x="350" y="-11"/>
      <point x="474" y="-11" type="curve" smooth="yes"/>
      <point x="654.0" y="-11.0"/>
      <point x="767.0" y="154.0"/>
      <point x="767" y="345" type="curve"/>
      <point x="767" y="486"/>
      <point x="685" y="574"/>
      <point x="543" y="574" type="curve" smooth="yes"/>
      <point x="423" y="574"/>
      <point x="332" y="492"/>
      <point x="255" y="363" type="curve"/>
      <point x="281" y="341" type="line"/>
      <point x="359" y="467"/>
      <point x="428" y="521"/>
      <point x="525" y="521" type="curve" smooth="yes"/>
      <point x="617" y="521"/>
      <point x="668" y="465"/>
      <point x="669" y="345" type="curve"/>
      <point x="671" y="181"/>
      <point x="590" y="37"/>
      <point x="448" y="37" type="curve" smooth="yes"/>
      <point x="349.0" y="37"/>
      <point x="277.0" y="98.0"/>
      <point x="243" y="192" type="curve"/>
    </contour>
  </outline>
</glyph>
<glyph name="s" format="2">
  <advance width="662"/>
  <unicode hex="0073"/>
  <anchor x="330" y="546" name="top"/>
  <anchor x="330" y="0" name="bottom"/>
  <outline>
    <contour>
      <point x="366" y="-12" type="curve" smooth="yes"/>
      <point x="518" y="-12"/>
      <point x="617" y="45"/>
      <point x="617" y="164" type="curve" smooth="yes"/>
      <point x="617" y="244"/>
      <point x="570" y="288"/>
      <point x="419" y="327" type="curve" smooth="yes"/>
      <point x="285" y="362"/>
      <point x="245" y="386"/>
      <point x="245" y="438" type="curve" smooth="yes"/>
      <point x="245" y="498"/>
      <point x="289" y="535"/>
      <point x="385" y="535" type="curve" smooth="yes"/>
      <point x="453" y="535"/>
      <point x="506" y="522"/>
      <point x="557" y="498" type="curve"/>
      <point x="558" y="515"/>
      <point x="553" y="527"/>
      <point x="540" y="533" type="curve"/>
      <point x="519" y="401" type="line"/>
      <point x="608" y="401" type="line"/>
      <point x="625" y="513" type="line"/>
      <point x="589" y="539"/>
      <point x="505" y="575"/>
      <point x="395" y="575" type="curve" smooth="yes"/>
      <point x="236" y="575"/>
      <point x="166" y="503"/>
      <point x="166" y="420" type="curve" smooth="yes"/>
      <point x="166" y="329"/>
      <point x="232" y="291"/>
      <point x="357" y="258" type="curve" smooth="yes"/>
      <point x="499" y="221"/>
      <point x="535" y="190"/>
      <point x="535" y="133" type="curve" smooth="yes"/>
      <point x="535" y="57"/>
      <point x="456" y="29"/>
      <point x="358" y="29" type="curve" smooth="yes"/>
      <point x="274" y="29"/>
      <point x="197" y="51"/>
      <point x="157" y="82" type="curve"/>
      <point x="153" y="61"/>
      <point x="157" y="44"/>
      <point x="177" y="32" type="curve"/>
      <point x="201" y="186" type="line"/>
      <point x="112" y="186" type="line"/>
      <point x="93" y="61" type="line"/>
      <point x="157" y="19"/>
      <point x="249" y="-12"/>
    </contour>
  </outline>
</glyph>
<glyph name="t" format="2">
  <advance width="563"/>
  <unicode hex="0074"/>
  <anchor x="230" y="675" name="top"/>
  <anchor x="365" y="0" name="bottom"/>
  <anchor x="439" y="681" name="right"/>
  <outline>
    <contour>
      <point x="347" y="0" type="curve" smooth="yes"/>
      <point x="400" y="0"/>
      <point x="458" y="0"/>
      <point x="501" y="0" type="curve"/>
      <point x="510" y="47" type="line"/>
      <point x="470" y="47"/>
      <point x="392" y="47"/>
      <point x="359" y="47" type="curve" smooth="yes"/>
      <point x="307" y="47"/>
      <point x="285" y="62"/>
      <point x="285" y="95" type="curve" smooth="yes"/>
      <point x="285" y="115"/>
      <point x="286" y="121"/>
      <point x="290" y="147" type="curve" smooth="yes"/>
      <point x="383" y="731" type="line"/>
      <point x="307" y="731" type="line"/>
      <point x="291" y="644" type="line" smooth="yes"/>
      <point x="278" y="573"/>
      <point x="235" y="560"/>
      <point x="147" y="560" type="curve" smooth="yes"/>
      <point x="121" y="560" type="line"/>
      <point x="115" y="518" type="line"/>
      <point x="588" y="518" type="line"/>
      <point x="594" y="565" type="line"/>
      <point x="338" y="565" type="line"/>
      <point x="265" y="552" type="line"/>
      <point x="210" y="204" type="line" smooth="yes"/>
      <point x="203" y="159"/>
      <point x="198" y="127"/>
      <point x="198" y="104" type="curve" smooth="yes"/>
      <point x="198" y="35"/>
      <point x="245" y="0"/>
    </contour>
  </outline>
</glyph>
<glyph name="y" format="2">
  <advance width="722"/>
  <unicode hex="0079"/>
  <outline>
    <contour>
      <point x="368" y="-25" type="line"/>
      <point x="222" y="486" type="line" smooth="yes"/>
      <point x="215" y="510"/>
      <point x="182" y="524"/>
      <point x="123" y="529" type="curve" smooth="yes"/>
      <point x="100" y="531" type="line"/>
      <point x="104" y="565" type="line"/>
      <point x="290" y="565" type="line"/>
      <point x="429" y="56" type="line"/>
      <point x="405" y="15" type="line"/>
    </contour>
    <contour>
      <point x="396" y="39" type="line"/>
      <point x="473" y="196"/>
      <point x="570" y="381"/>
      <point x="663" y="565" type="curve"/>
      <point x="743" y="565" type="line"/>
      <point x="744" y="556" type="line"/>
      <point x="634" y="369"/>
      <point x="525" y="182"/>
      <point x="427" y="13" type="curve" smooth="yes"/>
      <point x="311" y="-187"/>
      <point x="252" y="-232"/>
      <point x="109" y="-232" type="curve" smooth="yes"/>
      <point x="73" y="-231"/>
      <point x="36" y="-227"/>
      <point x="4" y="-215" type="curve"/>
      <point x="16" y="-142" type="line"/>
      <point x="45" y="-154"/>
      <point x="92" y="-162"/>
      <point x="137" y="-162" type="curve" smooth="yes"/>
      <point x="243" y="-162"/>
      <point x="300" y="-111"/>
      <point x="365" y="3" type="curve"/>
    </contour>
  </outline>
</glyph>
<glyph name="braceleft" format="2">
  <advance width="491"/>
  <unicode hex="007B"/>
  <outline>
    <contour>
      <point x="384" y="212" type="curve" smooth="yes"/>
      <point x="384" y="251"/>
      <point x="347" y="272"/>
      <point x="207" y="292" type="curve"/>
      <point x="210" y="309" type="line"/>
      <point x="387" y="331"/>
      <point x="418" y="366"/>
      <point x="418" y="408" type="curve" smooth="yes"/>
      <point x="418" y="476"/>
      <point x="308" y="516"/>
      <point x="308" y="604" type="curve" smooth="yes"/>
      <point x="308" y="662"/>
      <point x="344.6470588235" y="711"/>
      <point x="467" y="711" type="curve" smooth="yes"/>
      <point x="483" y="711"/>
      <point x="501" y="710"/>
      <point x="521" y="708" type="curve"/>
      <point x="530" y="749" type="line"/>
      <point x="518" y="750"/>
      <point x="502" y="751"/>
      <point x="471" y="751" type="curve" smooth="yes"/>
      <point x="330" y="751"/>
      <point x="227" y="706"/>
      <point x="227" y="600" type="curve" smooth="yes"/>
      <point x="227" y="497"/>
      <point x="338" y="443"/>
      <point x="369" y="387" type="curve"/>
      <point x="377" y="399" type="line"/>
      <point x="132" y="330" type="line"/>
      <point x="124" y="273" type="line"/>
      <point x="348" y="204" type="line"/>
      <point x="332" y="214" type="line"/>
      <point x="280" y="154"/>
      <point x="128" y="97"/>
      <point x="128" y="-19" type="curve" smooth="yes"/>
      <point x="128" y="-108"/>
      <point x="209" y="-148"/>
      <point x="334" y="-148" type="curve" smooth="yes"/>
      <point x="356" y="-148"/>
      <point x="374" y="-147"/>
      <point x="388" y="-146" type="curve"/>
      <point x="393" y="-107" type="line"/>
      <point x="378" y="-108"/>
      <point x="364" y="-108"/>
      <point x="349" y="-108" type="curve"/>
      <point x="255" y="-108"/>
      <point x="209" y="-72"/>
      <point x="209" y="-19" type="curve" smooth="yes"/>
      <point x="209" y="84"/>
      <point x="384" y="124"/>
    </contour>
  </outline>
</glyph>
<glyph name="asciitilde" format="2">
  <advance width="680"/>
  <unicode hex="007E"/>
  <outline>
    <contour>
      <point x="286" y="460" type="curve"/>
      <point x="197" y="460"/>
      <point x="152" y="393"/>
      <point x="110" y="270" type="curve"/>
      <point x="157" y="259" type="line"/>
      <point x="191" y="350"/>
      <point x="219" y="404"/>
      <point x="274" y="404" type="curve" smooth="yes"/>
      <point x="350" y="404"/>
      <point x="399" y="263"/>
      <point x="518" y="263" type="curve"/>
      <point x="601" y="263"/>
      <point x="644" y="320"/>
      <point x="687" y="455" type="curve"/>
      <point x="638" y="466" type="line"/>
      <point x="611" y="377"/>
      <point x="578.0" y="320.0"/>
      <point x="530" y="320" type="curve" smooth="yes"/>
      <point x="453" y="320"/>
      <point x="409" y="460"/>
    </contour>
  </outline>
</glyph>
<glyph name="cent" format="2">
  <advance width="680"/>
  <unicode hex="00A2"/>
  <outline>
    <contour>
      <point x="390" y="-13" type="curve" smooth="yes"/>
      <point x="536" y="-13"/>
      <point x="631" y="40"/>
      <point x="677" y="112" type="curve"/>
      <point x="633" y="143" type="line"/>
      <point x="577" y="61"/>
      <point x="506" y="35"/>
      <point x="388" y="35" type="curve" smooth="yes"/>
      <point x="258" y="35"/>
      <point x="196" y="131"/>
      <point x="196" y="261" type="curve" smooth="yes"/>
      <point x="196" y="401"/>
      <point x="268" y="529"/>
      <point x="459" y="529" type="curve" smooth="yes"/>
      <point x="568" y="529"/>
      <point x="614" y="507"/>
      <point x="653" y="497" type="curve"/>
      <point x="653" y="508"/>
      <point x="639" y="521"/>
      <point x="605" y="529" type="curve"/>
      <point x="584" y="387" type="line"/>
      <point x="673" y="387" type="line"/>
      <point x="698" y="540" type="line"/>
      <point x="661" y="553"/>
      <point x="570" y="575"/>
      <point x="454" y="575" type="curve" smooth="yes"/>
      <point x="214" y="575"/>
      <point x="97" y="422"/>
      <point x="97" y="258" type="curve" smooth="yes"/>
      <point x="97" y="108"/>
      <point x="194" y="-13"/>
    </contour>
    <contour>
      <point x="308" y="-166" type="line"/>
      <point x="390" y="-166" type="line"/>
      <point x="417" y="8" type="line"/>
      <point x="410" y="15" type="line"/>
      <point x="494" y="546" type="line"/>
      <point x="504" y="550" type="line"/>
      <point x="528" y="703" type="line"/>
      <point x="446" y="703" type="line"/>
      <point x="422" y="550" type="line"/>
      <point x="433" y="547" type="line"/>
      <point x="350" y="25" type="line"/>
      <point x="335" y="8" type="line"/>
    </contour>
  </outline>
</glyph>
<glyph name="sterling" format="2">
  <advance width="680"/>
  <unicode hex="00A3"/>
  <outline>
    <contour>
      <point x="443" y="688" type="curve" smooth="yes"/>
      <point x="532" y="688"/>
      <point x="578" y="680"/>
      <point x="630" y="651" type="curve"/>
      <point x="637" y="678"/>
      <point x="632" y="691"/>
      <point x="597" y="696" type="curve"/>
      <point x="576" y="565" type="line"/>
      <point x="656" y="565" type="line"/>
      <point x="676" y="694" type="line"/>
      <point x="647" y="706"/>
      <point x="567" y="735"/>
      <point x="457" y="735" type="curve" smooth="yes"/>
      <point x="269" y="735"/>
      <point x="184" y="649"/>
      <point x="184" y="546" type="curve" smooth="yes"/>
      <point x="184" y="447"/>
      <point x="279" y="340"/>
      <point x="279" y="247" type="curve" smooth="yes"/>
      <point x="279" y="148"/>
      <point x="203" y="78"/>
      <point x="61" y="43" type="curve"/>
      <point x="53" y="-12" type="line"/>
      <point x="255" y="34"/>
      <point x="350" y="116"/>
      <point x="350" y="254" type="curve" smooth="yes"/>
      <point x="350" y="374"/>
      <point x="274" y="463"/>
      <point x="274" y="550" type="curve" smooth="yes"/>
      <point x="274" y="633"/>
      <point x="330" y="688"/>
    </contour>
    <contour>
      <point x="97" y="371" type="line"/>
      <point x="90" y="326" type="line"/>
      <point x="568" y="326" type="line"/>
      <point x="575" y="371" type="line"/>
    </contour>
    <contour>
      <point x="523" y="-10" type="curve"/>
      <point x="625" y="-10"/>
      <point x="669" y="45"/>
      <point x="698" y="164" type="curve"/>
      <point x="644" y="175" type="line"/>
      <point x="618" y="89"/>
      <point x="579" y="57"/>
      <point x="522" y="57" type="curve"/>
      <point x="437" y="57"/>
      <point x="378" y="94"/>
      <point x="304" y="180" type="curve"/>
      <point x="272" y="147" type="line"/>
      <point x="364" y="40"/>
      <point x="419" y="-10"/>
    </contour>
  </outline>
</glyph>
<glyph name="currency" format="2">
  <advance width="680"/>
  <unicode hex="00A4"/>
  <outline>
    <contour>
      <point x="174" y="113" type="line"/>
      <point x="314" y="244" type="line"/>
      <point x="266" y="272" type="line"/>
      <point x="133" y="148" type="line"/>
    </contour>
    <contour>
      <point x="135" y="598" type="line"/>
      <point x="252" y="488" type="line"/>
      <point x="294" y="514" type="line"/>
      <point x="170" y="631" type="line"/>
    </contour>
    <contour>
      <point x="406" y="236" type="curve" smooth="yes"/>
      <point x="320" y="236"/>
      <point x="263" y="277"/>
      <point x="263" y="373" type="curve" smooth="yes"/>
      <point x="263" y="470"/>
      <point x="320" y="511"/>
      <point x="406" y="511" type="curve" smooth="yes"/>
      <point x="491" y="511"/>
      <point x="549" y="470"/>
      <point x="549" y="373" type="curve" smooth="yes"/>
      <point x="549" y="276"/>
      <point x="491" y="236"/>
    </contour>
    <contour>
      <point x="407" y="191" type="curve" smooth="yes"/>
      <point x="514" y="191"/>
      <point x="607" y="262"/>
      <point x="607" y="373" type="curve" smooth="yes"/>
      <point x="607" y="486"/>
      <point x="512" y="556"/>
      <point x="406" y="556" type="curve" smooth="yes"/>
      <point x="297" y="556"/>
      <point x="205" y="486"/>
      <point x="205" y="374" type="curve" smooth="yes"/>
      <point x="205" y="262"/>
      <point x="299" y="191"/>
    </contour>
    <contour>
      <point x="642" y="115" type="line"/>
      <point x="676" y="148" type="line"/>
      <point x="559" y="258" type="line"/>
      <point x="518" y="232" type="line"/>
    </contour>
    <contour>
      <point x="679" y="596" type="line"/>
      <point x="640" y="631" type="line"/>
      <point x="490" y="492" type="line"/>
      <point x="536" y="464" type="line"/>
    </contour>
  </outline>
</glyph>
<glyph name="yen" format="2">
  <advance width="680"/>
  <unicode hex="00A5"/>
  <outline>
    <contour>
      <point x="98" y="208" type="line"/>
      <point x="92" y="172" type="line"/>
      <point x="653" y="172" type="line"/>
      <point x="659" y="208" type="line"/>
    </contour>
    <contour>
      <point x="125" y="375" type="line"/>
      <point x="119" y="339" type="line"/>
      <point x="680" y="339" type="line"/>
      <point x="686" y="375" type="line"/>
    </contour>
    <contour>
      <point x="361" y="378" type="line"/>
      <point x="312" y="82" type="line" smooth="yes"/>
      <point x="307" y="53"/>
      <point x="266" y="46"/>
      <point x="204" y="46" type="curve" smooth="yes"/>
      <point x="173" y="46" type="line"/>
      <point x="166" y="0" type="line"/>
      <point x="524" y="0" type="line"/>
      <point x="531" y="46" type="line"/>
      <point x="490" y="46" type="line" smooth="yes"/>
      <point x="428" y="46"/>
      <point x="397" y="55"/>
      <point x="401" y="82" type="curve" smooth="yes"/>
      <point x="450" y="378" type="line"/>
    </contour>
    <contour>
      <point x="432" y="331" type="line"/>
      <point x="681" y="622" type="line" smooth="yes"/>
      <point x="710" y="654"/>
      <point x="730" y="663"/>
      <point x="762" y="663" type="curve" smooth="yes"/>
      <point x="774" y="663" type="line"/>
      <point x="780" y="710" type="line"/>
      <point x="545" y="710" type="line"/>
      <point x="539" y="663" type="line"/>
      <point x="546" y="663" type="line" smooth="yes"/>
      <point x="585" y="663"/>
      <point x="637" y="657"/>
      <point x="637" y="644" type="curve"/>
      <point x="409" y="381" type="line"/>
      <point x="425" y="380" type="line"/>
      <point x="282" y="652" type="line"/>
      <point x="283" y="659"/>
      <point x="317" y="663"/>
      <point x="353" y="663" type="curve" smooth="yes"/>
      <point x="369" y="663" type="line"/>
      <point x="375" y="710" type="line"/>
      <point x="130" y="710" type="line"/>
      <point x="124" y="663" type="line"/>
      <point x="134" y="663" type="line" smooth="yes"/>
      <point x="172" y="663"/>
      <point x="187" y="660"/>
      <point x="200" y="635" type="curve" smooth="yes"/>
      <point x="362" y="332" type="line"/>
    </contour>
  </outline>
</glyph>
<glyph name="brokenbar" format="2">
  <advance width="300"/>
  <unicode hex="00A6"/>
  <outline>
    <contour>
      <point x="239" y="780" type="line"/>
      <point x="179" y="404" type="line"/>
      <point x="249" y="404" type="line"/>
      <point x="309" y="780" type="line"/>
    </contour>
    <contour>
      <point x="150" y="218" type="line"/>
      <point x="90" y="-158" type="line"/>
      <point x="160" y="-158" type="line"/>
      <point x="220" y="218" type="line"/>
    </contour>
  </outline>
</glyph>
<glyph name="section" format="2">
  <advance width="699"/>
  <unicode hex="00A7"/>
  <outline>
    <contour>
      <point x="319" y="-236" type="curve"/>
      <point x="513" y="-236"/>
      <point x="588" y="-159"/>
      <point x="587" y="-49" type="curve" smooth="yes"/>
      <point x="586" y="55"/>
      <point x="508" y="107"/>
      <point x="357" y="158" type="curve" smooth="yes"/>
      <point x="207" y="209.0"/>
      <point x="166" y="245"/>
      <point x="166" y="300" type="curve"/>
      <point x="166" y="368"/>
      <point x="217" y="410"/>
      <point x="342" y="410" type="curve"/>
      <point x="327" y="435" type="line"/>
      <point x="180" y="425"/>
      <point x="88" y="379"/>
      <point x="88" y="283" type="curve"/>
      <point x="88" y="202"/>
      <point x="145" y="150.0"/>
      <point x="286" y="102" type="curve" smooth="yes"/>
      <point x="447" y="47"/>
      <point x="511" y="15"/>
      <point x="511" y="-70" type="curve" smooth="yes"/>
      <point x="511" y="-162"/>
      <point x="432" y="-195"/>
      <point x="326" y="-195" type="curve"/>
      <point x="251" y="-195"/>
      <point x="191" y="-179"/>
      <point x="140" y="-150" type="curve"/>
      <point x="135" y="-159"/>
      <point x="140" y="-172"/>
      <point x="158" y="-181" type="curve"/>
      <point x="178" y="-51" type="line"/>
      <point x="88" y="-51" type="line"/>
      <point x="68" y="-181" type="line"/>
      <point x="124" y="-209"/>
      <point x="206" y="-236"/>
    </contour>
    <contour>
      <point x="462" y="53" type="line"/>
      <point x="595" y="68"/>
      <point x="685" y="119"/>
      <point x="685" y="213" type="curve"/>
      <point x="685" y="304"/>
      <point x="617" y="346"/>
      <point x="472" y="401" type="curve" smooth="yes"/>
      <point x="323" y="462"/>
      <point x="283" y="487"/>
      <point x="283" y="552" type="curve"/>
      <point x="283" y="646"/>
      <point x="354" y="679"/>
      <point x="461" y="679" type="curve"/>
      <point x="536" y="679"/>
      <point x="582" y="660"/>
      <point x="620" y="643" type="curve"/>
      <point x="620" y="664"/>
      <point x="612" y="686"/>
      <point x="580" y="689" type="curve"/>
      <point x="557" y="545" type="line"/>
      <point x="647" y="545" type="line"/>
      <point x="669" y="678" type="line"/>
      <point x="629" y="696"/>
      <point x="556" y="720"/>
      <point x="465" y="720" type="curve"/>
      <point x="294" y="720"/>
      <point x="207" y="646"/>
      <point x="207" y="540" type="curve"/>
      <point x="207" y="465"/>
      <point x="234" y="407"/>
      <point x="401" y="345" type="curve" smooth="yes"/>
      <point x="572" y="282.0"/>
      <point x="610" y="253"/>
      <point x="609" y="195" type="curve"/>
      <point x="608" y="141"/>
      <point x="564" y="80"/>
      <point x="443" y="81" type="curve"/>
    </contour>
  </outline>
</glyph>
<glyph name="ordfeminine" format="2">
  <advance width="757"/>
  <unicode hex="00AA"/>
  <outline>
    <contour>
      <point x="597" y="319" type="curve" smooth="yes"/>
      <point x="632" y="319"/>
      <point x="664" y="319"/>
      <point x="689" y="319" type="curve"/>
      <point x="694" y="351" type="line"/>
      <point x="672" y="351"/>
      <point x="649" y="351"/>
      <point x="626" y="351" type="curve" smooth="yes"/>
      <point x="607" y="351"/>
      <point x="603" y="355"/>
      <point x="603" y="368" type="curve" smooth="yes"/>
      <point x="603" y="381"/>
      <point x="610" y="424"/>
      <point x="622" y="496" type="curve" smooth="yes"/>
      <point x="659" y="723" type="line"/>
      <point x="598" y="723" type="line"/>
      <point x="559" y="622" type="line"/>
      <point x="554" y="617" type="line"/>
      <point x="527" y="450" type="line"/>
      <point x="530" y="442" type="line"/>
      <point x="531" y="402"/>
      <point x="533" y="375"/>
      <point x="535" y="357" type="curve" smooth="yes"/>
      <point x="539" y="325"/>
      <point x="560" y="319"/>
    </contour>
    <contour>
      <point x="356" y="310" type="curve" smooth="yes"/>
      <point x="451" y="310"/>
      <point x="517" y="374"/>
      <point x="560" y="459" type="curve"/>
      <point x="543" y="483" type="line"/>
      <point x="490" y="398"/>
      <point x="437" y="354"/>
      <point x="377" y="354" type="curve" smooth="yes"/>
      <point x="310" y="354"/>
      <point x="285" y="409"/>
      <point x="285" y="484" type="curve" smooth="yes"/>
      <point x="285" y="585"/>
      <point x="333" y="688"/>
      <point x="427" y="688" type="curve" smooth="yes"/>
      <point x="499" y="688"/>
      <point x="533" y="641"/>
      <point x="566" y="566" type="curve"/>
      <point x="583" y="586" type="line"/>
      <point x="561" y="666"/>
      <point x="518" y="730"/>
      <point x="413" y="730" type="curve" smooth="yes"/>
      <point x="267" y="730"/>
      <point x="194" y="594"/>
      <point x="194" y="480" type="curve" smooth="yes"/>
      <point x="194" y="382"/>
      <point x="237" y="310"/>
    </contour>
  </outline>
</glyph>
<glyph name="registered" format="2">
  <advance width="968"/>
  <unicode hex="00AE"/>
  <outline>
    <contour>
      <point x="540" y="15" type="curve" smooth="yes"/>
      <point x="317" y="15"/>
      <point x="191" y="144"/>
      <point x="191" y="355" type="curve" smooth="yes"/>
      <point x="191" y="566"/>
      <point x="317" y="695"/>
      <point x="540" y="695" type="curve" smooth="yes"/>
      <point x="763" y="695"/>
      <point x="890" y="566"/>
      <point x="890" y="355" type="curve" smooth="yes"/>
      <point x="890" y="144"/>
      <point x="763" y="15"/>
    </contour>
    <contour>
      <point x="540" y="-28" type="curve" smooth="yes"/>
      <point x="789" y="-28"/>
      <point x="944" y="118"/>
      <point x="944" y="355" type="curve" smooth="yes"/>
      <point x="944" y="592"/>
      <point x="789" y="738"/>
      <point x="540" y="738" type="curve" smooth="yes"/>
      <point x="292" y="738"/>
      <point x="137" y="592"/>
      <point x="137" y="355" type="curve" smooth="yes"/>
      <point x="137" y="118"/>
      <point x="292" y="-28"/>
    </contour>
    <contour>
      <point x="353" y="153" type="line"/>
      <point x="541" y="153" type="line"/>
      <point x="541" y="188" type="line"/>
      <point x="530" y="188" type="line" smooth="yes"/>
      <point x="502" y="188"/>
      <point x="476" y="189"/>
      <point x="476" y="193" type="curve" smooth="yes"/>
      <point x="476" y="328" type="line"/>
      <point x="559" y="328" type="line" smooth="yes"/>
      <point x="664" y="328"/>
      <point x="714" y="371"/>
      <point x="714" y="438" type="curve" smooth="yes"/>
      <point x="714" y="509"/>
      <point x="668" y="552"/>
      <point x="560" y="552" type="curve" smooth="yes"/>
      <point x="353" y="552" type="line"/>
      <point x="353" y="517" type="line"/>
      <point x="359" y="517" type="line" smooth="yes"/>
      <point x="387" y="517"/>
      <point x="408" y="513"/>
      <point x="408" y="497" type="curve" smooth="yes"/>
      <point x="408" y="207" type="line" smooth="yes"/>
      <point x="408" y="192"/>
      <point x="387" y="188"/>
      <point x="359" y="188" type="curve" smooth="yes"/>
      <point x="353" y="188" type="line"/>
    </contour>
    <contour>
      <point x="556" y="516" type="line" smooth="yes"/>
      <point x="614" y="516"/>
      <point x="642" y="485"/>
      <point x="642" y="436" type="curve" smooth="yes"/>
      <point x="642" y="387"/>
      <point x="614" y="359"/>
      <point x="556" y="359" type="curve" smooth="yes"/>
      <point x="476" y="359" type="line"/>
      <point x="476" y="516" type="line"/>
    </contour>
    <contour>
      <point x="535" y="338" type="line"/>
      <point x="640" y="156" type="line"/>
      <point x="744" y="156" type="line"/>
      <point x="744" y="188" type="line"/>
      <point x="728" y="188" type="line" smooth="yes"/>
      <point x="705" y="188"/>
      <point x="696" y="195"/>
      <point x="684" y="215" type="curve" smooth="yes"/>
      <point x="603" y="350" type="line"/>
    </contour>
  </outline>
</glyph>
<glyph name="degree" format="2">
  <advance width="662"/>
  <unicode hex="00B0"/>
  <outline>
    <contour>
      <point x="340" y="401" type="curve" smooth="yes"/>
      <point x="238" y="401"/>
      <point x="192" y="448"/>
      <point x="192" y="534" type="curve" smooth="yes"/>
      <point x="192" y="651"/>
      <point x="274" y="695"/>
      <point x="364" y="695" type="curve" smooth="yes"/>
      <point x="467" y="695"/>
      <point x="512" y="647"/>
      <point x="512" y="564" type="curve" smooth="yes"/>
      <point x="512" y="448"/>
      <point x="431" y="401"/>
    </contour>
    <contour>
      <point x="332" y="361" type="curve" smooth="yes"/>
      <point x="459" y="361"/>
      <point x="568" y="429"/>
      <point x="568" y="568" type="curve" smooth="yes"/>
      <point x="568" y="666"/>
      <point x="501" y="735"/>
      <point x="372" y="735" type="curve" smooth="yes"/>
      <point x="245" y="735"/>
      <point x="136" y="667"/>
      <point x="136" y="530" type="curve" smooth="yes"/>
      <point x="136" y="432"/>
      <point x="203" y="361"/>
    </contour>
  </outline>
</glyph>
<glyph name="ordmasculine" format="2">
  <advance width="668"/>
  <unicode hex="00BA"/>
  <outline>
    <contour>
      <point x="403" y="312" type="curve" smooth="yes"/>
      <point x="578" y="312"/>
      <point x="651" y="417"/>
      <point x="651" y="535" type="curve" smooth="yes"/>
      <point x="651" y="649"/>
      <point x="571" y="730"/>
      <point x="416" y="730" type="curve" smooth="yes"/>
      <point x="242" y="730"/>
      <point x="169" y="624"/>
      <point x="169" y="507" type="curve" smooth="yes"/>
      <point x="169" y="387"/>
      <point x="254" y="312"/>
    </contour>
    <contour>
      <point x="420" y="689" type="curve" smooth="yes"/>
      <point x="520" y="689"/>
      <point x="560" y="632"/>
      <point x="560" y="539" type="curve"/>
      <point x="560" y="478"/>
      <point x="547" y="434"/>
      <point x="519" y="402" type="curve" smooth="yes"/>
      <point x="494" y="372"/>
      <point x="457" y="353"/>
      <point x="400" y="353" type="curve" smooth="yes"/>
      <point x="302" y="353"/>
      <point x="260" y="409"/>
      <point x="260" y="501" type="curve"/>
      <point x="260" y="568"/>
      <point x="276" y="619"/>
      <point x="312" y="652" type="curve" smooth="yes"/>
      <point x="337" y="675"/>
      <point x="371" y="689"/>
    </contour>
  </outline>
</glyph>
<glyph name="Eth" format="2">
  <advance width="955"/>
  <unicode hex="00D0"/>
  <outline>
    <contour>
      <point x="109" y="339" type="line"/>
      <point x="561" y="339" type="line"/>
      <point x="566" y="380" type="line"/>
      <point x="114" y="380" type="line"/>
    </contour>
    <component base="D"/>
  </outline>
</glyph>
<glyph name="multiply" format="2">
  <advance width="680"/>
  <unicode hex="00D7"/>
  <outline>
    <contour>
      <point x="191" y="132" type="line"/>
      <point x="622" y="509" type="line"/>
      <point x="584" y="550" type="line"/>
      <point x="151" y="173" type="line"/>
    </contour>
    <contour>
      <point x="531" y="132" type="line"/>
      <point x="579" y="173" type="line"/>
      <point x="237" y="550" type="line"/>
      <point x="189" y="509" type="line"/>
    </contour>
  </outline>
</glyph>
<glyph name="Oslash" format="2">
  <advance width="965"/>
  <unicode hex="00D8"/>
  <anchor x="473" y="731" name="top"/>
  <outline>
    <contour>
      <point x="960" y="386" type="curve" smooth="yes"/>
      <point x="960" y="601"/>
      <point x="814" y="735"/>
      <point x="580" y="735" type="curve" smooth="yes"/>
      <point x="242" y="735"/>
      <point x="126" y="489"/>
      <point x="126" y="324" type="curve" smooth="yes"/>
      <point x="126" y="109"/>
      <point x="272" y="-25"/>
      <point x="506" y="-25" type="curve" smooth="yes"/>
      <point x="844" y="-25"/>
      <point x="960" y="221"/>
    </contour>
    <contour>
      <point x="861" y="192"/>
      <point x="759" y="17"/>
      <point x="516" y="17" type="curve" smooth="yes"/>
      <point x="430" y="17"/>
      <point x="361" y="41"/>
      <point x="311" y="87" type="curve" smooth="yes"/>
      <point x="259" y="135"/>
      <point x="227" y="207"/>
      <point x="227" y="323" type="curve" smooth="yes"/>
      <point x="227" y="517"/>
      <point x="329" y="692"/>
      <point x="572" y="692" type="curve" smooth="yes"/>
      <point x="667" y="692"/>
      <point x="741" y="663"/>
      <point x="792" y="608" type="curve" smooth="yes"/>
      <point x="835" y="560"/>
      <point x="861" y="492"/>
      <point x="861" y="387" type="curve" smooth="yes"/>
    </contour>
    <contour>
      <point x="15" y="-22" type="line"/>
      <point x="102" y="-22" type="line"/>
      <point x="1063" y="732" type="line"/>
      <point x="976" y="732" type="line"/>
    </contour>
  </outline>
</glyph>
<glyph name="Thorn" format="2">
  <advance width="830"/>
  <unicode hex="00DE"/>
  <outline>
    <contour>
      <point x="385" y="627" type="line" smooth="yes"/>
      <point x="390" y="658"/>
      <point x="427" y="663"/>
      <point x="476" y="663" type="curve" smooth="yes"/>
      <point x="517" y="663" type="line"/>
      <point x="523" y="710" type="line"/>
      <point x="181" y="710" type="line"/>
      <point x="175" y="663" type="line"/>
      <point x="216" y="663" type="line" smooth="yes"/>
      <point x="266" y="663"/>
      <point x="299" y="655"/>
      <point x="295" y="627" type="curve" smooth="yes"/>
      <point x="208" y="83" type="line" smooth="yes"/>
      <point x="203" y="54"/>
      <point x="166" y="47"/>
      <point x="117" y="47" type="curve" smooth="yes"/>
      <point x="76" y="47" type="line"/>
      <point x="70" y="0" type="line"/>
      <point x="412" y="0" type="line"/>
      <point x="418" y="47" type="line"/>
      <point x="377" y="47" type="line" smooth="yes"/>
      <point x="327" y="47"/>
      <point x="293" y="53"/>
      <point x="298" y="83" type="curve" smooth="yes"/>
    </contour>
    <contour>
      <point x="274" y="168" type="line"/>
      <point x="503" y="168" type="line" smooth="yes"/>
      <point x="723" y="168"/>
      <point x="824" y="247"/>
      <point x="824" y="382" type="curve" smooth="yes"/>
      <point x="824" y="511"/>
      <point x="719" y="560"/>
      <point x="518" y="560" type="curve" smooth="yes"/>
      <point x="319" y="560" type="line"/>
      <point x="328" y="521" type="line"/>
      <point x="528" y="521" type="line" smooth="yes"/>
      <point x="669" y="521"/>
      <point x="720" y="471"/>
      <point x="720" y="382" type="curve" smooth="yes"/>
      <point x="720" y="269"/>
      <point x="658" y="209"/>
      <point x="510" y="209" type="curve" smooth="yes"/>
      <point x="283" y="209" type="line"/>
    </contour>
  </outline>
</glyph>
<glyph name="germandbls" format="2">
  <advance width="797"/>
  <unicode hex="00DF"/>
  <outline>
    <contour>
      <point x="95" y="565" type="line"/>
      <point x="90" y="524" type="line"/>
      <point x="288" y="524" type="line"/>
      <point x="300" y="565" type="line"/>
    </contour>
    <contour>
      <point x="130" y="-223" type="line"/>
      <point x="198" y="-223" type="line"/>
      <point x="328" y="575" type="line" smooth="yes"/>
      <point x="350" y="707"/>
      <point x="402" y="751"/>
      <point x="504" y="751" type="curve" smooth="yes"/>
      <point x="578" y="751"/>
      <point x="641" y="712"/>
      <point x="641" y="617" type="curve" smooth="yes"/>
      <point x="641" y="506"/>
      <point x="555" y="458"/>
      <point x="430" y="457" type="curve"/>
      <point x="424" y="411" type="line"/>
      <point x="549" y="403"/>
      <point x="624" y="354"/>
      <point x="624" y="238" type="curve" smooth="yes"/>
      <point x="624" y="93"/>
      <point x="561" y="34"/>
      <point x="438" y="34" type="curve" smooth="yes"/>
      <point x="393" y="34"/>
      <point x="360" y="41"/>
      <point x="328" y="52" type="curve"/>
      <point x="315" y="10" type="line"/>
      <point x="341" y="1"/>
      <point x="384" y="-10"/>
      <point x="455" y="-10" type="curve" smooth="yes"/>
      <point x="604" y="-10"/>
      <point x="725" y="80"/>
      <point x="725" y="236" type="curve" smooth="yes"/>
      <point x="725" y="362"/>
      <point x="625" y="419"/>
      <point x="465" y="433" type="curve"/>
      <point x="526" y="401" type="line"/>
      <point x="535" y="455" type="line"/>
      <point x="467" y="434" type="line"/>
      <point x="601" y="435"/>
      <point x="734" y="496"/>
      <point x="734" y="635" type="curve" smooth="yes"/>
      <point x="734" y="724"/>
      <point x="652" y="790"/>
      <point x="505" y="790" type="curve" smooth="yes"/>
      <point x="369" y="790"/>
      <point x="258" y="732"/>
      <point x="238" y="583" type="curve" smooth="yes"/>
    </contour>
  </outline>
</glyph>
<glyph name="ae" format="2">
  <advance width="1108"/>
  <unicode hex="00E6"/>
  <anchor x="623" y="517" name="top"/>
  <outline>
    <contour>
      <point x="408" y="530" type="curve" smooth="yes"/>
      <point x="541" y="530"/>
      <point x="572" y="485"/>
      <point x="572.0" y="416" type="curve" smooth="yes"/>
      <point x="572" y="390"/>
      <point x="569" y="365"/>
      <point x="564" y="336" type="curve" smooth="yes"/>
      <point x="558" y="301" type="line"/>
      <point x="649" y="391" type="line"/>
      <point x="649" y="416" type="line"/>
      <point x="649" y="530"/>
      <point x="552" y="575"/>
      <point x="425" y="575" type="curve" smooth="yes"/>
      <point x="306" y="575"/>
      <point x="233" y="540"/>
      <point x="179" y="512" type="curve"/>
      <point x="160" y="391" type="line"/>
      <point x="250" y="391" type="line"/>
      <point x="270" y="524" type="line"/>
      <point x="237" y="523"/>
      <point x="216" y="486"/>
      <point x="216" y="473" type="curve"/>
      <point x="269" y="509"/>
      <point x="347" y="530"/>
    </contour>
    <contour>
      <point x="308" y="-12" type="curve"/>
      <point x="440" y="-12"/>
      <point x="528" y="45"/>
      <point x="628" y="161" type="curve"/>
      <point x="603" y="180" type="line"/>
      <point x="512" y="85"/>
      <point x="423" y="43"/>
      <point x="324" y="43" type="curve" smooth="yes"/>
      <point x="242" y="43"/>
      <point x="207" y="66"/>
      <point x="207" y="136" type="curve" smooth="yes"/>
      <point x="207" y="206"/>
      <point x="249" y="281"/>
      <point x="609" y="301" type="curve"/>
      <point x="611" y="339" type="line"/>
      <point x="209" y="321"/>
      <point x="110" y="242"/>
      <point x="110" y="125" type="curve" smooth="yes"/>
      <point x="110" y="34"/>
      <point x="172" y="-12"/>
    </contour>
    <contour>
      <point x="796" y="-12" type="curve" smooth="yes"/>
      <point x="908.0" y="-12.0"/>
      <point x="997" y="36"/>
      <point x="1056" y="113" type="curve"/>
      <point x="1024" y="139" type="line"/>
      <point x="968" y="68"/>
      <point x="897" y="34"/>
      <point x="813" y="34" type="curve" smooth="yes"/>
      <point x="702" y="34"/>
      <point x="648" y="107"/>
      <point x="648" y="217" type="curve" smooth="yes"/>
      <point x="648" y="369"/>
      <point x="745" y="535"/>
      <point x="892" y="535" type="curve" smooth="yes"/>
      <point x="964" y="535"/>
      <point x="1001" y="491"/>
      <point x="1001" y="432" type="curve" smooth="yes"/>
      <point x="1001" y="349"/>
      <point x="906" y="302"/>
      <point x="631" y="270" type="curve"/>
      <point x="626" y="232" type="line"/>
      <point x="933" y="261"/>
      <point x="1092" y="310"/>
      <point x="1092" y="439" type="curve" smooth="yes"/>
      <point x="1092" y="530"/>
      <point x="1012" y="575"/>
      <point x="894" y="575" type="curve" smooth="yes"/>
      <point x="764" y="575"/>
      <point x="659" y="504"/>
      <point x="601" y="412" type="curve"/>
      <point x="564" y="355"/>
      <point x="553" y="296"/>
      <point x="553" y="220" type="curve" smooth="yes"/>
      <point x="553" y="81"/>
      <point x="651" y="-12"/>
    </contour>
  </outline>
</glyph>
<glyph name="icircumflex" format="2">
  <advance width="435"/>
  <unicode hex="00EE"/>
  <outline>
    <contour>
      <point x="382" y="844" type="line"/>
      <point x="507" y="681" type="line"/>
      <point x="503" y="656" type="line"/>
      <point x="477" y="656" type="line"/>
      <point x="280" y="819" type="line"/>
      <point x="373" y="803" type="line"/>
      <point x="156" y="656" type="line"/>
      <point x="126" y="656" type="line"/>
      <point x="130" y="681" type="line"/>
      <point x="302" y="844" type="line"/>
    </contour>
    <component base="dotlessi"/>
  </outline>
</glyph>
<glyph name="divide" format="2">
  <advance width="680"/>
  <unicode hex="00F7"/>
  <outline>
    <contour>
      <point x="485" y="577" type="curve" smooth="yes"/>
      <point x="485" y="620"/>
      <point x="457" y="649"/>
      <point x="415" y="649" type="curve" smooth="yes"/>
      <point x="371" y="649"/>
      <point x="345" y="620"/>
      <point x="345" y="577" type="curve" smooth="yes"/>
      <point x="345" y="533"/>
      <point x="371" y="504"/>
      <point x="415" y="504" type="curve" smooth="yes"/>
      <point x="457" y="504"/>
      <point x="485" y="533"/>
    </contour>
    <contour>
      <point x="412" y="107" type="curve" smooth="yes"/>
      <point x="412" y="150"/>
      <point x="384" y="179"/>
      <point x="342" y="179" type="curve" smooth="yes"/>
      <point x="298" y="179"/>
      <point x="272" y="150"/>
      <point x="272" y="107" type="curve" smooth="yes"/>
      <point x="272" y="63"/>
      <point x="298" y="34"/>
      <point x="342" y="34" type="curve" smooth="yes"/>
      <point x="384" y="34"/>
      <point x="412" y="63"/>
    </contour>
    <component base="minus" xOffset="-4"/>
  </outline>
</glyph>
<glyph name="oslash" format="2">
  <advance width="764"/>
  <unicode hex="00F8"/>
  <anchor x="381" y="551" name="top"/>
  <outline>
    <contour>
      <point x="402" y="31" type="curve" smooth="yes"/>
      <point x="283" y="31"/>
      <point x="210" y="93"/>
      <point x="210" y="236" type="curve" smooth="yes"/>
      <point x="210" y="340"/>
      <point x="242" y="422"/>
      <point x="301" y="474" type="curve" smooth="yes"/>
      <point x="340" y="507"/>
      <point x="390" y="531"/>
      <point x="455" y="531" type="curve" smooth="yes"/>
      <point x="573" y="531"/>
      <point x="646" y="466"/>
      <point x="646" y="324" type="curve" smooth="yes"/>
      <point x="646" y="229"/>
      <point x="620" y="155"/>
      <point x="572" y="104" type="curve" smooth="yes"/>
      <point x="532" y="61"/>
      <point x="477" y="31"/>
    </contour>
    <contour>
      <point x="18" y="-10" type="line"/>
      <point x="96" y="-10" type="line"/>
      <point x="835" y="572" type="line"/>
      <point x="757" y="572" type="line"/>
    </contour>
    <contour>
      <point x="273" y="575"/>
      <point x="116" y="432"/>
      <point x="116" y="246" type="curve" smooth="yes"/>
      <point x="116" y="74"/>
      <point x="233" y="-13"/>
      <point x="405" y="-13" type="curve" smooth="yes"/>
      <point x="584" y="-13"/>
      <point x="740" y="126"/>
      <point x="740" y="313" type="curve" smooth="yes"/>
      <point x="740" y="479"/>
      <point x="627" y="575"/>
      <point x="450" y="575" type="curve" smooth="yes"/>
    </contour>
  </outline>
</glyph>
<glyph name="thorn" format="2">
  <advance width="798"/>
  <unicode hex="00FE"/>
  <outline>
    <contour>
      <point x="442" y="37" type="curve" smooth="yes"/>
      <point x="343" y="37"/>
      <point x="271" y="98"/>
      <point x="237" y="192" type="curve"/>
      <point x="206" y="168" type="line"/>
      <point x="234" y="54"/>
      <point x="344" y="-11"/>
      <point x="468" y="-11" type="curve" smooth="yes"/>
      <point x="648" y="-11"/>
      <point x="761" y="154"/>
      <point x="761" y="345" type="curve"/>
      <point x="761" y="486"/>
      <point x="679" y="574"/>
      <point x="537" y="574" type="curve" smooth="yes"/>
      <point x="417" y="574"/>
      <point x="326" y="492"/>
      <point x="249" y="363" type="curve"/>
      <point x="275" y="341" type="line"/>
      <point x="353" y="467"/>
      <point x="422" y="521"/>
      <point x="519" y="521" type="curve" smooth="yes"/>
      <point x="611" y="521"/>
      <point x="662" y="465"/>
      <point x="663" y="345" type="curve"/>
      <point x="665" y="181"/>
      <point x="584" y="37"/>
    </contour>
    <contour>
      <point x="321" y="-223" type="line"/>
      <point x="326" y="-191" type="line"/>
      <point x="298" y="-191" type="line" smooth="yes"/>
      <point x="251" y="-191"/>
      <point x="195" y="-188"/>
      <point x="196" y="-181" type="curve"/>
      <point x="348" y="780" type="line"/>
      <point x="134" y="780" type="line"/>
      <point x="129" y="742" type="line"/>
      <point x="166" y="738" type="line" smooth="yes"/>
      <point x="244" y="730"/>
      <point x="254" y="717"/>
      <point x="248" y="682" type="curve" smooth="yes"/>
      <point x="115" y="-115" type="line" smooth="yes"/>
      <point x="105" y="-177"/>
      <point x="69" y="-191"/>
      <point x="2" y="-191" type="curve" smooth="yes"/>
      <point x="-3" y="-191" type="line"/>
      <point x="-8" y="-223" type="line"/>
    </contour>
  </outline>
</glyph>
<glyph name="eogonek" format="2">
  <advance width="652"/>
  <unicode hex="0119"/>
  <outline>
    <contour>
      <point x="371" y="34" type="curve" smooth="yes"/>
      <point x="257" y="34"/>
      <point x="203" y="95"/>
      <point x="203" y="213" type="curve" smooth="yes"/>
      <point x="203" y="377"/>
      <point x="304" y="536"/>
      <point x="452" y="536" type="curve" smooth="yes"/>
      <point x="522" y="536"/>
      <point x="556" y="485"/>
      <point x="556" y="436" type="curve" smooth="yes"/>
      <point x="556" y="353"/>
      <point x="480" y="299"/>
      <point x="190" y="275" type="curve"/>
      <point x="186" y="236" type="line"/>
      <point x="507" y="257"/>
      <point x="647" y="314"/>
      <point x="647" y="443" type="curve" smooth="yes"/>
      <point x="647" y="524"/>
      <point x="576" y="576"/>
      <point x="448" y="576" type="curve" smooth="yes"/>
      <point x="264" y="576"/>
      <point x="108" y="418"/>
      <point x="108" y="216" type="curve" smooth="yes"/>
      <point x="108" y="79"/>
      <point x="194" y="-12"/>
      <point x="349" y="-12" type="curve" smooth="yes"/>
      <point x="373" y="-12"/>
      <point x="389" y="-8"/>
      <point x="406" y="-5" type="curve"/>
      <point x="406" y="-1" type="line"/>
      <point x="262" y="-74"/>
      <point x="216" y="-102"/>
      <point x="216" y="-165" type="curve" smooth="yes"/>
      <point x="216" y="-216"/>
      <point x="249" y="-252"/>
      <point x="360" y="-252" type="curve" smooth="yes"/>
      <point x="427" y="-252"/>
      <point x="486" y="-234"/>
      <point x="531" y="-197" type="curve"/>
      <point x="505" y="-163" type="line"/>
      <point x="467" y="-188"/>
      <point x="424" y="-206"/>
      <point x="381" y="-206" type="curve" smooth="yes"/>
      <point x="324" y="-206"/>
      <point x="313" y="-177"/>
      <point x="313" y="-153" type="curve" smooth="yes"/>
      <point x="313" y="-103"/>
      <point x="347" y="-76"/>
      <point x="487" y="11" type="curve" smooth="yes"/>
      <point x="531" y="38"/>
      <point x="580" y="73"/>
      <point x="611" y="114" type="curve"/>
      <point x="579" y="140" type="line"/>
      <point x="525" y="72"/>
      <point x="453" y="34"/>
    </contour>
  </outline>
</glyph>
<glyph name="imacron" format="2">
  <advance width="435"/>
  <unicode hex="012B"/>
  <outline>
    <contour>
      <point x="131" y="771" type="line"/>
      <point x="123" y="721" type="line"/>
      <point x="507" y="721" type="line"/>
      <point x="515" y="771" type="line"/>
    </contour>
    <component base="dotlessi"/>
  </outline>
</glyph>
<glyph name="ibreve" format="2">
  <advance width="435"/>
  <unicode hex="012D"/>
  <outline>
    <contour>
      <point x="307" y="668" type="curve" smooth="yes"/>
      <point x="191" y="668"/>
      <point x="156" y="722"/>
      <point x="156" y="794" type="curve" smooth="yes"/>
      <point x="156" y="806"/>
      <point x="157" y="818"/>
      <point x="159" y="831" type="curve"/>
      <point x="209" y="831" type="line"/>
      <point x="201" y="769"/>
      <point x="232" y="731"/>
      <point x="313" y="731" type="curve" smooth="yes"/>
      <point x="379" y="731"/>
      <point x="425" y="752"/>
      <point x="448" y="831" type="curve"/>
      <point x="501" y="831" type="line"/>
      <point x="479" y="717"/>
      <point x="408" y="668"/>
    </contour>
    <component base="dotlessi" xOffset="-3"/>
  </outline>
</glyph>
<glyph name="Iogonek" format="2">
  <advance width="495"/>
  <unicode hex="012E"/>
  <outline>
    <contour>
      <point x="292" y="39" type="line"/>
      <point x="69" y="-66"/>
      <point x="23" y="-102"/>
      <point x="23" y="-165" type="curve" smooth="yes"/>
      <point x="23" y="-216"/>
      <point x="56" y="-252"/>
      <point x="167" y="-252" type="curve" smooth="yes"/>
      <point x="234" y="-252"/>
      <point x="293" y="-234"/>
      <point x="338" y="-197" type="curve"/>
      <point x="312" y="-163" type="line"/>
      <point x="274" y="-188"/>
      <point x="230" y="-206"/>
      <point x="187" y="-206" type="curve" smooth="yes"/>
      <point x="129" y="-206"/>
      <point x="120" y="-177"/>
      <point x="120" y="-151" type="curve" smooth="yes"/>
      <point x="120" y="-110"/>
      <point x="154" y="-82"/>
      <point x="304" y="7" type="curve"/>
    </contour>
    <component base="I"/>
  </outline>
</glyph>
<glyph name="iogonek" format="2">
  <advance width="435"/>
  <unicode hex="012F"/>
  <outline>
    <contour>
      <point x="335" y="32" type="line"/>
      <point x="123" y="-68"/>
      <point x="73" y="-102"/>
      <point x="73" y="-165" type="curve" smooth="yes"/>
      <point x="73" y="-216"/>
      <point x="106" y="-252"/>
      <point x="217" y="-252" type="curve" smooth="yes"/>
      <point x="284" y="-252"/>
      <point x="343" y="-234"/>
      <point x="385" y="-199" type="curve"/>
      <point x="359" y="-165" type="line"/>
      <point x="324" y="-188"/>
      <point x="280" y="-206"/>
      <point x="237" y="-206" type="curve" smooth="yes"/>
      <point x="179" y="-206"/>
      <point x="170" y="-177"/>
      <point x="170" y="-153" type="curve" smooth="yes"/>
      <point x="170" y="-112"/>
      <point x="211" y="-80"/>
      <point x="351" y="7" type="curve"/>
    </contour>
    <component base="i"/>
  </outline>
</glyph>
<glyph name="dotlessi" format="2">
  <advance width="435"/>
  <unicode hex="0131"/>
  <anchor x="226" y="530" name="top"/>
  <outline>
    <contour>
      <point x="290" y="0" type="curve" smooth="yes"/>
      <point x="334" y="0"/>
      <point x="369" y="0"/>
      <point x="403" y="0" type="curve"/>
      <point x="408" y="35" type="line"/>
      <point x="378" y="35"/>
      <point x="347" y="35"/>
      <point x="310" y="35" type="curve" smooth="yes"/>
      <point x="283" y="35"/>
      <point x="270" y="43"/>
      <point x="270" y="62" type="curve" smooth="yes"/>
      <point x="270" y="81"/>
      <point x="277" y="121"/>
      <point x="292" y="203" type="curve" smooth="yes"/>
      <point x="356" y="565" type="line"/>
      <point x="137" y="565" type="line"/>
      <point x="132" y="527" type="line"/>
      <point x="174" y="522" type="line" smooth="yes"/>
      <point x="247" y="513"/>
      <point x="254" y="500"/>
      <point x="248" y="467" type="curve" smooth="yes"/>
      <point x="206" y="223" type="line" smooth="yes"/>
      <point x="189" y="127"/>
      <point x="183" y="97"/>
      <point x="183" y="73" type="curve" smooth="yes"/>
      <point x="183" y="20"/>
      <point x="214" y="0"/>
    </contour>
  </outline>
</glyph>
<glyph name="kgreenlandic" format="2">
  <advance width="760"/>
  <unicode hex="0138"/>
  <outline>
    <contour>
      <point x="405" y="344" type="line"/>
      <point x="608" y="70" type="line" smooth="yes"/>
      <point x="625" y="47"/>
      <point x="638" y="35"/>
      <point x="669" y="35" type="curve" smooth="yes"/>
      <point x="691" y="35"/>
      <point x="712" y="35"/>
      <point x="741" y="35" type="curve"/>
      <point x="736" y="0" type="line"/>
      <point x="703" y="0"/>
      <point x="670" y="0"/>
      <point x="637" y="0" type="curve" smooth="yes"/>
      <point x="566" y="0"/>
      <point x="548" y="12"/>
      <point x="512" y="61" type="curve" smooth="yes"/>
      <point x="336" y="301" type="line"/>
      <point x="336" y="306" type="line"/>
      <point x="437" y="393"/>
      <point x="538" y="478"/>
      <point x="638" y="565" type="curve"/>
      <point x="734" y="565" type="line"/>
      <point x="737" y="550" type="line"/>
      <point x="631" y="477"/>
      <point x="511" y="387"/>
      <point x="404" y="314" type="curve"/>
    </contour>
    <contour>
      <point x="250" y="0" type="line"/>
      <point x="349" y="565" type="line"/>
      <point x="134" y="565" type="line"/>
      <point x="129" y="528" type="line"/>
      <point x="166" y="524" type="line" smooth="yes"/>
      <point x="245" y="515"/>
      <point x="252" y="503"/>
      <point x="246" y="468" type="curve" smooth="yes"/>
      <point x="162" y="0" type="line"/>
    </contour>
  </outline>
</glyph>
<glyph name="Ldot" format="2">
  <advance width="814"/>
  <unicode hex="013F"/>
  <outline>
    <contour>
      <point x="519" y="710" type="line"/>
      <point x="181" y="710" type="line"/>
      <point x="175" y="665" type="line"/>
      <point x="206" y="665" type="line" smooth="yes"/>
      <point x="256" y="665"/>
      <point x="289" y="657"/>
      <point x="285" y="629" type="curve" smooth="yes"/>
      <point x="198" y="83" type="line" smooth="yes"/>
      <point x="193" y="54"/>
      <point x="156" y="47"/>
      <point x="107" y="47" type="curve" smooth="yes"/>
      <point x="76" y="47" type="line"/>
      <point x="69" y="0" type="line"/>
      <point x="742" y="0" type="line"/>
      <point x="778" y="226" type="line"/>
      <point x="720" y="226" type="line"/>
      <point x="683" y="87" type="line" smooth="yes"/>
      <point x="674" y="51"/>
      <point x="629" y="42"/>
      <point x="543" y="42" type="curve" smooth="yes"/>
      <point x="283" y="42" type="line"/>
      <point x="380" y="655" type="line" smooth="yes"/>
      <point x="381" y="662"/>
      <point x="427" y="665"/>
      <point x="465" y="665" type="curve" smooth="yes"/>
      <point x="513" y="665" type="line"/>
    </contour>
    <component base="periodcentered" xOffset="533" yOffset="111"/>
  </outline>
</glyph>
<glyph name="lslash" format="2">
  <advance width="411"/>
  <unicode hex="0142"/>
  <outline>
    <contour>
      <point x="55" y="266" type="line"/>
      <point x="470" y="515" type="line"/>
      <point x="477" y="573" type="line"/>
      <point x="61" y="324" type="line"/>
    </contour>
    <component base="l"/>
  </outline>
</glyph>
<glyph name="Eng" format="2">
  <advance width="998"/>
  <unicode hex="014A"/>
  <outline>
    <contour>
      <point x="815" y="-50" type="curve" smooth="yes"/>
      <point x="923" y="627" type="line" smooth="yes"/>
      <point x="928" y="656"/>
      <point x="965" y="663"/>
      <point x="1014" y="663" type="curve" smooth="yes"/>
      <point x="1045" y="663" type="line"/>
      <point x="1051" y="710" type="line"/>
      <point x="747" y="710" type="line"/>
      <point x="741" y="663" type="line"/>
      <point x="770" y="663" type="line" smooth="yes"/>
      <point x="807" y="663"/>
      <point x="872" y="660"/>
      <point x="871" y="653" type="curve" smooth="yes"/>
      <point x="765" y="-8" type="line"/>
      <point x="803" y="26" type="line"/>
      <point x="417" y="710" type="line"/>
      <point x="181" y="710" type="line"/>
      <point x="175" y="663" type="line"/>
      <point x="206" y="663" type="line" smooth="yes"/>
      <point x="256" y="663"/>
      <point x="305" y="655"/>
      <point x="301" y="627" type="curve" smooth="yes"/>
      <point x="214" y="83" type="line" smooth="yes"/>
      <point x="209" y="54"/>
      <point x="156" y="47"/>
      <point x="107" y="47" type="curve" smooth="yes"/>
      <point x="76" y="47" type="line"/>
      <point x="70" y="0" type="line"/>
      <point x="374" y="0" type="line"/>
      <point x="380" y="47" type="line"/>
      <point x="351" y="47" type="line" smooth="yes"/>
      <point x="313" y="47"/>
      <point x="265" y="49"/>
      <point x="266" y="57" type="curve" smooth="yes"/>
      <point x="362" y="657" type="line"/>
      <point x="356" y="649" type="line"/>
      <point x="759" y="-65" type="line"/>
      <point x="752" y="34" type="line"/>
      <point x="740" y="-58" type="line" smooth="yes"/>
      <point x="727" y="-158"/>
      <point x="669" y="-200"/>
      <point x="568" y="-200" type="curve" smooth="yes"/>
      <point x="535" y="-200"/>
      <point x="498" y="-194"/>
      <point x="468" y="-186" type="curve"/>
      <point x="459" y="-237" type="line"/>
      <point x="491" y="-245"/>
      <point x="538" y="-250"/>
      <point x="582" y="-250" type="curve" smooth="yes"/>
      <point x="726" y="-250"/>
      <point x="792" y="-197"/>
    </contour>
  </outline>
</glyph>
<glyph name="eng" format="2">
  <advance width="804"/>
  <unicode hex="014B"/>
  <outline>
    <contour>
      <point x="173" y="0" type="line"/>
      <point x="246" y="467" type="line" smooth="yes"/>
      <point x="251" y="500"/>
      <point x="245" y="514"/>
      <point x="172" y="522" type="curve" smooth="yes"/>
      <point x="129" y="527" type="line"/>
      <point x="134" y="565" type="line"/>
      <point x="332" y="565" type="line"/>
      <point x="318" y="393" type="line"/>
      <point x="320" y="384" type="line"/>
      <point x="261" y="0" type="line"/>
    </contour>
    <contour>
      <point x="568" y="-77" type="curve" smooth="yes"/>
      <point x="644" y="368" type="line" smooth="yes"/>
      <point x="648" y="389"/>
      <point x="650" y="426"/>
      <point x="650" y="444" type="curve" smooth="yes"/>
      <point x="650" y="496"/>
      <point x="622" y="520"/>
      <point x="552" y="520" type="curve" smooth="yes"/>
      <point x="467" y="520"/>
      <point x="405" y="469"/>
      <point x="300" y="344" type="curve"/>
      <point x="289" y="375" type="line"/>
      <point x="383" y="499"/>
      <point x="458" y="575"/>
      <point x="586" y="575" type="curve" smooth="yes"/>
      <point x="691" y="575"/>
      <point x="740" y="520"/>
      <point x="740" y="441" type="curve" smooth="yes"/>
      <point x="740" y="415"/>
      <point x="736" y="390"/>
      <point x="732" y="366" type="curve" smooth="yes"/>
      <point x="658" y="-51" type="line" smooth="yes"/>
      <point x="632" y="-198"/>
      <point x="573" y="-250"/>
      <point x="428" y="-250" type="curve" smooth="yes"/>
      <point x="385" y="-250"/>
      <point x="339" y="-245"/>
      <point x="307" y="-237" type="curve"/>
      <point x="315" y="-187" type="line"/>
      <point x="345" y="-195"/>
      <point x="381" y="-202"/>
      <point x="414" y="-202" type="curve" smooth="yes"/>
      <point x="501" y="-202"/>
      <point x="551" y="-179"/>
    </contour>
  </outline>
</glyph>
<glyph name="oe" format="2">
  <advance width="1183"/>
  <unicode hex="0153"/>
  <outline>
    <contour>
      <point x="877" y="-12" type="curve" smooth="yes"/>
      <point x="978" y="-12"/>
      <point x="1070" y="34"/>
      <point x="1131" y="113" type="curve"/>
      <point x="1099" y="139" type="line"/>
      <point x="1050" y="74"/>
      <point x="976" y="34"/>
      <point x="892" y="34" type="curve" smooth="yes"/>
      <point x="778" y="34"/>
      <point x="723" y="97"/>
      <point x="723" y="217" type="curve" smooth="yes"/>
      <point x="723" y="379"/>
      <point x="819" y="535"/>
      <point x="969" y="535" type="curve" smooth="yes"/>
      <point x="1041" y="535"/>
      <point x="1076" y="485"/>
      <point x="1076" y="435" type="curve" smooth="yes"/>
      <point x="1076" y="353"/>
      <point x="1001" y="298"/>
      <point x="711" y="274" type="curve"/>
      <point x="706" y="235" type="line"/>
      <point x="1027" y="256"/>
      <point x="1167" y="314"/>
      <point x="1167" y="441" type="curve" smooth="yes"/>
      <point x="1167" y="524"/>
      <point x="1092" y="575"/>
      <point x="967" y="575" type="curve" smooth="yes"/>
      <point x="779" y="575"/>
      <point x="645" y="420"/>
      <point x="645" y="220" type="curve" smooth="yes"/>
      <point x="645" y="81"/>
      <point x="722" y="-12"/>
    </contour>
    <contour>
      <point x="439" y="575" type="curve" smooth="yes"/>
      <point x="262" y="575"/>
      <point x="105" y="432"/>
      <point x="105" y="246" type="curve" smooth="yes"/>
      <point x="105" y="74"/>
      <point x="222" y="-13"/>
      <point x="394" y="-13" type="curve" smooth="yes"/>
      <point x="573" y="-13"/>
      <point x="712" y="126"/>
      <point x="712" y="313" type="curve" smooth="yes"/>
      <point x="712" y="479"/>
      <point x="616" y="575"/>
    </contour>
    <contour>
      <point x="199" y="340"/>
      <point x="231" y="422"/>
      <point x="290" y="474" type="curve" smooth="yes"/>
      <point x="329" y="507"/>
      <point x="379" y="531"/>
      <point x="444" y="531" type="curve" smooth="yes"/>
      <point x="562" y="531"/>
      <point x="635" y="466"/>
      <point x="635" y="324" type="curve" smooth="yes"/>
      <point x="635" y="229"/>
      <point x="609" y="155"/>
      <point x="561" y="104" type="curve" smooth="yes"/>
      <point x="521" y="61"/>
      <point x="466" y="31"/>
      <point x="391" y="31" type="curve" smooth="yes"/>
      <point x="272" y="31"/>
      <point x="199" y="93"/>
      <point x="199" y="236" type="curve" smooth="yes"/>
    </contour>
  </outline>
</glyph>
<glyph name="tbar" format="2">
  <advance width="570"/>
  <unicode hex="0167"/>
  <outline>
    <contour>
      <point x="564" y="326" type="line"/>
      <point x="84" y="326" type="line"/>
      <point x="78" y="285" type="line"/>
      <point x="558" y="285" type="line"/>
    </contour>
    <component base="t" xOffset="6"/>
  </outline>
</glyph>
<glyph name="Uogonek" format="2">
  <advance width="978"/>
  <unicode hex="0172"/>
  <outline>
    <contour>
      <point x="627" y="3" type="line"/>
      <point x="457" y="-69"/>
      <point x="411" y="-102"/>
      <point x="411" y="-165" type="curve" smooth="yes"/>
      <point x="411" y="-216"/>
      <point x="444" y="-252"/>
      <point x="555" y="-252" type="curve" smooth="yes"/>
      <point x="622" y="-252"/>
      <point x="681" y="-234"/>
      <point x="726" y="-197" type="curve"/>
      <point x="700" y="-163" type="line"/>
      <point x="662" y="-188"/>
      <point x="618" y="-206"/>
      <point x="575" y="-206" type="curve" smooth="yes"/>
      <point x="517" y="-206"/>
      <point x="508" y="-177"/>
      <point x="508" y="-151" type="curve" smooth="yes"/>
      <point x="508" y="-110"/>
      <point x="550" y="-77"/>
      <point x="716" y="34" type="curve" smooth="yes"/>
      <point x="784" y="80"/>
      <point x="834" y="158"/>
      <point x="853" y="276" type="curve" smooth="yes"/>
      <point x="909" y="627" type="line" smooth="yes"/>
      <point x="914" y="656"/>
      <point x="951" y="663"/>
      <point x="1000" y="663" type="curve" smooth="yes"/>
      <point x="1031" y="663" type="line"/>
      <point x="1037" y="710" type="line"/>
      <point x="735" y="710" type="line"/>
      <point x="729" y="663" type="line"/>
      <point x="758" y="663" type="line" smooth="yes"/>
      <point x="795" y="663"/>
      <point x="859" y="660"/>
      <point x="858" y="653" type="curve" smooth="yes"/>
      <point x="796" y="266" type="line" smooth="yes"/>
      <point x="769" y="95"/>
      <point x="646" y="37"/>
      <point x="506" y="37" type="curve" smooth="yes"/>
      <point x="382" y="37"/>
      <point x="300" y="88"/>
      <point x="300" y="213" type="curve" smooth="yes"/>
      <point x="300" y="231"/>
      <point x="298" y="245"/>
      <point x="302" y="266" type="curve" smooth="yes"/>
      <point x="364" y="653" type="line" smooth="yes"/>
      <point x="365" y="660"/>
      <point x="415" y="663"/>
      <point x="453" y="663" type="curve" smooth="yes"/>
      <point x="482" y="663" type="line"/>
      <point x="488" y="710" type="line"/>
      <point x="165" y="710" type="line"/>
      <point x="159" y="663" type="line"/>
      <point x="190" y="663" type="line" smooth="yes"/>
      <point x="240" y="663"/>
      <point x="273" y="655"/>
      <point x="269" y="627" type="curve" smooth="yes"/>
      <point x="213" y="276" type="line" smooth="yes"/>
      <point x="209" y="251"/>
      <point x="207" y="228"/>
      <point x="207" y="206" type="curve" smooth="yes"/>
      <point x="207" y="39"/>
      <point x="331" y="-25"/>
      <point x="502" y="-25" type="curve" smooth="yes"/>
      <point x="543" y="-25"/>
      <point x="589" y="-19"/>
      <point x="625" y="-15" type="curve"/>
    </contour>
  </outline>
</glyph>
<glyph name="Bhook" format="2">
  <advance width="853"/>
  <unicode hex="0181"/>
  <anchor x="426.5" y="741" name="top"/>
  <anchor x="460.62" y="0" name="bottom"/>
  <outline>
    <contour>
      <point x="720" y="221" type="curve" smooth="yes"/>
      <point x="720" y="126"/>
      <point x="660" y="42"/>
      <point x="509" y="42" type="curve" smooth="yes"/>
      <point x="297" y="42" type="line"/>
      <point x="345" y="352" type="line"/>
      <point x="536" y="352" type="line" smooth="yes"/>
      <point x="663" y="352"/>
      <point x="720" y="303"/>
    </contour>
    <contour>
      <point x="737" y="546" type="curve" smooth="yes"/>
      <point x="737" y="457"/>
      <point x="676" y="392"/>
      <point x="546" y="392" type="curve" smooth="yes"/>
      <point x="355" y="392" type="line"/>
      <point x="397" y="668" type="line"/>
      <point x="597" y="668" type="line" smooth="yes"/>
      <point x="697" y="668"/>
      <point x="737" y="626"/>
    </contour>
    <contour>
      <point x="94" y="47" type="line"/>
      <point x="85" y="0" type="line"/>
      <point x="516" y="0" type="line" smooth="yes"/>
      <point x="707" y="0"/>
      <point x="815" y="87"/>
      <point x="815" y="221" type="curve" smooth="yes"/>
      <point x="815" y="320"/>
      <point x="739" y="364"/>
      <point x="572" y="370" type="curve"/>
      <point x="628" y="352" type="line"/>
      <point x="633" y="389" type="line"/>
      <point x="575" y="376" type="line"/>
      <point x="753" y="376"/>
      <point x="832" y="461"/>
      <point x="832" y="565" type="curve" smooth="yes"/>
      <point x="832" y="662"/>
      <point x="762" y="710"/>
      <point x="616" y="710" type="curve" smooth="yes"/>
      <point x="318" y="710" type="line" smooth="yes"/>
      <point x="178" y="710"/>
      <point x="97" y="660"/>
      <point x="77" y="533" type="curve" smooth="yes"/>
      <point x="73" y="509"/>
      <point x="72" y="482"/>
      <point x="72" y="468" type="curve"/>
      <point x="163" y="468" type="line"/>
      <point x="161" y="488"/>
      <point x="159" y="519"/>
      <point x="167" y="560" type="curve" smooth="yes"/>
      <point x="184" y="647"/>
      <point x="230" y="668"/>
      <point x="325" y="668" type="curve" smooth="yes"/>
      <point x="365" y="668" type="line"/>
      <point x="311" y="695" type="line"/>
      <point x="216" y="84" type="line" smooth="yes"/>
      <point x="212" y="55"/>
      <point x="174" y="47"/>
      <point x="125" y="47" type="curve" smooth="yes"/>
    </contour>
  </outline>
</glyph>
<glyph name="Schwa" format="2">
  <advance width="929"/>
  <unicode hex="018F"/>
  <outline>
    <contour>
      <point x="494" y="-25" type="curve" smooth="yes"/>
      <point x="728" y="-25"/>
      <point x="913" y="130"/>
      <point x="913" y="376" type="curve" smooth="yes"/>
      <point x="913" y="538"/>
      <point x="844" y="735"/>
      <point x="533" y="735" type="curve" smooth="yes"/>
      <point x="379" y="735"/>
      <point x="244" y="686"/>
      <point x="166" y="605" type="curve"/>
      <point x="206" y="570" type="line"/>
      <point x="274" y="640"/>
      <point x="376" y="692"/>
      <point x="516" y="692" type="curve" smooth="yes"/>
      <point x="777" y="692"/>
      <point x="809" y="532"/>
      <point x="809" y="372" type="curve" smooth="yes"/>
      <point x="809" y="157"/>
      <point x="685" y="17"/>
      <point x="495" y="17" type="curve" smooth="yes"/>
      <point x="309" y="17"/>
      <point x="240" y="118"/>
      <point x="240" y="268" type="curve" smooth="yes"/>
      <point x="240" y="301"/>
      <point x="242" y="324"/>
      <point x="248" y="348" type="curve"/>
      <point x="224" y="333" type="line"/>
      <point x="826" y="333" type="line"/>
      <point x="832" y="376" type="line"/>
      <point x="146" y="376" type="line"/>
      <point x="141" y="352"/>
      <point x="138" y="329"/>
      <point x="138" y="289" type="curve" smooth="yes"/>
      <point x="138" y="117"/>
      <point x="230" y="-25"/>
    </contour>
  </outline>
</glyph>
<glyph name="florin" format="2">
  <advance width="557"/>
  <unicode hex="0192"/>
  <outline>
    <contour>
      <point x="133" y="565" type="line"/>
      <point x="126" y="518" type="line"/>
      <point x="577" y="518" type="line"/>
      <point x="584" y="565" type="line"/>
    </contour>
    <contour>
      <point x="274" y="-83" type="curve" smooth="yes"/>
      <point x="380" y="599" type="line" smooth="yes"/>
      <point x="395" y="690"/>
      <point x="427" y="738"/>
      <point x="538" y="738" type="curve" smooth="yes"/>
      <point x="585" y="738"/>
      <point x="634" y="728"/>
      <point x="667" y="718" type="curve"/>
      <point x="681" y="770" type="line"/>
      <point x="656" y="778"/>
      <point x="593" y="790"/>
      <point x="532" y="790" type="curve" smooth="yes"/>
      <point x="386" y="790"/>
      <point x="310" y="730"/>
      <point x="293" y="623" type="curve" smooth="yes"/>
      <point x="187" y="-54" type="line" smooth="yes"/>
      <point x="171" y="-152"/>
      <point x="134" y="-198"/>
      <point x="65" y="-198" type="curve" smooth="yes"/>
      <point x="23" y="-198"/>
      <point x="-17" y="-189"/>
      <point x="-49" y="-177" type="curve"/>
      <point x="-63" y="-231" type="line"/>
      <point x="-34" y="-242"/>
      <point x="11" y="-250"/>
      <point x="61" y="-250" type="curve" smooth="yes"/>
      <point x="181" y="-250"/>
      <point x="257" y="-195"/>
    </contour>
  </outline>
</glyph>
<glyph name="khook" format="2">
  <advance width="710"/>
  <unicode hex="0199"/>
  <anchor x="376.3" y="790.0" name="top"/>
  <anchor x="355.0" y="0" name="bottom"/>
  <outline>
    <contour>
      <point x="561" y="93" type="line" smooth="yes"/>
      <point x="595" y="47"/>
      <point x="616" y="35"/>
      <point x="651" y="35" type="curve" smooth="yes"/>
      <point x="669" y="35"/>
      <point x="682" y="35"/>
      <point x="711" y="35" type="curve"/>
      <point x="706" y="0" type="line"/>
      <point x="673" y="0"/>
      <point x="640" y="0"/>
      <point x="607" y="0" type="curve" smooth="yes"/>
      <point x="536" y="0"/>
      <point x="518" y="12"/>
      <point x="482" y="61" type="curve" smooth="yes"/>
      <point x="306" y="301" type="line"/>
      <point x="306" y="306" type="line"/>
      <point x="407" y="393"/>
      <point x="508" y="478"/>
      <point x="608" y="565" type="curve"/>
      <point x="704" y="565" type="line"/>
      <point x="704" y="550" type="line"/>
      <point x="601" y="477"/>
      <point x="481" y="391"/>
      <point x="374" y="314" type="curve"/>
      <point x="375" y="344" type="line"/>
    </contour>
    <contour>
      <point x="230" y="591.0" type="curve" smooth="yes"/>
      <point x="132" y="0" type="line"/>
      <point x="220" y="0" type="line"/>
      <point x="318" y="593.0" type="line" smooth="yes"/>
      <point x="338.10869565217394" y="712.0"/>
      <point x="416.5326086956522" y="734.0"/>
      <point x="503" y="734.0" type="curve" smooth="yes"/>
      <point x="571.5519480519481" y="734.0"/>
      <point x="629.1753246753246" y="720.5"/>
      <point x="656" y="707.0" type="curve"/>
      <point x="667" y="769.0" type="line"/>
      <point x="644" y="779.0"/>
      <point x="582" y="790.0"/>
      <point x="521" y="790.0" type="curve" smooth="yes"/>
      <point x="402.0" y="790.0"/>
      <point x="256" y="750"/>
    </contour>
  </outline>
</glyph>
<glyph name="Ohorn" format="2">
  <advance width="984"/>
  <unicode hex="01A0"/>
  <anchor x="482" y="742" name="top"/>
  <anchor x="492" y="0" name="bottom"/>
  <outline>
    <contour>
      <point x="571" y="692" type="curve" smooth="yes"/>
      <point x="740" y="692"/>
      <point x="859" y="601"/>
      <point x="859" y="386" type="curve" smooth="yes"/>
      <point x="859" y="324"/>
      <point x="849" y="264"/>
      <point x="827" y="212" type="curve" smooth="yes"/>
      <point x="780" y="98"/>
      <point x="681" y="17"/>
      <point x="515" y="17" type="curve" smooth="yes"/>
      <point x="346" y="17"/>
      <point x="227" y="108"/>
      <point x="227" y="323" type="curve" smooth="yes"/>
      <point x="227" y="385"/>
      <point x="237" y="445"/>
      <point x="259" y="497" type="curve" smooth="yes"/>
      <point x="306" y="611"/>
      <point x="405" y="692"/>
    </contour>
    <contour>
      <point x="812" y="616" type="line"/>
      <point x="825" y="679" type="line"/>
      <point x="726" y="686" type="line"/>
      <point x="806" y="656"/>
      <point x="848" y="643"/>
      <point x="915" y="643" type="curve" smooth="yes"/>
      <point x="999" y="643"/>
      <point x="1110" y="662"/>
      <point x="1141" y="899" type="curve"/>
      <point x="1047" y="899" type="line"/>
      <point x="1018" y="734"/>
      <point x="977" y="690"/>
      <point x="885" y="690" type="curve" smooth="yes"/>
      <point x="787" y="690"/>
      <point x="722" y="735"/>
      <point x="580" y="735" type="curve" smooth="yes"/>
      <point x="242" y="735"/>
      <point x="126" y="489"/>
      <point x="126" y="324" type="curve" smooth="yes"/>
      <point x="126" y="109"/>
      <point x="272" y="-25"/>
      <point x="506" y="-25" type="curve" smooth="yes"/>
      <point x="844" y="-25"/>
      <point x="960" y="221"/>
      <point x="960" y="386" type="curve" smooth="yes"/>
      <point x="960" y="524"/>
      <point x="883" y="623"/>
      <point x="740" y="682" type="curve"/>
    </contour>
  </outline>
</glyph>
<glyph name="ohorn" format="2">
  <advance width="792"/>
  <unicode hex="01A1"/>
  <anchor x="393" y="538" name="top"/>
  <anchor x="389" y="0" name="bottom"/>
  <outline>
    <contour>
      <point x="214" y="348" type="curve" smooth="yes"/>
      <point x="245" y="454"/>
      <point x="328" y="531"/>
      <point x="444" y="531" type="curve" smooth="yes"/>
      <point x="563" y="531"/>
      <point x="635" y="469"/>
      <point x="635" y="326" type="curve" smooth="yes"/>
      <point x="635" y="285"/>
      <point x="630" y="248"/>
      <point x="620" y="214" type="curve" smooth="yes"/>
      <point x="589" y="108"/>
      <point x="507" y="31"/>
      <point x="391" y="31" type="curve" smooth="yes"/>
      <point x="272" y="31"/>
      <point x="199" y="93"/>
      <point x="199" y="236" type="curve" smooth="yes"/>
      <point x="199" y="277"/>
      <point x="204" y="314"/>
    </contour>
    <contour>
      <point x="550" y="546" type="line"/>
      <point x="603" y="525"/>
      <point x="653" y="506"/>
      <point x="701" y="506" type="curve" smooth="yes"/>
      <point x="792" y="506"/>
      <point x="880" y="530"/>
      <point x="903" y="737" type="curve"/>
      <point x="810" y="737" type="line"/>
      <point x="790" y="596"/>
      <point x="758" y="551"/>
      <point x="672" y="551" type="curve" smooth="yes"/>
      <point x="596" y="551"/>
      <point x="538" y="575"/>
      <point x="439" y="575" type="curve" smooth="yes"/>
      <point x="262" y="575"/>
      <point x="105" y="432"/>
      <point x="105" y="246" type="curve" smooth="yes"/>
      <point x="105" y="74"/>
      <point x="222" y="-13"/>
      <point x="394" y="-13" type="curve" smooth="yes"/>
      <point x="573" y="-13"/>
      <point x="729" y="126"/>
      <point x="729" y="313" type="curve" smooth="yes"/>
      <point x="729" y="415"/>
      <point x="667" y="502"/>
      <point x="572" y="536" type="curve"/>
      <point x="637" y="479" type="line"/>
      <point x="654" y="523" type="line"/>
    </contour>
  </outline>
</glyph>
<glyph name="yhook" format="2">
  <advance width="722"/>
  <unicode hex="01B4"/>
  <anchor x="375.44" y="551" name="top"/>
  <anchor x="202.16" y="-232" name="bottom"/>
  <outline>
    <contour>
      <point x="16" y="-142" type="curve"/>
      <point x="4" y="-215" type="line"/>
      <point x="36" y="-227"/>
      <point x="73" y="-231"/>
      <point x="109" y="-232" type="curve" smooth="yes"/>
      <point x="252" y="-232"/>
      <point x="312" y="-188"/>
      <point x="427" y="13" type="curve" smooth="yes"/>
      <point x="523.7228571428572" y="182.0"/>
      <point x="629.4200000000001" y="373.0"/>
      <point x="776" y="626.0" type="curve" smooth="yes"/>
      <point x="825.4375" y="711.0"/>
      <point x="846.2432432432433" y="725.0"/>
      <point x="889" y="725.0" type="curve" smooth="yes"/>
      <point x="905.6222222222223" y="725.0"/>
      <point x="919.3111111111111" y="721.0"/>
      <point x="933" y="715.0" type="curve"/>
      <point x="945" y="784.0" type="line"/>
      <point x="935" y="787.0"/>
      <point x="916" y="790.0"/>
      <point x="895" y="790.0" type="curve" smooth="yes"/>
      <point x="826" y="790.0"/>
      <point x="786.6158192090395" y="764.0"/>
      <point x="719" y="641.0" type="curve" smooth="yes"/>
      <point x="581.5771604938271" y="394.0"/>
      <point x="477.5139318885449" y="197.46864686468646"/>
      <point x="394" y="37" type="curve"/>
      <point x="365" y="3" type="line"/>
      <point x="300" y="-111"/>
      <point x="243" y="-162"/>
      <point x="137" y="-162" type="curve" smooth="yes"/>
      <point x="92" y="-162"/>
      <point x="45" y="-154"/>
    </contour>
    <contour>
      <point x="222" y="486" type="curve" smooth="yes"/>
      <point x="368" y="-25" type="line"/>
      <point x="405" y="15" type="line"/>
      <point x="429" y="56" type="line"/>
      <point x="290" y="565" type="line"/>
      <point x="104" y="565" type="line"/>
      <point x="100" y="531" type="line"/>
      <point x="123" y="529" type="line" smooth="yes"/>
      <point x="182" y="524"/>
      <point x="215" y="510"/>
    </contour>
  </outline>
</glyph>
<glyph name="icaron" format="2">
  <advance width="435"/>
  <unicode hex="01D0"/>
  <outline>
    <contour>
      <point x="268" y="656" type="line"/>
      <point x="143" y="819" type="line"/>
      <point x="147" y="844" type="line"/>
      <point x="173" y="844" type="line"/>
      <point x="370" y="681" type="line"/>
      <point x="277" y="697" type="line"/>
      <point x="494" y="844" type="line"/>
      <point x="524" y="844" type="line"/>
      <point x="520" y="819" type="line"/>
      <point x="348" y="656" type="line"/>
    </contour>
    <component base="dotlessi" xOffset="-3"/>
  </outline>
</glyph>
<glyph name="Oogonek" format="2">
  <advance width="974"/>
  <unicode hex="01EA"/>
  <outline>
    <contour>
      <point x="571" y="692" type="curve" smooth="yes"/>
      <point x="740" y="692"/>
      <point x="859" y="601"/>
      <point x="859" y="386" type="curve" smooth="yes"/>
      <point x="859" y="324"/>
      <point x="849" y="264"/>
      <point x="827" y="212" type="curve" smooth="yes"/>
      <point x="780" y="98"/>
      <point x="681" y="17"/>
      <point x="515" y="17" type="curve" smooth="yes"/>
      <point x="346" y="17"/>
      <point x="227" y="108"/>
      <point x="227" y="323" type="curve" smooth="yes"/>
      <point x="227" y="385"/>
      <point x="237" y="445"/>
      <point x="259" y="497" type="curve" smooth="yes"/>
      <point x="306" y="611"/>
      <point x="405" y="692"/>
    </contour>
    <contour>
      <point x="960" y="386" type="curve" smooth="yes"/>
      <point x="960" y="601"/>
      <point x="814" y="735"/>
      <point x="580" y="735" type="curve" smooth="yes"/>
      <point x="242" y="735"/>
      <point x="126" y="489"/>
      <point x="126" y="324" type="curve" smooth="yes"/>
      <point x="126" y="109"/>
      <point x="272" y="-25"/>
      <point x="506" y="-25" type="curve" smooth="yes"/>
      <point x="560" y="-25"/>
      <point x="632" y="-13"/>
      <point x="668" y="-5" type="curve"/>
      <point x="666" y="12" type="line"/>
      <point x="493" y="-61"/>
      <point x="432" y="-108"/>
      <point x="432" y="-165" type="curve" smooth="yes"/>
      <point x="432" y="-216"/>
      <point x="465" y="-252"/>
      <point x="576" y="-252" type="curve" smooth="yes"/>
      <point x="643" y="-252"/>
      <point x="702" y="-234"/>
      <point x="747" y="-197" type="curve"/>
      <point x="721" y="-163" type="line"/>
      <point x="683" y="-188"/>
      <point x="639" y="-206"/>
      <point x="596" y="-206" type="curve" smooth="yes"/>
      <point x="538" y="-206"/>
      <point x="529" y="-179"/>
      <point x="529" y="-157" type="curve" smooth="yes"/>
      <point x="529" y="-116"/>
      <point x="573" y="-85"/>
      <point x="773" y="45" type="curve" smooth="yes"/>
      <point x="918" y="140"/>
      <point x="960" y="285"/>
    </contour>
  </outline>
</glyph>
<glyph name="oogonek" format="2">
  <advance width="746"/>
  <unicode hex="01EB"/>
  <outline>
    <contour>
      <point x="276" y="-165" type="curve" smooth="yes"/>
      <point x="276" y="-216"/>
      <point x="309" y="-252"/>
      <point x="420" y="-252" type="curve" smooth="yes"/>
      <point x="487" y="-252"/>
      <point x="546" y="-234"/>
      <point x="591" y="-197" type="curve"/>
      <point x="565" y="-163" type="line"/>
      <point x="527" y="-188"/>
      <point x="487" y="-206"/>
      <point x="441" y="-206" type="curve" smooth="yes"/>
      <point x="386" y="-206"/>
      <point x="373" y="-177"/>
      <point x="373" y="-151" type="curve" smooth="yes"/>
      <point x="373" y="-108"/>
      <point x="404" y="-76"/>
      <point x="572" y="36" type="curve" smooth="yes"/>
      <point x="667" y="100"/>
      <point x="729" y="198"/>
      <point x="729" y="313" type="curve" smooth="yes"/>
      <point x="729" y="480"/>
      <point x="619" y="575"/>
      <point x="436" y="575" type="curve" smooth="yes"/>
      <point x="262" y="575"/>
      <point x="105" y="432"/>
      <point x="105" y="246" type="curve" smooth="yes"/>
      <point x="105" y="73"/>
      <point x="219" y="-13"/>
      <point x="389" y="-13" type="curve" smooth="yes"/>
      <point x="424" y="-13"/>
      <point x="466" y="-3"/>
      <point x="497" y="5" type="curve"/>
      <point x="503" y="21" type="line"/>
      <point x="332" y="-69"/>
      <point x="276" y="-102"/>
    </contour>
    <contour>
      <point x="620" y="214" type="curve" smooth="yes"/>
      <point x="589" y="108"/>
      <point x="507" y="31"/>
      <point x="391" y="31" type="curve" smooth="yes"/>
      <point x="272" y="31"/>
      <point x="199" y="93"/>
      <point x="199" y="236" type="curve" smooth="yes"/>
      <point x="199" y="277"/>
      <point x="204" y="314"/>
      <point x="214" y="348" type="curve" smooth="yes"/>
      <point x="245" y="454"/>
      <point x="328" y="531"/>
      <point x="444" y="531" type="curve" smooth="yes"/>
      <point x="563" y="531"/>
      <point x="635" y="469"/>
      <point x="635" y="326" type="curve" smooth="yes"/>
      <point x="635" y="285"/>
      <point x="630" y="248"/>
    </contour>
  </outline>
</glyph>
<glyph name="dotlessj" format="2">
  <advance width="405"/>
  <unicode hex="0237"/>
  <anchor x="201" y="521" name="top"/>
  <outline>
    <contour>
      <point x="-89" y="-237" type="line"/>
      <point x="-57" y="-245"/>
      <point x="-10" y="-250"/>
      <point x="34" y="-250" type="curve" smooth="yes"/>
      <point x="178" y="-250"/>
      <point x="248" y="-198"/>
      <point x="267" y="-50" type="curve" smooth="yes"/>
      <point x="347" y="565" type="line"/>
      <point x="129" y="565" type="line"/>
      <point x="124" y="527" type="line"/>
      <point x="168" y="522" type="line" smooth="yes"/>
      <point x="240" y="514"/>
      <point x="250" y="500"/>
      <point x="246" y="467" type="curve" smooth="yes"/>
      <point x="172" y="-83" type="line" smooth="yes"/>
      <point x="159" y="-181"/>
      <point x="106" y="-202"/>
      <point x="18" y="-202" type="curve" smooth="yes"/>
      <point x="-15" y="-202"/>
      <point x="-51" y="-195"/>
      <point x="-81" y="-187" type="curve"/>
    </contour>
  </outline>
</glyph>
<glyph name="bhook" format="2">
  <advance width="799"/>
  <unicode hex="0253"/>
  <anchor x="343.57" y="800.0" name="top"/>
  <anchor x="399.5" y="0" name="bottom"/>
  <outline>
    <contour>
      <point x="318" y="593.0" type="line" smooth="yes"/>
      <point x="336.0" y="712"/>
      <point x="416.0" y="734.0"/>
      <point x="502" y="734.0" type="curve"/>
      <point x="571.0" y="734.0"/>
      <point x="629.0" y="720.5"/>
      <point x="656" y="707.0" type="curve"/>
      <point x="667" y="769.0" type="line"/>
      <point x="644" y="779.0"/>
      <point x="582" y="790.0"/>
      <point x="521" y="790.0" type="curve"/>
      <point x="402.0" y="790.0"/>
      <point x="257.0" y="749.0"/>
      <point x="230" y="587.0" type="curve" smooth="yes"/>
      <point x="146" y="84" type="line"/>
      <point x="201" y="33"/>
      <point x="288" y="-12"/>
      <point x="407" y="-12" type="curve" smooth="yes"/>
      <point x="657" y="-12"/>
      <point x="762" y="180"/>
      <point x="762" y="356" type="curve" smooth="yes"/>
      <point x="762" y="487"/>
      <point x="680" y="575"/>
      <point x="538" y="575" type="curve" smooth="yes"/>
      <point x="431" y="575"/>
      <point x="315" y="509"/>
      <point x="248" y="380" type="curve"/>
      <point x="271" y="365" type="line"/>
      <point x="348" y="474"/>
      <point x="430" y="521"/>
      <point x="520" y="521" type="curve" smooth="yes"/>
      <point x="612" y="521"/>
      <point x="663" y="464"/>
      <point x="664" y="356" type="curve" smooth="yes"/>
      <point x="665" y="186"/>
      <point x="585" y="37"/>
      <point x="405" y="37" type="curve" smooth="yes"/>
      <point x="318" y="37"/>
      <point x="240" y="71"/>
      <point x="211" y="127" type="curve"/>
      <point x="199" y="100"/>
      <point x="208" y="79"/>
      <point x="233" y="79" type="curve"/>
    </contour>
  </outline>
</glyph>
<glyph name="dhook" format="2">
  <advance width="822"/>
  <unicode hex="0257"/>
  <anchor x="649.38" y="800.0" name="top"/>
  <anchor x="386.34" y="0" name="bottom"/>
  <outline>
    <contour>
      <point x="329" y="-12" type="curve" smooth="yes"/>
      <point x="454" y="-12"/>
      <point x="538" y="67"/>
      <point x="608" y="186" type="curve"/>
      <point x="589" y="217" type="line"/>
      <point x="511" y="91"/>
      <point x="442" y="43"/>
      <point x="345" y="43" type="curve" smooth="yes"/>
      <point x="253" y="43"/>
      <point x="202" y="99"/>
      <point x="201" y="207" type="curve" smooth="yes"/>
      <point x="199" y="377"/>
      <point x="284" y="526"/>
      <point x="436" y="526" type="curve" smooth="yes"/>
      <point x="525" y="526"/>
      <point x="599" y="484"/>
      <point x="623" y="355" type="curve"/>
      <point x="659" y="377" type="line"/>
      <point x="630" y="509"/>
      <point x="551" y="575"/>
      <point x="423" y="575" type="curve" smooth="yes"/>
      <point x="191" y="575"/>
      <point x="103" y="358"/>
      <point x="103" y="207" type="curve" smooth="yes"/>
      <point x="103" y="76"/>
      <point x="187" y="-12"/>
    </contour>
    <contour>
      <point x="650" y="608.0" type="curve" smooth="yes"/>
      <point x="574" y="165" type="line"/>
      <point x="573" y="160" type="line"/>
      <point x="569" y="126"/>
      <point x="565" y="91"/>
      <point x="565" y="73" type="curve" smooth="yes"/>
      <point x="565" y="20"/>
      <point x="596" y="0"/>
      <point x="672" y="0" type="curve" smooth="yes"/>
      <point x="710" y="0"/>
      <point x="749" y="0"/>
      <point x="781" y="0" type="curve"/>
      <point x="786" y="35" type="line"/>
      <point x="755" y="35"/>
      <point x="730" y="35"/>
      <point x="688" y="35" type="curve" smooth="yes"/>
      <point x="661" y="35"/>
      <point x="650" y="44"/>
      <point x="650" y="69" type="curve" smooth="yes"/>
      <point x="650" y="88"/>
      <point x="657" y="131"/>
      <point x="673" y="228" type="curve" smooth="yes"/>
      <point x="737" y="607.0" type="line" smooth="yes"/>
      <point x="753.0" y="713.0512820512821"/>
      <point x="800.90756302521" y="739.0"/>
      <point x="854" y="739.0" type="curve" smooth="yes"/>
      <point x="886.7529411764706" y="739.0"/>
      <point x="921.3214285714286" y="728.7142857142857"/>
      <point x="941" y="721.0" type="curve"/>
      <point x="950" y="783.0" type="line"/>
      <point x="933" y="787.0"/>
      <point x="902" y="790.0"/>
      <point x="866" y="790.0" type="curve" smooth="yes"/>
      <point x="778" y="790.0"/>
      <point x="674" y="746"/>
    </contour>
  </outline>
</glyph>
<glyph name="schwa" format="2">
  <advance width="652"/>
  <unicode hex="0259"/>
  <outline>
    <contour>
      <point x="385" y="575" type="curve" smooth="yes"/>
      <point x="284" y="575"/>
      <point x="192" y="529"/>
      <point x="131" y="450" type="curve"/>
      <point x="163" y="424" type="line"/>
      <point x="212" y="489"/>
      <point x="286" y="529"/>
      <point x="370" y="529" type="curve" smooth="yes"/>
      <point x="484" y="529"/>
      <point x="539" y="466"/>
      <point x="539" y="346" type="curve" smooth="yes"/>
      <point x="539" y="184"/>
      <point x="443" y="28"/>
      <point x="293" y="28" type="curve" smooth="yes"/>
      <point x="221" y="28"/>
      <point x="186" y="78"/>
      <point x="186" y="128" type="curve" smooth="yes"/>
      <point x="186" y="210"/>
      <point x="261" y="265"/>
      <point x="551" y="289" type="curve"/>
      <point x="556" y="328" type="line"/>
      <point x="235" y="307"/>
      <point x="95" y="249"/>
      <point x="95" y="122" type="curve" smooth="yes"/>
      <point x="95" y="39"/>
      <point x="170" y="-12"/>
      <point x="295" y="-12" type="curve" smooth="yes"/>
      <point x="483" y="-12"/>
      <point x="634" y="143"/>
      <point x="634" y="343" type="curve" smooth="yes"/>
      <point x="634" y="482"/>
      <point x="540" y="575"/>
    </contour>
  </outline>
</glyph>
<glyph name="ringhalfleft" format="2">
  <advance width="351"/>
  <unicode hex="02BF"/>
  <anchor x="176" y="566" name="_top"/>
  <outline>
    <contour>
      <point x="354" y="634" type="curve"/>
      <point x="362" y="675" type="line"/>
      <point x="312" y="677"/>
      <point x="288" y="700"/>
      <point x="288" y="746" type="curve" smooth="yes"/>
      <point x="288" y="803"/>
      <point x="320" y="831"/>
      <point x="378" y="827" type="curve"/>
      <point x="385" y="867" type="line"/>
      <point x="281" y="872"/>
      <point x="220" y="826"/>
      <point x="220" y="743" type="curve" smooth="yes"/>
      <point x="220" y="678"/>
      <point x="267" y="637"/>
    </contour>
  </outline>
</glyph>
<glyph name="circumflex" format="2">
  <advance width="387"/>
  <unicode hex="02C6"/>
  <anchor x="190" y="529" name="_top"/>
  <outline>
    <contour>
      <point x="364" y="844" type="line"/>
      <point x="493" y="681" type="line"/>
      <point x="489" y="656" type="line"/>
      <point x="459" y="656" type="line"/>
      <point x="268" y="814" type="line"/>
      <point x="350" y="798" type="line"/>
      <point x="141" y="656" type="line"/>
      <point x="105" y="656" type="line"/>
      <point x="109" y="681" type="line"/>
      <point x="285" y="844" type="line"/>
    </contour>
  </outline>
</glyph>
<glyph name="verticallinelowmod" format="2">
  <advance width="613"/>
  <unicode hex="02CC"/>
  <outline>
    <contour>
      <point x="263" y="-323" type="line"/>
      <point x="350" y="-323" type="line"/>
      <point x="350" y="-50" type="line"/>
      <point x="263" y="-50" type="line"/>
    </contour>
  </outline>
</glyph>
<glyph name="hungarumlaut" format="2">
  <advance width="386"/>
  <unicode hex="02DD"/>
  <anchor x="197" y="525" name="_top"/>
  <outline>
    <contour>
      <point x="160" y="814" type="curve" smooth="yes"/>
      <point x="108" y="676" type="line"/>
      <point x="106" y="661" type="line"/>
      <point x="140" y="661" type="line"/>
      <point x="224" y="751" type="line" smooth="yes"/>
      <point x="252" y="780"/>
      <point x="274" y="802"/>
      <point x="274" y="826" type="curve" smooth="yes"/>
      <point x="274" y="849"/>
      <point x="262" y="869"/>
      <point x="226" y="869" type="curve" smooth="yes"/>
      <point x="189" y="869"/>
      <point x="173" y="848"/>
    </contour>
    <contour>
      <point x="400" y="814" type="curve" smooth="yes"/>
      <point x="349" y="676" type="line"/>
      <point x="347" y="661" type="line"/>
      <point x="381" y="661" type="line"/>
      <point x="465" y="751" type="line" smooth="yes"/>
      <point x="492" y="780"/>
      <point x="514" y="802"/>
      <point x="514" y="828" type="curve" smooth="yes"/>
      <point x="514" y="847"/>
      <point x="502" y="869"/>
      <point x="466" y="869" type="curve" smooth="yes"/>
      <point x="429" y="869"/>
      <point x="413" y="848"/>
    </contour>
  </outline>
</glyph>
<glyph name="Delta" format="2">
  <advance width="890"/>
  <unicode hex="0394"/>
  <outline>
    <contour>
      <point x="48" y="0" type="line"/>
      <point x="842" y="0" type="line"/>
      <point x="854" y="75" type="line"/>
      <point x="626" y="710" type="line"/>
      <point x="499" y="710" type="line"/>
      <point x="60" y="75" type="line"/>
    </contour>
    <contour>
      <point x="759" y="70" type="line"/>
      <point x="759" y="77" type="line"/>
      <point x="109" y="77" type="line"/>
      <point x="107" y="57" type="line"/>
      <point x="555" y="706" type="line"/>
      <point x="532" y="702" type="line"/>
    </contour>
  </outline>
</glyph>
<glyph name="Omega" format="2">
  <advance width="1023"/>
  <unicode hex="03A9"/>
  <outline>
    <contour>
      <point x="573" y="689" type="curve" smooth="yes"/>
      <point x="368" y="689"/>
      <point x="284" y="588"/>
      <point x="284" y="431" type="curve" smooth="yes"/>
      <point x="284" y="286"/>
      <point x="325" y="196"/>
      <point x="435" y="82" type="curve"/>
      <point x="422" y="0" type="line"/>
      <point x="55" y="0" type="line"/>
      <point x="92" y="217" type="line"/>
      <point x="150" y="217" type="line"/>
      <point x="145" y="112" type="line" smooth="yes"/>
      <point x="143" y="76"/>
      <point x="194" y="63"/>
      <point x="301" y="63" type="curve" smooth="yes"/>
      <point x="409" y="63" type="line"/>
      <point x="404" y="47" type="line"/>
      <point x="224" y="213"/>
      <point x="178" y="312"/>
      <point x="178" y="442" type="curve" smooth="yes"/>
      <point x="178" y="611"/>
      <point x="319" y="735"/>
      <point x="570" y="735" type="curve" smooth="yes"/>
      <point x="830" y="735"/>
      <point x="951" y="620"/>
      <point x="951" y="459" type="curve" smooth="yes"/>
      <point x="951" y="336"/>
      <point x="887" y="229"/>
      <point x="635" y="45" type="curve"/>
      <point x="632" y="63" type="line"/>
      <point x="743" y="63" type="line" smooth="yes"/>
      <point x="849" y="63"/>
      <point x="905" y="76"/>
      <point x="915" y="112" type="curve" smooth="yes"/>
      <point x="944" y="217" type="line"/>
      <point x="1002" y="217" type="line"/>
      <point x="968" y="0" type="line"/>
      <point x="599" y="0" type="line"/>
      <point x="612" y="82" type="line"/>
      <point x="771" y="207"/>
      <point x="845" y="325"/>
      <point x="845" y="459" type="curve" smooth="yes"/>
      <point x="845" y="586"/>
      <point x="779" y="689"/>
    </contour>
  </outline>
</glyph>
<glyph name="pi" format="2">
  <advance width="940"/>
  <unicode hex="03C0"/>
  <outline>
    <contour>
      <point x="361" y="0" type="line"/>
      <point x="441" y="478" type="line"/>
      <point x="394" y="478" type="line"/>
      <point x="339" y="213"/>
      <point x="293" y="188"/>
      <point x="261" y="0" type="curve"/>
    </contour>
    <contour>
      <point x="941" y="442" type="line"/>
      <point x="952" y="512" type="line"/>
      <point x="373" y="512" type="line" smooth="yes"/>
      <point x="205" y="512"/>
      <point x="122" y="446"/>
      <point x="88" y="318" type="curve"/>
      <point x="139" y="309" type="line"/>
      <point x="172" y="406"/>
      <point x="221" y="442"/>
      <point x="333" y="442" type="curve" smooth="yes"/>
    </contour>
    <contour>
      <point x="741" y="478" type="line"/>
      <point x="704" y="478" type="line"/>
      <point x="639" y="209"/>
      <point x="593" y="149"/>
      <point x="593" y="96" type="curve" smooth="yes"/>
      <point x="593" y="21"/>
      <point x="646" y="-10"/>
      <point x="738" y="-10" type="curve" smooth="yes"/>
      <point x="829" y="-10"/>
      <point x="875" y="35"/>
      <point x="903" y="102" type="curve"/>
      <point x="858" y="121" type="line"/>
      <point x="837" y="63"/>
      <point x="801" y="34"/>
      <point x="749" y="34" type="curve" smooth="yes"/>
      <point x="703" y="34"/>
      <point x="683" y="57"/>
      <point x="683" y="99" type="curve" smooth="yes"/>
      <point x="683" y="118"/>
      <point x="684" y="128"/>
      <point x="686" y="142" type="curve" smooth="yes"/>
    </contour>
  </outline>
</glyph>
<glyph name="Djecyr" format="2">
  <advance width="966"/>
  <unicode hex="0402"/>
  <anchor x="376.74" y="741" name="top"/>
  <outline>
    <contour>
      <point x="706" y="400" type="curve" smooth="yes"/>
      <point x="625" y="400"/>
      <point x="519" y="384"/>
      <point x="444" y="338" type="curve"/>
      <point x="434" y="294" type="line"/>
      <point x="512" y="349"/>
      <point x="629" y="358"/>
      <point x="693" y="358" type="curve" smooth="yes"/>
      <point x="810" y="358"/>
      <point x="877" y="306"/>
      <point x="877" y="205" type="curve" smooth="yes"/>
      <point x="877" y="95"/>
      <point x="811" y="17"/>
      <point x="683" y="17" type="curve"/>
      <point x="676" y="-25" type="line"/>
      <point x="864" y="-25"/>
      <point x="970" y="67"/>
      <point x="970" y="206" type="curve" smooth="yes"/>
      <point x="970" y="336"/>
      <point x="877" y="400"/>
    </contour>
    <contour>
      <point x="356" y="83" type="line" smooth="yes"/>
      <point x="351" y="54"/>
      <point x="314" y="47"/>
      <point x="265" y="47" type="curve" smooth="yes"/>
      <point x="218" y="47" type="line"/>
      <point x="211" y="0" type="line"/>
      <point x="568" y="0" type="line"/>
      <point x="575" y="47" type="line"/>
      <point x="526" y="47" type="line" smooth="yes"/>
      <point x="478" y="47"/>
      <point x="441" y="47"/>
      <point x="443" y="57" type="curve" smooth="yes"/>
      <point x="541" y="670" type="line"/>
      <point x="677" y="670" type="line" smooth="yes"/>
      <point x="762" y="670"/>
      <point x="789" y="661"/>
      <point x="787" y="625" type="curve" smooth="yes"/>
      <point x="781" y="491" type="line"/>
      <point x="840" y="491" type="line"/>
      <point x="874" y="710" type="line"/>
      <point x="167" y="710" type="line"/>
      <point x="130" y="471" type="line"/>
      <point x="185" y="471" type="line"/>
      <point x="228" y="625" type="line" smooth="yes"/>
      <point x="237" y="661"/>
      <point x="268" y="670"/>
      <point x="354" y="670" type="curve" smooth="yes"/>
      <point x="450" y="670" type="line"/>
    </contour>
  </outline>
</glyph>
<glyph name="Eukrcyr" format="2">
  <advance width="982"/>
  <unicode hex="0404"/>
  <anchor x="510.64" y="741" name="top"/>
  <anchor x="510.64" y="0" name="bottom"/>
  <outline>
    <contour>
      <point x="187" y="380" type="curve"/>
      <point x="182" y="349" type="line"/>
      <point x="310" y="345"/>
      <point x="470" y="338"/>
      <point x="606" y="332" type="curve"/>
      <point x="615" y="397" type="line"/>
      <point x="471" y="391"/>
      <point x="328" y="385"/>
    </contour>
    <contour>
      <point x="521" y="24" type="curve" smooth="yes"/>
      <point x="346" y="24"/>
      <point x="224.0132877424" y="121.3487058577"/>
      <point x="226" y="323" type="curve" smooth="yes"/>
      <point x="228" y="516"/>
      <point x="330" y="691"/>
      <point x="556" y="691" type="curve" smooth="yes"/>
      <point x="707" y="691"/>
      <point x="826" y="605"/>
      <point x="852" y="478" type="curve"/>
      <point x="902" y="478" type="line"/>
      <point x="940" y="720" type="line"/>
      <point x="887" y="720" type="line"/>
      <point x="841" y="563" type="line"/>
      <point x="864" y="556" type="line"/>
      <point x="835" y="671"/>
      <point x="690.8598130841" y="735"/>
      <point x="550" y="735" type="curve" smooth="yes"/>
      <point x="279" y="735"/>
      <point x="126" y="534"/>
      <point x="126" y="324" type="curve" smooth="yes"/>
      <point x="126" y="114"/>
      <point x="259" y="-25"/>
      <point x="515" y="-25" type="curve" smooth="yes"/>
      <point x="694" y="-25"/>
      <point x="826" y="51"/>
      <point x="912" y="208" type="curve"/>
      <point x="858" y="230" type="line"/>
      <point x="783.9075904886" y="84.8189273087"/>
      <point x="658.8179104478" y="24"/>
    </contour>
  </outline>
</glyph>
<glyph name="Njecyr" format="2">
  <advance width="1298"/>
  <unicode hex="040A"/>
  <anchor x="480.26" y="741" name="top"/>
  <outline>
    <contour>
      <point x="277" y="407" type="line"/>
      <point x="269" y="365" type="line"/>
      <point x="810" y="365" type="line"/>
      <point x="818" y="407" type="line"/>
    </contour>
    <contour>
      <point x="69" y="0" type="line"/>
      <point x="390" y="0" type="line"/>
      <point x="395" y="47" type="line"/>
      <point x="368" y="47" type="line" smooth="yes"/>
      <point x="331" y="47"/>
      <point x="282" y="49"/>
      <point x="283" y="57" type="curve" smooth="yes"/>
      <point x="380" y="653" type="line" smooth="yes"/>
      <point x="381" y="660"/>
      <point x="427" y="663"/>
      <point x="465" y="663" type="curve" smooth="yes"/>
      <point x="495" y="663" type="line"/>
      <point x="501" y="710" type="line"/>
      <point x="182" y="710" type="line"/>
      <point x="176" y="663" type="line"/>
      <point x="207" y="663" type="line" smooth="yes"/>
      <point x="257" y="663"/>
      <point x="290" y="655"/>
      <point x="286" y="627" type="curve" smooth="yes"/>
      <point x="197" y="83" type="line" smooth="yes"/>
      <point x="192" y="54"/>
      <point x="155" y="47"/>
      <point x="106" y="47" type="curve" smooth="yes"/>
      <point x="76" y="47" type="line"/>
    </contour>
    <contour>
      <point x="1001" y="0" type="line" smooth="yes"/>
      <point x="1226" y="0"/>
      <point x="1314" y="103"/>
      <point x="1314" y="227" type="curve" smooth="yes"/>
      <point x="1314" y="347"/>
      <point x="1224" y="407"/>
      <point x="1057" y="407" type="curve" smooth="yes"/>
      <point x="825" y="407" type="line"/>
      <point x="815" y="365" type="line"/>
      <point x="1053" y="365" type="line" smooth="yes"/>
      <point x="1173" y="365"/>
      <point x="1221" y="306"/>
      <point x="1221" y="221" type="curve" smooth="yes"/>
      <point x="1221" y="95"/>
      <point x="1138" y="42"/>
      <point x="1001" y="42" type="curve" smooth="yes"/>
      <point x="808" y="42" type="line"/>
      <point x="902" y="627" type="line" smooth="yes"/>
      <point x="907" y="659"/>
      <point x="946" y="663"/>
      <point x="991" y="663" type="curve" smooth="yes"/>
      <point x="1021" y="663" type="line"/>
      <point x="1027" y="710" type="line"/>
      <point x="707" y="710" type="line"/>
      <point x="701" y="663" type="line"/>
      <point x="732" y="663" type="line" smooth="yes"/>
      <point x="788" y="663"/>
      <point x="816" y="659"/>
      <point x="815" y="653" type="curve" smooth="yes"/>
      <point x="720" y="57" type="line" smooth="yes"/>
      <point x="719" y="49"/>
      <point x="678" y="47"/>
      <point x="631" y="47" type="curve" smooth="yes"/>
      <point x="602" y="47" type="line"/>
      <point x="595" y="0" type="line"/>
    </contour>
  </outline>
</glyph>
<glyph name="Tshecyr" format="2">
  <advance width="1090"/>
  <unicode hex="040B"/>
  <guideline x="568" y="683" angle="90" identifier="juO2xYoEN4"/>
  <anchor x="392.4" y="741" name="top"/>
  <outline>
    <contour>
      <point x="712" y="400" type="curve" smooth="yes"/>
      <point x="651" y="400"/>
      <point x="535" y="387"/>
      <point x="445" y="339" type="curve"/>
      <point x="435" y="298" type="line"/>
      <point x="514" y="343"/>
      <point x="623" y="358"/>
      <point x="697" y="358" type="curve" smooth="yes"/>
      <point x="842" y="358"/>
      <point x="890" y="315"/>
      <point x="869" y="182" type="curve" smooth="yes"/>
      <point x="840" y="0" type="line"/>
      <point x="1048" y="0" type="line"/>
      <point x="1055" y="47" type="line"/>
      <point x="1022" y="47" type="line" smooth="yes"/>
      <point x="970" y="47"/>
      <point x="939" y="53"/>
      <point x="944" y="83" type="curve" smooth="yes"/>
      <point x="961" y="190" type="line" smooth="yes"/>
      <point x="985.7554474784" y="345.8136988347"/>
      <point x="916" y="400"/>
    </contour>
    <contour>
      <point x="356" y="83" type="line" smooth="yes"/>
      <point x="351" y="54"/>
      <point x="314" y="47"/>
      <point x="265" y="47" type="curve" smooth="yes"/>
      <point x="218" y="47" type="line"/>
      <point x="211" y="0" type="line"/>
      <point x="568" y="0" type="line"/>
      <point x="575" y="47" type="line"/>
      <point x="526" y="47" type="line" smooth="yes"/>
      <point x="475" y="47"/>
      <point x="442" y="51"/>
      <point x="443" y="57" type="curve" smooth="yes"/>
      <point x="541" y="670" type="line"/>
      <point x="677" y="670" type="line" smooth="yes"/>
      <point x="762" y="670"/>
      <point x="789" y="661"/>
      <point x="787" y="625" type="curve" smooth="yes"/>
      <point x="781" y="491" type="line"/>
      <point x="840" y="491" type="line"/>
      <point x="874" y="710" type="line"/>
      <point x="167" y="710" type="line"/>
      <point x="130" y="471" type="line"/>
      <point x="185" y="471" type="line"/>
      <point x="228" y="625" type="line" smooth="yes"/>
      <point x="237" y="661"/>
      <point x="268" y="670"/>
      <point x="354" y="670" type="curve" smooth="yes"/>
      <point x="450" y="670" type="line"/>
    </contour>
  </outline>
</glyph>
<glyph name="Becyr" format="2">
  <advance width="812"/>
  <unicode hex="0411"/>
  <anchor x="414.12" y="741" name="top"/>
  <outline>
    <contour>
      <point x="826" y="710" type="line"/>
      <point x="181" y="710" type="line"/>
      <point x="175" y="663" type="line"/>
      <point x="207" y="663" type="line" smooth="yes"/>
      <point x="263" y="663"/>
      <point x="289" y="651"/>
      <point x="285" y="627" type="curve" smooth="yes"/>
      <point x="198" y="83" type="line" smooth="yes"/>
      <point x="193" y="53"/>
      <point x="152" y="47"/>
      <point x="104" y="47" type="curve" smooth="yes"/>
      <point x="76" y="47" type="line"/>
      <point x="69" y="0" type="line"/>
      <point x="485" y="0" type="line" smooth="yes"/>
      <point x="702" y="0"/>
      <point x="788" y="100"/>
      <point x="788" y="233" type="curve" smooth="yes"/>
      <point x="788" y="359"/>
      <point x="701" y="419"/>
      <point x="542" y="419" type="curve" smooth="yes"/>
      <point x="291" y="419" type="line"/>
      <point x="280" y="376" type="line"/>
      <point x="536" y="376" type="line" smooth="yes"/>
      <point x="646" y="376"/>
      <point x="695" y="314"/>
      <point x="695" y="227" type="curve" smooth="yes"/>
      <point x="695" y="119"/>
      <point x="625" y="40"/>
      <point x="480" y="40" type="curve" smooth="yes"/>
      <point x="282" y="40" type="line"/>
      <point x="382" y="668" type="line"/>
      <point x="617" y="668" type="line" smooth="yes"/>
      <point x="703.6825396825" y="668"/>
      <point x="745.539458912" y="659.0233385409"/>
      <point x="744" y="623" type="curve" smooth="yes"/>
      <point x="739" y="506" type="line"/>
      <point x="794" y="506" type="line"/>
    </contour>
  </outline>
</glyph>
<glyph name="Gecyr" format="2">
  <advance width="785"/>
  <unicode hex="0413"/>
  <anchor x="400.35" y="741" name="top"/>
  <outline>
    <contour>
      <point x="69" y="0" type="line"/>
      <point x="415" y="0" type="line"/>
      <point x="422" y="47" type="line"/>
      <point x="369" y="47" type="line" smooth="yes"/>
      <point x="302" y="47"/>
      <point x="283.2471329008" y="54.154038861"/>
      <point x="288" y="84" type="curve" smooth="yes"/>
      <point x="381" y="668" type="line"/>
      <point x="618" y="668" type="line" smooth="yes"/>
      <point x="710.075" y="668"/>
      <point x="742" y="658"/>
      <point x="740" y="623" type="curve" smooth="yes"/>
      <point x="733" y="471" type="line"/>
      <point x="790" y="471" type="line"/>
      <point x="827" y="710" type="line"/>
      <point x="182" y="710" type="line"/>
      <point x="176" y="663" type="line"/>
      <point x="207" y="663" type="line" smooth="yes"/>
      <point x="257" y="663"/>
      <point x="289" y="653"/>
      <point x="285" y="625" type="curve" smooth="yes"/>
      <point x="198" y="84" type="line" smooth="yes"/>
      <point x="193.1727372983" y="53.9821940045"/>
      <point x="156" y="47"/>
      <point x="107" y="47" type="curve" smooth="yes"/>
      <point x="76" y="47" type="line"/>
    </contour>
  </outline>
</glyph>
<glyph name="Decyr" format="2">
  <advance width="971"/>
  <unicode hex="0414"/>
  <anchor x="524.34" y="741" name="top"/>
  <outline>
    <contour>
      <point x="389" y="710" type="line"/>
      <point x="382" y="668" type="line"/>
      <point x="855" y="668" type="line"/>
      <point x="862" y="710" type="line"/>
    </contour>
    <contour>
      <point x="785" y="0" type="line"/>
      <point x="885" y="627" type="line" smooth="yes"/>
      <point x="889" y="655"/>
      <point x="923" y="663"/>
      <point x="985" y="663" type="curve" smooth="yes"/>
      <point x="1006" y="663" type="line"/>
      <point x="1013" y="710" type="line"/>
      <point x="808" y="710" type="line"/>
      <point x="695" y="0" type="line"/>
    </contour>
    <contour>
      <point x="836" y="-50" type="curve" smooth="yes"/>
      <point x="828" y="-189" type="line"/>
      <point x="884" y="-189" type="line"/>
      <point x="920" y="42" type="line"/>
      <point x="24" y="42" type="line"/>
      <point x="-10" y="-189" type="line"/>
      <point x="45" y="-189" type="line"/>
      <point x="80" y="-52" type="line" smooth="yes"/>
      <point x="92" y="-7"/>
      <point x="118" y="0"/>
      <point x="186" y="0" type="curve" smooth="yes"/>
      <point x="758" y="0" type="line" smooth="yes"/>
      <point x="818" y="0"/>
      <point x="838" y="-7"/>
    </contour>
    <contour>
      <point x="181" y="26" type="line"/>
      <point x="229" y="94"/>
      <point x="293" y="258"/>
      <point x="335" y="420" type="curve" smooth="yes"/>
      <point x="411" y="710" type="line"/>
      <point x="228" y="710" type="line"/>
      <point x="222" y="663" type="line"/>
      <point x="252" y="663" type="line" smooth="yes"/>
      <point x="302" y="663"/>
      <point x="338" y="653"/>
      <point x="331" y="627" type="curve" smooth="yes"/>
      <point x="278" y="425" type="line" smooth="yes"/>
      <point x="235.2858298177" y="262.2025966639"/>
      <point x="164" y="98"/>
      <point x="103" y="26" type="curve"/>
    </contour>
  </outline>
</glyph>
<glyph name="Zecyr" format="2">
  <advance width="836"/>
  <unicode hex="0417"/>
  <anchor x="451.44" y="741" name="top"/>
  <anchor x="451.44" y="0" name="bottom"/>
  <outline>
    <contour>
      <point x="493" y="-25" type="curve" smooth="yes"/>
      <point x="676" y="-25"/>
      <point x="798" y="47"/>
      <point x="798" y="193" type="curve" smooth="yes"/>
      <point x="798" y="302.7428571429"/>
      <point x="710.3307692308" y="360"/>
      <point x="536" y="360" type="curve"/>
      <point x="604" y="344" type="line"/>
      <point x="610" y="383" type="line"/>
      <point x="539" y="370" type="line"/>
      <point x="713.2627737226" y="370"/>
      <point x="815" y="442.9319371728"/>
      <point x="815" y="569" type="curve" smooth="yes"/>
      <point x="815" y="676"/>
      <point x="733" y="734"/>
      <point x="577" y="734" type="curve" smooth="yes"/>
      <point x="440" y="734"/>
      <point x="324" y="679"/>
      <point x="262" y="558" type="curve"/>
      <point x="290" y="555" type="line"/>
      <point x="292" y="720" type="line"/>
      <point x="239" y="720" type="line"/>
      <point x="198" y="460" type="line"/>
      <point x="248" y="460" type="line"/>
      <point x="317.2857101405" y="622.6707977212"/>
      <point x="425.5526315789" y="691"/>
      <point x="560" y="691" type="curve" smooth="yes"/>
      <point x="670" y="691"/>
      <point x="720" y="651.7540983607"/>
      <point x="720" y="565" type="curve" smooth="yes"/>
      <point x="720" y="457.6136363636"/>
      <point x="651.8149809016" y="380.9617490544"/>
      <point x="493" y="390" type="curve" smooth="yes"/>
      <point x="370" y="397" type="line"/>
      <point x="361" y="332" type="line"/>
      <point x="472" y="338" type="line" smooth="yes"/>
      <point x="634" y="347"/>
      <point x="703" y="290.7482993197"/>
      <point x="703" y="187" type="curve" smooth="yes"/>
      <point x="703" y="85"/>
      <point x="643" y="21"/>
      <point x="493" y="21" type="curve" smooth="yes"/>
      <point x="336.2695035461" y="21"/>
      <point x="228" y="80"/>
      <point x="206" y="250" type="curve"/>
      <point x="151" y="250" type="line"/>
      <point x="110" y="-10" type="line"/>
      <point x="163" y="-10" type="line"/>
      <point x="209" y="147" type="line"/>
      <point x="188" y="159" type="line"/>
      <point x="216" y="54"/>
      <point x="317" y="-25"/>
    </contour>
  </outline>
</glyph>
<glyph name="Ucyr" format="2">
  <advance width="875"/>
  <unicode hex="0423"/>
  <anchor x="446.25" y="741" name="top"/>
  <anchor x="288.75" y="0" name="bottom"/>
  <outline>
    <contour>
      <point x="482" y="146" type="curve" smooth="yes"/>
      <point x="832" y="627" type="line" smooth="yes"/>
      <point x="857" y="661"/>
      <point x="886" y="663"/>
      <point x="917" y="663" type="curve" smooth="yes"/>
      <point x="943" y="663" type="line"/>
      <point x="949" y="710" type="line"/>
      <point x="677" y="710" type="line"/>
      <point x="671" y="663" type="line"/>
      <point x="711" y="663" type="line" smooth="yes"/>
      <point x="753" y="663"/>
      <point x="794" y="656"/>
      <point x="796" y="648" type="curve"/>
      <point x="462" y="189" type="line" smooth="yes"/>
      <point x="393" y="95"/>
      <point x="340" y="74"/>
      <point x="266" y="74" type="curve" smooth="yes"/>
      <point x="226" y="74"/>
      <point x="190" y="80"/>
      <point x="171" y="91" type="curve"/>
      <point x="156" y="0" type="line"/>
      <point x="175" y="-10"/>
      <point x="204.2352941176" y="-15"/>
      <point x="238" y="-15" type="curve" smooth="yes"/>
      <point x="358" y="-15"/>
      <point x="405" y="41"/>
    </contour>
    <contour>
      <point x="494" y="207" type="line"/>
      <point x="316" y="652" type="line"/>
      <point x="316" y="659"/>
      <point x="346" y="663"/>
      <point x="398" y="663" type="curve" smooth="yes"/>
      <point x="429" y="663" type="line"/>
      <point x="435" y="710" type="line"/>
      <point x="144" y="710" type="line"/>
      <point x="138" y="663" type="line"/>
      <point x="161" y="663" type="line" smooth="yes"/>
      <point x="202" y="663"/>
      <point x="225" y="660"/>
      <point x="238" y="627" type="curve" smooth="yes"/>
      <point x="438" y="127" type="line"/>
    </contour>
  </outline>
</glyph>
<glyph name="Efcyr" format="2">
  <advance width="1076"/>
  <unicode hex="0424"/>
  <anchor x="538.0" y="741" name="top"/>
  <anchor x="538.0" y="0" name="bottom"/>
  <outline>
    <contour>
      <point x="497" y="63" type="line" smooth="yes"/>
      <point x="493" y="31"/>
      <point x="444" y="27"/>
      <point x="402" y="27" type="curve" smooth="yes"/>
      <point x="365" y="27" type="line"/>
      <point x="358" y="-20" type="line"/>
      <point x="701" y="-20" type="line"/>
      <point x="708" y="27" type="line"/>
      <point x="668" y="27" type="line" smooth="yes"/>
      <point x="625" y="27"/>
      <point x="583" y="30"/>
      <point x="587" y="63" type="curve" smooth="yes"/>
      <point x="680" y="646" type="line" smooth="yes"/>
      <point x="684" y="678"/>
      <point x="716" y="683"/>
      <point x="783" y="683" type="curve" smooth="yes"/>
      <point x="812" y="683" type="line"/>
      <point x="818" y="730" type="line"/>
      <point x="476" y="730" type="line"/>
      <point x="470" y="683" type="line"/>
      <point x="508" y="683" type="line" smooth="yes"/>
      <point x="556" y="683"/>
      <point x="594" y="678"/>
      <point x="590" y="646" type="curve" smooth="yes"/>
    </contour>
    <contour>
      <point x="600" y="610" type="line"/>
      <point x="270" y="610"/>
      <point x="76" y="515"/>
      <point x="76" y="340" type="curve" smooth="yes"/>
      <point x="76" y="198"/>
      <point x="224" y="110"/>
      <point x="518" y="110" type="curve"/>
      <point x="523" y="152" type="line"/>
      <point x="263" y="152"/>
      <point x="177" y="225"/>
      <point x="177" y="340" type="curve" smooth="yes"/>
      <point x="177" y="497"/>
      <point x="320" y="568"/>
      <point x="593" y="568" type="curve"/>
    </contour>
    <contour>
      <point x="581" y="110" type="line"/>
      <point x="914" y="110"/>
      <point x="1110" y="207"/>
      <point x="1110" y="380" type="curve" smooth="yes"/>
      <point x="1110" y="522"/>
      <point x="963" y="610"/>
      <point x="661" y="610" type="curve"/>
      <point x="655" y="568" type="line"/>
      <point x="923" y="568"/>
      <point x="1009" y="495"/>
      <point x="1009" y="380" type="curve" smooth="yes"/>
      <point x="1009" y="222"/>
      <point x="862" y="152"/>
      <point x="587" y="152" type="curve"/>
    </contour>
  </outline>
</glyph>
<glyph name="Checyr" format="2">
  <advance width="971"/>
  <unicode hex="0427"/>
  <guideline x="1120" y="741" angle="90" identifier="nfCxFSb4p1"/>
  <guideline x="1120" y="741" angle="90" identifier="2XVA9XPjvS"/>
  <anchor x="475.79" y="741" name="top"/>
  <outline>
    <contour>
      <point x="247" y="510" type="line" smooth="yes"/>
      <point x="221" y="347"/>
      <point x="298" y="288"/>
      <point x="502" y="288" type="curve" smooth="yes"/>
      <point x="584" y="288"/>
      <point x="698" y="307"/>
      <point x="777" y="350" type="curve"/>
      <point x="784" y="392" type="line"/>
      <point x="701" y="349"/>
      <point x="598" y="330"/>
      <point x="505" y="330" type="curve" smooth="yes"/>
      <point x="367" y="330"/>
      <point x="316" y="374"/>
      <point x="337" y="508" type="curve" smooth="yes"/>
      <point x="361" y="653" type="line" smooth="yes"/>
      <point x="362" y="660"/>
      <point x="406" y="663"/>
      <point x="446" y="663" type="curve" smooth="yes"/>
      <point x="476" y="663" type="line"/>
      <point x="482" y="710" type="line"/>
      <point x="162" y="710" type="line"/>
      <point x="156" y="663" type="line"/>
      <point x="187" y="663" type="line" smooth="yes"/>
      <point x="231" y="663"/>
      <point x="271" y="657"/>
      <point x="266" y="627" type="curve" smooth="yes"/>
    </contour>
    <contour>
      <point x="578" y="0" type="line"/>
      <point x="899" y="0" type="line"/>
      <point x="906" y="47" type="line"/>
      <point x="874" y="47" type="line" smooth="yes"/>
      <point x="824" y="47"/>
      <point x="791" y="55"/>
      <point x="795" y="83" type="curve" smooth="yes"/>
      <point x="882" y="627" type="line" smooth="yes"/>
      <point x="887" y="656"/>
      <point x="924" y="663"/>
      <point x="973" y="663" type="curve" smooth="yes"/>
      <point x="1004" y="663" type="line"/>
      <point x="1010" y="710" type="line"/>
      <point x="690" y="710" type="line"/>
      <point x="684" y="663" type="line"/>
      <point x="711" y="663" type="line" smooth="yes"/>
      <point x="748" y="663"/>
      <point x="797" y="660"/>
      <point x="796" y="653" type="curve" smooth="yes"/>
      <point x="700" y="57" type="line" smooth="yes"/>
      <point x="699" y="50"/>
      <point x="652" y="47"/>
      <point x="615" y="47" type="curve" smooth="yes"/>
      <point x="585" y="47" type="line"/>
    </contour>
  </outline>
</glyph>
<glyph name="Yucyr" format="2">
  <advance width="1334"/>
  <unicode hex="042E"/>
  <guideline x="732" y="785" angle="90" identifier="6nH5tb4DEh"/>
  <anchor x="693.68" y="741" name="top"/>
  <anchor x="693.68" y="0" name="bottom"/>
  <outline>
    <contour>
      <point x="318" y="387" type="line"/>
      <point x="308" y="345" type="line"/>
      <point x="556" y="345" type="line"/>
      <point x="566" y="387" type="line"/>
    </contour>
    <contour>
      <point x="69" y="0" type="line"/>
      <point x="390" y="0" type="line"/>
      <point x="395" y="47" type="line"/>
      <point x="368" y="47" type="line" smooth="yes"/>
      <point x="331" y="47"/>
      <point x="282" y="49"/>
      <point x="283" y="57" type="curve" smooth="yes"/>
      <point x="380" y="653" type="line" smooth="yes"/>
      <point x="381" y="660"/>
      <point x="427" y="663"/>
      <point x="465" y="663" type="curve" smooth="yes"/>
      <point x="495" y="663" type="line"/>
      <point x="501" y="710" type="line"/>
      <point x="181" y="710" type="line"/>
      <point x="175" y="663" type="line"/>
      <point x="206" y="663" type="line" smooth="yes"/>
      <point x="256" y="663"/>
      <point x="289" y="655"/>
      <point x="285" y="627" type="curve" smooth="yes"/>
      <point x="197" y="83" type="line" smooth="yes"/>
      <point x="192" y="54"/>
      <point x="155" y="47"/>
      <point x="106" y="47" type="curve" smooth="yes"/>
      <point x="76" y="47" type="line"/>
    </contour>
    <contour>
      <point x="876" y="-25" type="curve" smooth="yes"/>
      <point x="1207" y="-25"/>
      <point x="1320" y="221"/>
      <point x="1320" y="386" type="curve" smooth="yes"/>
      <point x="1320" y="601"/>
      <point x="1178" y="735"/>
      <point x="950" y="735" type="curve" smooth="yes"/>
      <point x="619" y="735"/>
      <point x="506" y="489"/>
      <point x="506" y="324" type="curve" smooth="yes"/>
      <point x="506" y="109"/>
      <point x="648" y="-25"/>
    </contour>
    <contour>
      <point x="941" y="692" type="curve" smooth="yes"/>
      <point x="1110" y="692"/>
      <point x="1219" y="575"/>
      <point x="1219" y="387" type="curve" smooth="yes"/>
      <point x="1219" y="338"/>
      <point x="1206" y="268"/>
      <point x="1189" y="223" type="curve" smooth="yes"/>
      <point x="1145" y="106"/>
      <point x="1053" y="17"/>
      <point x="885" y="17" type="curve" smooth="yes"/>
      <point x="716" y="17"/>
      <point x="607" y="135"/>
      <point x="607" y="323" type="curve" smooth="yes"/>
      <point x="607" y="372"/>
      <point x="621" y="441"/>
      <point x="638" y="486" type="curve" smooth="yes"/>
      <point x="682" y="603"/>
      <point x="773" y="692"/>
    </contour>
  </outline>
</glyph>
<glyph name="decyr" format="2">
  <advance width="766"/>
  <unicode hex="0434"/>
  <anchor x="390.66" y="780" name="top"/>
  <outline>
    <contour>
      <point x="448" y="746" type="curve" smooth="yes"/>
      <point x="592" y="746"/>
      <point x="643" y="640"/>
      <point x="643" y="419" type="curve" smooth="yes"/>
      <point x="643" y="322.4979079498"/>
      <point x="629.2294406375" y="236.7662414344"/>
      <point x="600" y="171" type="curve" smooth="yes"/>
      <point x="564.9969965981" y="83.9655050548"/>
      <point x="503" y="31"/>
      <point x="405" y="31" type="curve" smooth="yes"/>
      <point x="290" y="31"/>
      <point x="207" y="81"/>
      <point x="207" y="243" type="curve" smooth="yes"/>
      <point x="207" y="324"/>
      <point x="228" y="389"/>
      <point x="265" y="434" type="curve" smooth="yes"/>
      <point x="304" y="482"/>
      <point x="357" y="506"/>
      <point x="429" y="506" type="curve" smooth="yes"/>
      <point x="537" y="506"/>
      <point x="613" y="441"/>
      <point x="661" y="362" type="curve"/>
      <point x="664" y="402" type="line"/>
      <point x="623.8269897989" y="483.3503456573"/>
      <point x="540" y="548"/>
      <point x="416" y="548" type="curve" smooth="yes"/>
      <point x="216" y="548"/>
      <point x="106" y="416"/>
      <point x="106" y="252" type="curve" smooth="yes"/>
      <point x="106" y="96"/>
      <point x="209" y="-13"/>
      <point x="406" y="-13" type="curve" smooth="yes"/>
      <point x="617" y="-13"/>
      <point x="736" y="152"/>
      <point x="736" y="418" type="curve" smooth="yes"/>
      <point x="736" y="619"/>
      <point x="660" y="790"/>
      <point x="460" y="790" type="curve" smooth="yes"/>
      <point x="353" y="790"/>
      <point x="258" y="744"/>
      <point x="199" y="657" type="curve"/>
      <point x="235" y="633" type="line"/>
      <point x="288" y="702"/>
      <point x="350.7163461538" y="746"/>
    </contour>
  </outline>
</glyph>
<glyph name="zhecyr" format="2">
  <advance width="1040"/>
  <unicode hex="0436"/>
  <guideline x="241" y="553" angle="90" identifier="iJ3VaKODEI"/>
  <guideline x="241" y="553" angle="90" identifier="CdtU5zqGdb"/>
  <anchor x="509.6" y="551" name="top"/>
  <outline>
    <contour>
      <point x="900" y="77" type="line" smooth="yes"/>
      <point x="928" y="37"/>
      <point x="952.1162790698" y="35"/>
      <point x="983" y="35" type="curve" smooth="yes"/>
      <point x="1000.9272727273" y="35"/>
      <point x="1018" y="35"/>
      <point x="1041" y="35" type="curve"/>
      <point x="1036" y="0" type="line"/>
      <point x="1003" y="0"/>
      <point x="970" y="0"/>
      <point x="937" y="0" type="curve" smooth="yes"/>
      <point x="870" y="0"/>
      <point x="843" y="17"/>
      <point x="812" y="61" type="curve" smooth="yes"/>
      <point x="655" y="281" type="line"/>
      <point x="656" y="286" type="line"/>
      <point x="750" y="379"/>
      <point x="849" y="477"/>
      <point x="938" y="565" type="curve"/>
      <point x="1034" y="565" type="line"/>
      <point x="1034" y="550" type="line"/>
      <point x="932" y="469"/>
      <point x="803" y="367"/>
      <point x="704" y="288" type="curve"/>
      <point x="724" y="330" type="line"/>
    </contour>
    <contour>
      <point x="482" y="0" type="line"/>
      <point x="575" y="565" type="line"/>
      <point x="663" y="565" type="line"/>
      <point x="570" y="0" type="line"/>
    </contour>
    <contour>
      <point x="169" y="78" type="curve" smooth="yes"/>
      <point x="425" y="325" type="line"/>
      <point x="457" y="279" type="line"/>
      <point x="374.4428526335" y="362.5518117926"/>
      <point x="265" y="471"/>
      <point x="183" y="550" type="curve"/>
      <point x="183" y="565" type="line"/>
      <point x="295" y="565" type="line"/>
      <point x="353" y="482"/>
      <point x="423" y="382"/>
      <point x="490" y="287" type="curve"/>
      <point x="489" y="282" type="line"/>
      <point x="260" y="61" type="line" smooth="yes"/>
      <point x="210" y="13"/>
      <point x="189" y="0"/>
      <point x="118" y="0" type="curve" smooth="yes"/>
      <point x="90" y="0"/>
      <point x="64" y="0"/>
      <point x="38" y="0" type="curve"/>
      <point x="43" y="35" type="line"/>
      <point x="61" y="35"/>
      <point x="78" y="35"/>
      <point x="88" y="35" type="curve" smooth="yes"/>
      <point x="124" y="35"/>
      <point x="140.6910600756" y="50.6862962448"/>
    </contour>
  </outline>
</glyph>
<glyph name="zecyr" format="2">
  <advance width="645"/>
  <unicode hex="0437"/>
  <anchor x="316.05" y="551" name="top"/>
  <anchor x="316.05" y="0" name="bottom"/>
  <outline>
    <contour>
      <point x="401" y="534" type="curve" smooth="yes"/>
      <point x="496" y="534"/>
      <point x="533" y="492"/>
      <point x="533" y="426" type="curve" smooth="yes"/>
      <point x="533" y="364"/>
      <point x="497" y="316"/>
      <point x="398" y="316" type="curve" smooth="yes"/>
      <point x="269" y="316" type="line"/>
      <point x="262" y="274" type="line"/>
      <point x="397" y="274" type="line" smooth="yes"/>
      <point x="473" y="274"/>
      <point x="519" y="246"/>
      <point x="519" y="164" type="curve" smooth="yes"/>
      <point x="519" y="68"/>
      <point x="452" y="28"/>
      <point x="345" y="28" type="curve" smooth="yes"/>
      <point x="232" y="28"/>
      <point x="164" y="65"/>
      <point x="149" y="89" type="curve"/>
      <point x="137.0639308703" y="60.0124035421"/>
      <point x="158" y="26"/>
      <point x="176" y="26" type="curve"/>
      <point x="202" y="181" type="line"/>
      <point x="113" y="181" type="line"/>
      <point x="93" y="61" type="line"/>
      <point x="133" y="27"/>
      <point x="224" y="-12"/>
      <point x="347" y="-12" type="curve" smooth="yes"/>
      <point x="511" y="-12"/>
      <point x="613" y="42"/>
      <point x="613" y="156" type="curve" smooth="yes"/>
      <point x="613" y="249"/>
      <point x="540" y="292"/>
      <point x="405" y="292" type="curve"/>
      <point x="473" y="275" type="line"/>
      <point x="478" y="309" type="line"/>
      <point x="408" y="300" type="line"/>
      <point x="576" y="300"/>
      <point x="625" y="370"/>
      <point x="625" y="443" type="curve" smooth="yes"/>
      <point x="625" y="525"/>
      <point x="556" y="575"/>
      <point x="406" y="575" type="curve" smooth="yes"/>
      <point x="286" y="575"/>
      <point x="195" y="516"/>
      <point x="156" y="457" type="curve"/>
      <point x="192" y="433" type="line"/>
      <point x="238" y="494"/>
      <point x="305" y="534"/>
    </contour>
  </outline>
</glyph>
<glyph name="efcyr" format="2">
  <advance width="981"/>
  <unicode hex="0444"/>
  <anchor x="451.26" y="780" name="top"/>
  <outline>
    <contour>
      <point x="656" y="780" type="line"/>
      <point x="442" y="780" type="line"/>
      <point x="437" y="742" type="line"/>
      <point x="474" y="738" type="line" smooth="yes"/>
      <point x="553" y="729"/>
      <point x="560" y="718"/>
      <point x="554" y="682" type="curve" smooth="yes"/>
      <point x="426" y="-122" type="line" smooth="yes"/>
      <point x="417" y="-181"/>
      <point x="369" y="-191"/>
      <point x="311" y="-191" type="curve" smooth="yes"/>
      <point x="309" y="-191" type="line"/>
      <point x="305" y="-223" type="line"/>
      <point x="605" y="-223" type="line"/>
      <point x="608" y="-191" type="line"/>
      <point x="606" y="-191" type="line" smooth="yes"/>
      <point x="526" y="-191"/>
      <point x="504" y="-181"/>
      <point x="513" y="-122" type="curve" smooth="yes"/>
    </contour>
    <contour>
      <point x="464" y="32" type="line"/>
      <point x="264" y="46"/>
      <point x="199" y="144"/>
      <point x="199" y="261" type="curve" smooth="yes"/>
      <point x="199" y="407"/>
      <point x="301" y="525"/>
      <point x="539" y="529" type="curve"/>
      <point x="551" y="573" type="line"/>
      <point x="272" y="571"/>
      <point x="105" y="455"/>
      <point x="105" y="260" type="curve" smooth="yes"/>
      <point x="105" y="133"/>
      <point x="190" y="11"/>
      <point x="456" y="-12" type="curve"/>
    </contour>
    <contour>
      <point x="603" y="529" type="line"/>
      <point x="817" y="518"/>
      <point x="870" y="418"/>
      <point x="870" y="291" type="curve" smooth="yes"/>
      <point x="870" y="153"/>
      <point x="776" y="32"/>
      <point x="520" y="32" type="curve"/>
      <point x="512" y="-12" type="line"/>
      <point x="810" y="-12"/>
      <point x="964" y="105"/>
      <point x="964" y="295" type="curve" smooth="yes"/>
      <point x="964" y="427"/>
      <point x="882" y="556"/>
      <point x="615" y="573" type="curve"/>
    </contour>
  </outline>
</glyph>
<glyph name="tsecyr" format="2">
  <advance width="842"/>
  <unicode hex="0446"/>
  <anchor x="412.58" y="551" name="top"/>
  <outline>
    <contour>
      <point x="290" y="197" type="curve" smooth="yes"/>
      <point x="356" y="565" type="line"/>
      <point x="137" y="565" type="line"/>
      <point x="132" y="527" type="line"/>
      <point x="175" y="522" type="line" smooth="yes"/>
      <point x="248" y="514"/>
      <point x="255" y="500"/>
      <point x="249" y="467" type="curve" smooth="yes"/>
      <point x="202" y="199" type="line" smooth="yes"/>
      <point x="198" y="175"/>
      <point x="194" y="150"/>
      <point x="194" y="124" type="curve" smooth="yes"/>
      <point x="194" y="45"/>
      <point x="243" y="-10"/>
      <point x="353" y="-10" type="curve" smooth="yes"/>
      <point x="466" y="-10"/>
      <point x="538" y="53"/>
      <point x="635" y="178" type="curve"/>
      <point x="624" y="211" type="line"/>
      <point x="521.2075665541" y="90.4165684577"/>
      <point x="459" y="45"/>
      <point x="374" y="45" type="curve" smooth="yes"/>
      <point x="309" y="45"/>
      <point x="281" y="73.2839506173"/>
      <point x="281" y="124" type="curve" smooth="yes"/>
      <point x="281" y="141.2894736842"/>
      <point x="283.4580866116" y="160.5238768649"/>
    </contour>
    <contour>
      <point x="676" y="0" type="curve" smooth="yes"/>
      <point x="730" y="0"/>
      <point x="754" y="-7"/>
      <point x="752" y="-43" type="curve" smooth="yes"/>
      <point x="744" y="-169" type="line"/>
      <point x="803" y="-169" type="line"/>
      <point x="835" y="42" type="line"/>
      <point x="704" y="42" type="line" smooth="yes"/>
      <point x="681" y="42"/>
      <point x="673" y="47"/>
      <point x="673" y="63" type="curve" smooth="yes"/>
      <point x="673" y="78.8035714286"/>
      <point x="675.7839826603" y="95.6944270214"/>
      <point x="680" y="122" type="curve" smooth="yes"/>
      <point x="751" y="565" type="line"/>
      <point x="663" y="565" type="line"/>
      <point x="601" y="181" type="line"/>
      <point x="597" y="160" type="line"/>
      <point x="591" y="113"/>
      <point x="587" y="91"/>
      <point x="587" y="73" type="curve" smooth="yes"/>
      <point x="587" y="23"/>
      <point x="617.3186813187" y="0"/>
    </contour>
  </outline>
</glyph>
